{
.appVersion = "3260";
.storedFileType = "public.truetype-ttf-font";
.formatVersion = 3;
customParameters = (
{
name = panose;
value = (
0,
0,
0,
0,
0,
0,
0,
0,
0,
0
);
},
{
name = unicodeRanges;
value = (
0,
1,
2,
29
);
},
{
name = glyphOrder;
value = (
.notdef,
.null,
CR,
space,
A,
Aacute,
Acircumflex,
Adieresis,
Agrave,
Amacron,
Aring,
Atilde,
AE,
B,
C,
Ccedilla,
D,
Eth,
E,
Eacute,
Ecircumflex,
Edieresis,
Egrave,
F,
G,
H,
I,
Iacute,
Icircumflex,
Idieresis,
Igrave,
J,
K,
L,
M,
N,
Ntilde,
O,
Oacute,
Ocircumflex,
Odieresis,
Ograve,
Oslash,
Otilde,
P,
Thorn,
Q,
R,
S,
uni1E9E,
T,
U,
Uacute,
Ucircumflex,
Udieresis,
Ugrave,
V,
W,
X,
Y,
Yacute,
Z,
A.ss01,
Aacute.ss01,
B.ss01,
C.ss01,
D.ss01,
E.ss01,
F.ss01,
G.ss01,
H.ss01,
I.ss01,
J.ss01,
K.ss01,
L.ss01,
M.ss01,
N.ss01,
Ntilde.ss01,
O.ss01,
P.ss01,
Q.ss01,
R.ss01,
S.ss01,
T.ss01,
U.ss01,
V.ss01,
W.ss01,
X.ss01,
Y.ss01,
Z.ss01,
A.ss02,
Aacute.ss02,
B.ss02,
C.ss02,
D.ss02,
E.ss02,
F.ss02,
G.ss02,
H.ss02,
I.ss02,
J.ss02,
K.ss02,
L.ss02,
M.ss02,
N.ss02,
Ntilde.ss02,
O.ss02,
P.ss02,
Q.ss02,
R.ss02,
S.ss02,
T.ss02,
U.ss02,
V.ss02,
W.ss02,
X.ss02,
Y.ss02,
Z.ss02,
a,
aacute,
acircumflex,
adieresis,
agrave,
amacron,
aring,
atilde,
ae,
b,
c,
ccedilla,
d,
eth,
e,
eacute,
ecircumflex,
edieresis,
egrave,
f,
g,
h,
i,
iacute,
icircumflex,
idieresis,
i.loclTRK,
igrave,
j,
k,
l,
m,
n,
ntilde,
o,
oacute,
ocircumflex,
odieresis,
ograve,
oslash,
otilde,
p,
thorn,
q,
r,
s,
germandbls,
t,
u,
uacute,
ucircumflex,
udieresis,
ugrave,
v,
w,
x,
y,
yacute,
ydieresis,
z,
a.ss01,
aacute.ss01,
acircumflex.ss01,
b.ss01,
c.ss01,
d.ss01,
e.ss01,
f.ss01,
g.ss01,
h.ss01,
i.ss01,
j.ss01,
k.ss01,
l.ss01,
m.ss01,
n.ss01,
ntilde.ss01,
o.ss01,
p.ss01,
q.ss01,
r.ss01,
s.ss01,
t.ss01,
u.ss01,
v.ss01,
w.ss01,
x.ss01,
y.ss01,
z.ss01,
a.ss02,
aacute.ss02,
acircumflex.ss02,
b.ss02,
c.ss02,
d.ss02,
e.ss02,
f.ss02,
g.ss02,
h.ss02,
i.ss02,
j.ss02,
k.ss02,
l.ss02,
m.ss02,
n.ss02,
ntilde.ss02,
o.ss02,
p.ss02,
q.ss02,
r.ss02,
s.ss02,
t.ss02,
u.ss02,
v.ss02,
w.ss02,

glyphs = (
{
glyphname = A;
layers = (
{
.lastUpdate = 753955765.466;
layerId = m01;
shapes = (
{
closed = 1;
nodes = (
(421,-43,o),
(407,33,o),
(400,92,qs),
(390,165,o),
(388,175,q),
(350,168,o),
(285,145,o),
(231,123,qs),
(189,105,o),
(167,97,q),
(167,87,o),
(154,14,o),
(151,1,q),
(151,-5,o),
(121,-40,o),
(86,-69,o),
(78,-69,qs),
(72,-69,o),
(72,-61,q),
(58,-54,o),
(58,-25,qs),
(58,-6,o),
(68,42,qs),
(72,62,o),
(72,64,q),
(64,57,o),
(41,40,o),
(41,49,q),
(34,49,o),
(34,53,qs),
(34,56,o),
(40,63,o),
(41,64,qs),
(55,81,o),
(88,112,q),
(137,352,o),
(230,586,q),
(239,614,ls),
(252,656,o),
(276,711,o),
(293,728,qs),
(302,736,o),
(316,743,qs),
(332,751,o),
(340,759,q),
(368,768,o),
(438,501,o),
(476,319,qs),
(483,285,l),
(498,285,o),
(514,291,o),
(514,302,q),
(535,302,o),
(555,280,o),
(555,265,qs),
(555,249,o),
(545,239,qs),
(536,228,o),
(514,222,o),
(498,222,q),
(509,212,o),
(531,113,o),
(531,97,q),
(533,89,o),
(545,43,o),
(545,34,qs),
(545,26,o),
(506,-36,o),
(459,-87,o),
(446,-87,qs),
(438,-87,o),
(435,-78,qs)
);
},
{
closed = 1;
nodes = (
(266,519,o),
(209,295,o),
(183,144,q),
(373,239,l),
(351,322,o),
(326,484,o),
(309,617,q)
);
}
);
userData = {
assembly = "NPUSHB[ ]	/* 46 values pushed */
74 1 1 3 75 66 61 54 46 43 8 7 0 1 2 76 78 1 2 74 0 2 3 2 133 0 3 1 3 133 0 1 0 1 133 0 0 0 118 18 22 25 32 4 8 26
CALL[ ]	/* CallFunction */";
};
width = 600;
}
);
note = A;
unicode = 65;
},
{
glyphname = Aacute;
layers = (
{
.lastUpdate = 753955765.467;
layerId = m01;
shapes = (
{
closed = 1;
nodes = (
(421,-43,o),
(407,33,o),
(400,92,qs),
(390,165,o),
(388,175,q),
(350,168,o),
(285,145,o),
(231,123,qs),
(189,105,o),
(167,97,q),
(167,87,o),
(154,14,o),
(151,1,q),
(151,-5,o),
(121,-40,o),
(86,-69,o),
(78,-69,qs),
(72,-69,o),
(72,-61,q),
(58,-54,o),
(58,-25,qs),
(58,-6,o),
(68,42,qs),
(72,62,o),
(72,64,q),
(64,57,o),
(41,40,o),
(41,49,q),
(34,49,o),
(34,53,qs),
(34,56,o),
(40,63,o),
(41,64,qs),
(55,81,o),
(88,112,q),
(137,352,o),
(230,586,q),
(239,614,ls),
(252,656,o),
(276,711,o),
(293,728,qs),
(302,736,o),
(316,743,qs),
(332,751,o),
(340,759,q),
(368,768,o),
(438,501,o),
(476,319,qs),
(483,285,l),
(498,285,o),
(514,291,o),
(514,302,q),
(535,302,o),
(555,280,o),
(555,265,qs),
(555,249,o),
(545,239,qs),
(536,228,o),
(514,222,o),
(498,222,q),
(509,212,o),
(531,113,o),
(531,97,q),
(533,89,o),
(545,43,o),
(545,34,qs),
(545,26,o),
(506,-36,o),
(459,-87,o),
(446,-87,qs),
(438,-87,o),
(435,-78,qs)
);
},
{
closed = 1;
nodes = (
(266,519,o),
(209,295,o),
(183,144,q),
(373,239,l),
(351,322,o),
(326,484,o),
(309,617,q)
);
},
{
closed = 1;
nodes = (
(510,799,o),
(472,761,o),
(441,716,o),
(441,698,qs),
(441,671,o),
(468,662,qs),
(470,661,o),
(470,664,q),
(479,679,o),
(499,694,qs),
(518,707,ls),
(536,717,o),
(555,735,o),
(555,746,qs),
(555,750,o),
(554,752,q),
(552,767,o),
(524,799,o),
(512,799,qs)
);
}
);
userData = {
assembly = "NPUSHB[ ]	/* 60 values pushed */
89 81 78 3 2 4 74 1 1 3 75 66 61 54 46 43 8 7 0 1 3 76 5 1 4 2 4 133 0 2 3 2 133 0 3 1 3 133 0 1 0 1 133 0 0 0 118 79 79 79 97 79 96 18 22 25 32 6 8 26
CALL[ ]	/* CallFunction */";
};
width = 600;
}
);
note = Aacute;
unicode = 193;
},
{
glyphname = Acircumflex;
layers = (
{
.lastUpdate = 753955765.466;
layerId = m01;
shapes = (
{
closed = 1;
nodes = (
(408,-51,o),
(395,20,o),
(389,69,qs),
(383,121,o),
(378,145,q),
(344,139,o),
(281,117,o),
(238,98,qs),
(180,75,l),
(180,66,o),
(167,-1,o),
(165,-12,q),
(165,-17,o),
(139,-48,o),
(107,-74,o),
(99,-74,qs),
(94,-74,o),
(94,-67,q),
(82,-62,o),
(82,-35,qs),
(82,-17,o),
(94,43,o),
(94,45,q),
(87,39,o),
(66,23,o),
(66,32,q),
(57,32,o),
(63,42,o),
(66,45,qs),
(86,68,o),
(109,88,q),
(150,296,o),
(236,515,qs),
(246,544,ls),
(257,580,o),
(278,628,o),
(293,643,qs),
(299,649,o),
(313,655,qs),
(329,664,o),
(335,671,q),
(376,684,o),
(459,267,qs),
(464,244,l),
(478,244,o),
(492,249,o),
(492,259,q),
(511,259,o),
(528,240,o),
(528,226,qs),
(528,211,o),
(520,203,qs),
(511,192,o),
(492,187,o),
(477,187,q),
(487,178,o),
(507,90,o),
(507,75,q),
(509,68,o),
(520,27,o),
(520,18,qs),
(520,11,o),
(484,-45,o),
(442,-91,o),
(430,-91,qs),
(424,-91,o),
(421,-83,qs)
);
},
{
closed = 1;
nodes = (
(268,455,o),
(217,252,o),
(194,117,q),
(365,203,l),
(347,270,o),
(326,398,o),
(311,509,qs),
(307,543,l)
);
},
{
closed = 1;
nodes = (
(144,709,o),
(177,730,o),
(205,744,qs),
(224,753,ls),
(245,764,o),
(271,786,qs),
(290,801,o),
(313,814,o),
(328,814,qs),
(346,814,o),
(371,802,qs),
(411,782,o),
(432,762,qs),
(433,761,o),
(453,746,qs),
(479,728,o),
(510,698,o),
(510,681,qs),
(510,674,o),
(500,660,o),
(494,654,qs),
(493,653,ls),
(490,650,o),
(483,641,o),
(480,640,q),
(476,640,ls),
(462,640,o),
(417,676,o),
(376,713,qs),
(357,731,o),
(322,761,o),
(315,761,q),
(314,760,l),
(304,757,o),
(260,719,qs),
(240,702,o),
(201,673,o),
(194,673,q),
(139,694,l)
);
}
);
userData = {
assembly = "NPUSHB[ ]	/* 26 values pushed */
113 1 5 6 74 1 2 5 70 1 1 3 71 61 57 43 8 5 4 1 50 1 0 4 5 76
MPPEM[ ]	/* MeasurePixelPerEm */
PUSHB[ ]	/* 1 value pushed */
39
LT[ ]	/* LessThan */
IF[ ]	/* If */
NPUSHB[ ]	/* 46 values pushed */
0 5 6 2 6 5 2 128 0 2 3 6 2 3 126 0 3 1 6 3 1 126 0 1 4 6 1 4 126 0 4 0 6 4 0 126 0 0 0 132 0 6 6 26 6 78
ELSE[ ]	/* Else */
NPUSHB[ ]	/* 34 values pushed */
0 6 5 6 133 0 5 2 5 133 0 2 3 2 133 0 3 1 3 133 0 1 4 1 133 0 4 0 4 133 0 0 0 118
EIF[ ]	/* EndIf */
NPUSHB[ ]	/* 13 values pushed */
105 103 87 86 40 39 18 22 25 32 7 8 26
CALL[ ]	/* CallFunction */";
};
width = 600;
}
);
note = Acircumflex;
unicode = 194;
},
{
glyphname = Adieresis;
layers = (
{
.lastUpdate = 753955765.466;
layerId = m01;
shapes = (
{
closed = 1;
nodes = (
(408,-51,o),
(395,20,o),
(389,69,qs),
(383,121,o),
(378,145,q),
(344,139,o),
(281,117,o),
(238,98,qs),
(180,75,l),
(180,66,o),
(167,-1,o),
(165,-12,q),
(165,-17,o),
(139,-48,o),
(107,-74,o),
(99,-74,qs),
(94,-74,o),
(94,-67,q),
(82,-62,o),
(82,-35,qs),
(82,-17,o),
(94,43,o),
(94,45,q),
(87,39,o),
(66,23,o),
(66,32,q),
(57,32,o),
(63,42,o),
(66,45,qs),
(86,68,o),
(109,88,q),
(150,296,o),
(236,515,qs),
(246,544,ls),
(257,580,o),
(278,628,o),
(293,643,qs),
(299,649,o),
(313,655,qs),
(329,664,o),
(335,671,q),
(376,684,o),
(459,267,qs),
(464,244,l),
(478,244,o),
(492,249,o),
(492,259,q),
(511,259,o),
(528,240,o),
(528,226,qs),
(528,211,o),
(520,203,qs),
(511,192,o),
(492,187,o),
(477,187,q),
(487,178,o),
(507,90,o),
(507,75,q),
(509,68,o),
(520,27,o),
(520,18,qs),
(520,11,o),
(484,-45,o),
(442,-91,o),
(430,-91,qs),
(424,-91,o),
(421,-83,qs)
);
},
{
closed = 1;
nodes = (
(268,455,o),
(217,252,o),
(194,117,q),
(365,203,l),
(347,270,o),
(326,398,o),
(311,509,qs),
(307,543,l)
);
},
{
closed = 1;
nodes = (
(238,736,o),
(205,755,o),
(190,755,qs),
(169,755,o),
(138,728,o),
(138,706,qs),
(138,697,o),
(139,693,qs),
(140,687,o),
(154,674,o),
(160,670,qs),
(176,660,o),
(188,660,qs),
(210,660,o),
(238,705,o),
(238,723,qs)
);
},
{
closed = 1;
nodes = (
(464,781,o),
(433,735,o),
(433,716,qs),
(433,698,o),
(462,678,o),
(482,678,qs),
(501,678,o),
(533,693,o),
(540,706,q),
(542,712,o),
(542,715,qs),
(542,732,o),
(502,779,o),
(486,781,qs),
(481,781,ls)
);
}
);
userData = {
assembly = "NPUSHB[ ]	/* 103 values pushed */
94 1 7 6 74 1 2 5 70 1 1 3 71 61 57 43 8 5 4 1 50 1 0 4 5 76 0 8 6 8 133 0 6 7 6 133 0 5 7 2 7 5 2 128 0 2 3 7 2 3 126 0 3 1 7 3 1 126 0 4 1 0 1 4 0 128 0 0 0 132 0 7 5 1 7 89 0 7 7 1 97 0 1 7 1 81 105 104 100 98 88 86 78 76 40 39 18 22 25 32 9 8 26
CALL[ ]	/* CallFunction */";
};
width = 600;
}
);
note = Adieresis;
unicode = 196;
},
{
glyphname = Agrave;
layers = (
{
.lastUpdate = 753955765.467;
layerId = m01;
shapes = (
{
closed = 1;
nodes = (
(408,-51,o),
(395,20,o),
(389,69,qs),
(383,121,o),
(378,145,q),
(344,139,o),
(281,117,o),
(238,98,qs),
(180,75,l),
(180,66,o),
(167,-1,o),
(165,-12,q),
(165,-17,o),
(139,-48,o),
(107,-74,o),
(99,-74,qs),
(94,-74,o),
(94,-67,q),
(82,-62,o),
(82,-35,qs),
(82,-17,o),
(94,43,o),
(94,45,q),
(87,39,o),
(66,23,o),
(66,32,q),
(57,32,o),
(63,42,o),
(66,45,qs),
(86,68,o),
(109,88,q),
(150,296,o),
(236,515,qs),
(246,544,ls),
(257,580,o),
(278,628,o),
(293,643,qs),
(299,649,o),
(313,655,qs),
(329,664,o),
(335,671,q),
(376,684,o),
(459,267,qs),
(464,244,l),
(478,244,o),
(492,249,o),
(492,259,q),
(511,259,o),
(528,240,o),
(528,226,qs),
(528,211,o),
(520,203,qs),
(511,192,o),
(492,187,o),
(477,187,q),
(487,178,o),
(507,90,o),
(507,75,q),
(509,68,o),
(520,27,o),
(520,18,qs),
(520,11,o),
(484,-45,o),
(442,-91,o),
(430,-91,qs),
(424,-91,o),
(421,-83,qs)
);
},
{
closed = 1;
nodes = (
(268,455,o),
(217,252,o),
(194,117,q),
(365,203,l),
(347,270,o),
(326,398,o),
(311,509,qs),
(307,543,l)
);
},
{
closed = 1;
nodes = (
(194,804,ls),
(206,804,o),
(226,795,o),
(244,786,qs),
(293,761,o),
(293,733,qs),
(293,705,o),
(246,682,qs),
(242,680,o),
(240,680,qs),
(235,680,o),
(223,691,o),
(215,704,o),
(211,708,qs),
(199,718,o),
(161,749,o),
(160,760,qs),
(159,766,o),
(185,804,o),
(191,804,qs)
);
}
);
userData = {
assembly = "NPUSHB[ ]	/* 77 values pushed */
74 1 2 5 70 1 1 3 71 61 57 43 8 5 4 1 50 1 0 4 4 76 0 2 5 3 5 2 3 128 0 3 1 5 3 1 126 0 1 4 5 1 4 126 0 4 0 5 4 0 126 0 0 0 132 6 1 5 5 26 5 78 75 75 75 94 75 92 40 39 18 22 25 32 7 8 26
CALL[ ]	/* CallFunction */";
};
width = 600;
}
);
note = Agrave;
unicode = 192;
},
{
glyphname = Amacron;
layers = (
{
.lastUpdate = 753955765.467;
layerId = m01;
shapes = (
{
closed = 1;
nodes = (
(408,-51,o),
(395,20,o),
(389,69,qs),
(383,121,o),
(378,145,q),
(344,139,o),
(281,117,o),
(238,98,qs),
(180,75,l),
(180,66,o),
(167,-1,o),
(165,-12,q),
(165,-17,o),
(139,-48,o),
(107,-74,o),
(99,-74,qs),
(94,-74,o),
(94,-67,q),
(82,-62,o),
(82,-35,qs),
(82,-17,o),
(94,43,o),
(94,45,q),
(87,39,o),
(66,23,o),
(66,32,q),
(57,32,o),
(63,42,o),
(66,45,qs),
(86,68,o),
(109,88,q),
(150,296,o),
(236,515,qs),
(246,544,ls),
(257,580,o),
(278,628,o),
(293,643,qs),
(299,649,o),
(313,655,qs),
(329,664,o),
(335,671,q),
(376,684,o),
(459,267,qs),
(464,244,l),
(478,244,o),
(492,249,o),
(492,259,q),
(511,259,o),
(528,240,o),
(528,226,qs),
(528,211,o),
(520,203,qs),
(511,192,o),
(492,187,o),
(477,187,q),
(487,178,o),
(507,90,o),
(507,75,q),
(509,68,o),
(520,27,o),
(520,18,qs),
(520,11,o),
(484,-45,o),
(442,-91,o),
(430,-91,qs),
(424,-91,o),
(421,-83,qs)
);
},
{
closed = 1;
nodes = (
(268,455,o),
(217,252,o),
(194,117,q),
(365,203,l),
(347,270,o),
(326,398,o),
(311,509,qs),
(307,543,l)
);
},
{
closed = 1;
nodes = (
(207,762,l),
(296,761,l),
(385,761,l),
(420,761,ls),
(482,761,o),
(486,757,qs),
(491,750,o),
(491,730,qs),
(491,720,o),
(486,705,o),
(482,704,qs),
(467,699,o),
(443,699,qs),
(428,699,o),
(398,701,o),
(384,702,qs),
(314,704,l),
(227,702,ls),
(218,701,o),
(197,697,o),
(190,697,qs),
(184,697,o),
(181,698,qs),
(175,699,o),
(171,743,o),
(170,761,q)
);
}
);
userData = {
assembly = "NPUSHB[ ]	/* 22 values pushed */
74 1 2 5 70 1 1 3 71 61 57 43 8 5 4 1 50 1 0 4 4 76
MPPEM[ ]	/* MeasurePixelPerEm */
PUSHB[ ]	/* 1 value pushed */
39
LT[ ]	/* LessThan */
IF[ ]	/* If */
NPUSHB[ ]	/* 51 values pushed */
0 2 5 3 5 2 3 128 0 3 1 5 3 1 126 0 1 4 5 1 4 126 0 4 0 5 4 0 126 0 0 0 132 0 8 5 5 8 87 0 8 8 5 97 7 6 2 5 8 5 81
ELSE[ ]	/* Else */
NPUSHB[ ]	/* 56 values pushed */
7 1 5 6 2 6 5 114 0 2 3 6 2 3 126 0 3 1 6 3 1 126 0 1 4 6 1 4 126 0 4 0 6 4 0 126 0 0 0 132 0 8 6 6 8 87 0 8 8 6 95 0 6 8 6 79
EIF[ ]	/* EndIf */
NPUSHB[ ]	/* 17 values pushed */
100 94 88 85 84 82 80 78 40 39 18 22 25 32 9 8 26
CALL[ ]	/* CallFunction */";
};
width = 600;
}
);
note = Amacron;
unicode = 256;
},
{
glyphname = Aring;
layers = (
{
.lastUpdate = 753955765.465;
layerId = m01;
shapes = (
{
closed = 1;
nodes = (
(405,-52,o),
(392,15,o),
(386,62,qs),
(380,112,o),
(375,137,q),
(342,130,o),
(290,112,o),
(234,89,qs),
(184,69,l),
(184,60,o),
(171,-4,o),
(169,-15,q),
(169,-20,o),
(144,-50,o),
(114,-75,o),
(107,-75,qs),
(102,-75,o),
(102,-68,q),
(90,-61,o),
(90,-36,qs),
(90,-19,o),
(102,39,o),
(102,40,q),
(99,37,o),
(81,24,o),
(77,24,qs),
(74,24,o),
(74,28,q),
(65,28,o),
(71,37,o),
(74,40,qs),
(99,67,l),
(115,83,l),
(157,288,o),
(238,493,q),
(255,547,o),
(276,599,o),
(293,616,qs),
(302,625,o),
(314,630,qs),
(330,639,o),
(335,644,q),
(371,655,o),
(451,267,qs),
(458,232,l),
(471,232,o),
(484,237,o),
(484,247,q),
(503,247,o),
(520,229,o),
(520,215,qs),
(520,200,o),
(512,192,qs),
(504,182,o),
(485,177,o),
(471,177,q),
(480,169,o),
(500,83,o),
(500,69,q),
(502,62,o),
(512,23,o),
(512,15,qs),
(512,8,o),
(478,-45,o),
(438,-90,o),
(426,-90,qs),
(420,-90,o),
(417,-82,qs)
);
},
{
closed = 1;
nodes = (
(269,436,o),
(220,243,o),
(197,110,q),
(363,192,l),
(344,267,o),
(319,422,o),
(307,520,q)
);
},
{
closed = 1;
nodes = (
(286,791,o),
(251,771,o),
(251,749,qs),
(251,733,o),
(274,707,o),
(292,707,qs),
(303,707,o),
(321,715,qs),
(344,727,o),
(344,746,qs),
(344,761,o),
(319,785,o),
(305,787,qs)
);
}
);
userData = {
assembly = "NPUSHB[ ]	/* 61 values pushed */
74 1 2 5 70 1 1 3 71 62 58 8 4 4 1 51 1 0 4 4 76 0 5 2 5 133 0 2 3 2 133 0 3 1 3 133 0 1 4 1 133 0 4 0 4 133 0 0 0 118 82 80 39 38 18 22 25 32 6 8 26
CALL[ ]	/* CallFunction */";
};
width = 600;
}
);
note = Aring;
unicode = 197;
},
{
glyphname = Atilde;
layers = (
{
.lastUpdate = 753955765.467;
layerId = m01;
shapes = (
{
closed = 1;
nodes = (
(405,-52,o),
(392,15,o),
(386,62,qs),
(380,112,o),
(375,137,q),
(342,130,o),
(290,112,o),
(234,89,qs),
(184,69,l),
(184,60,o),
(171,-4,o),
(169,-15,q),
(169,-20,o),
(144,-50,o),
(114,-75,o),
(107,-75,qs),
(102,-75,o),
(102,-68,q),
(90,-61,o),
(90,-36,qs),
(90,-19,o),
(102,39,o),
(102,40,q),
(99,37,o),
(81,24,o),
(77,24,qs),
(74,24,o),
(74,28,q),
(65,28,o),
(71,37,o),
(74,40,qs),
(99,67,l),
(115,83,l),
(157,288,o),
(238,493,q),
(255,547,o),
(276,599,o),
(293,616,qs),
(302,625,o),
(314,630,qs),
(330,639,o),
(335,644,q),
(371,655,o),
(451,267,qs),
(458,232,l),
(471,232,o),
(484,237,o),
(484,247,q),
(503,247,o),
(520,229,o),
(520,215,qs),
(520,200,o),
(512,192,qs),
(504,182,o),
(485,177,o),
(471,177,q),
(480,169,o),
(500,83,o),
(500,69,q),
(502,62,o),
(512,23,o),
(512,15,qs),
(512,8,o),
(478,-45,o),
(438,-90,o),
(426,-90,qs),
(420,-90,o),
(417,-82,qs)
);
},
{
closed = 1;
nodes = (
(269,436,o),
(220,243,o),
(197,110,q),
(363,192,l),
(344,267,o),
(319,422,o),
(307,520,q)
);
},
{
closed = 1;
nodes = (
(75,651,o),
(75,659,qs),
(75,664,o),
(93,690,o),
(94,692,qs),
(136,770,o),
(307,770,qs),
(344,770,o),
(394,756,qs),
(430,748,o),
(440,748,q),
(498,754,l),
(516,754,o),
(534,730,o),
(534,698,qs),
(534,686,o),
(514,681,o),
(490,680,qs),
(456,680,o),
(403,692,o),
(369,704,qs),
(344,713,o),
(311,721,o),
(294,721,qs),
(286,721,o),
(272,719,qs),
(253,716,o),
(223,700,o),
(202,685,qs),
(176,668,o),
(142,651,o),
(120,651,qs),
(92,651,ls)
);
}
);
userData = {
assembly = "NPUSHB[ ]	/* 21 values pushed */
74 1 2 5 70 1 1 3 71 62 58 8 4 4 1 51 1 0 4 4 76
MPPEM[ ]	/* MeasurePixelPerEm */
PUSHB[ ]	/* 1 value pushed */
18
LT[ ]	/* LessThan */
IF[ ]	/* If */
NPUSHB[ ]	/* 60 values pushed */
11 1 5 7 2 6 5 114 0 2 3 7 2 3 126 0 3 1 7 3 1 126 0 1 4 7 1 4 126 0 4 0 7 4 0 126 0 0 0 132 0 10 0 6 7 10 6 105 0 7 7 8 97 9 1 8 8 28 7 78
ELSE[ ]	/* Else */
MPPEM[ ]	/* MeasurePixelPerEm */
PUSHB[ ]	/* 1 value pushed */
24
LT[ ]	/* LessThan */
IF[ ]	/* If */
NPUSHB[ ]	/* 61 values pushed */
11 1 5 7 2 7 5 2 128 0 2 3 7 2 3 126 0 3 1 7 3 1 126 0 1 4 7 1 4 126 0 4 0 7 4 0 126 0 0 0 132 0 10 0 6 7 10 6 105 0 7 7 8 97 9 1 8 8 28 7 78
ELSE[ ]	/* Else */
MPPEM[ ]	/* MeasurePixelPerEm */
PUSHB[ ]	/* 1 value pushed */
39
LT[ ]	/* LessThan */
IF[ ]	/* If */
NPUSHB[ ]	/* 67 values pushed */
11 1 5 7 2 7 5 2 128 0 2 3 7 2 3 126 0 3 1 7 3 1 126 0 1 4 7 1 4 126 0 4 0 7 4 0 126 0 0 0 132 9 1 8 6 7 8 89 0 10 0 6 7 10 6 105 9 1 8 8 7 97 0 7 8 7 81
ELSE[ ]	/* Else */
NPUSHB[ ]	/* 73 values pushed */
0 9 8 6 8 9 6 128 11 1 5 7 2 7 5 2 128 0 2 3 7 2 3 126 0 3 1 7 3 1 126 0 1 4 7 1 4 126 0 4 0 7 4 0 126 0 0 0 132 0 8 9 7 8 89 0 10 0 6 7 10 6 105 0 8 8 7 97 0 7 8 7 81
EIF[ ]	/* EndIf */
EIF[ ]	/* EndIf */
EIF[ ]	/* EndIf */
NPUSHB[ ]	/* 25 values pushed */
76 75 101 99 97 96 95 94 90 88 84 82 75 107 76 106 39 38 18 22 25 32 12 8 26
CALL[ ]	/* CallFunction */";
};
width = 600;
}
);
note = Atilde;
unicode = 195;
},
{
glyphname = B;
layers = (
{
.lastUpdate = 753955765.465;
layerId = m01;
shapes = (
{
closed = 1;
nodes = (
(220,-108,o),
(202,-108,qs),
(177,-108,o),
(125,-87,o),
(92,-55,o),
(92,-40,qs),
(92,-7,o),
(168,1,q),
(113,1,o),
(56,162,o),
(37,380,o),
(32,541,qs),
(29,631,o),
(23,734,o),
(16,761,q),
(23,771,o),
(34,771,qs),
(49,771,o),
(87,738,o),
(114,695,o),
(114,683,qs),
(114,672,o),
(100,676,q),
(100,575,l),
(168,673,o),
(293,770,o),
(341,770,qs),
(378,770,o),
(420,711,o),
(420,657,qs),
(420,559,o),
(354,423,q),
(434,447,o),
(485,447,qs),
(545,447,o),
(603,390,o),
(603,341,qs),
(603,266,o),
(489,68,o),
(317,-87,o),
(235,-102,q)
);
},
{
closed = 1;
nodes = (
(162,445,o),
(151,351,o),
(151,271,q),
(183,333,ls),
(238,441,o),
(301,583,o),
(320,659,q),
(272,612,o),
(208,536,o),
(185,490,qs)
);
},
{
closed = 1;
nodes = (
(185,1,l),
(320,85,o),
(513,276,o),
(524,389,q),
(465,389,o),
(365,334,o),
(300,283,qs),
(260,251,o),
(214,223,o),
(195,223,qs),
(169,223,o),
(151,254,q),
(151,243,o),
(162,173,o),
(168,136,qs),
(185,40,o),
(185,17,qs)
);
}
);
userData = {
assembly = "NPUSHB[ ]	/* 68 values pushed */
43 25 17 16 4 0 1 8 1 6 0 55 47 2 5 6 3 76 66 1 3 1 75 2 1 1 0 1 133 0 5 6 3 6 5 3 128 0 4 3 4 134 0 0 0 6 5 0 6 105 0 3 3 30 3 78 63 62 58 56 37 23 40 37 37 7 8 27
CALL[ ]	/* CallFunction */";
};
width = 600;
}
);
note = B;
unicode = 66;
},
{
glyphname = C;
layers = (
{
.lastUpdate = 753955765.465;
layerId = m01;
shapes = (
{
closed = 1;
nodes = (
(223,-37,o),
(194,-37,qs),
(147,-37,o),
(103,9,q),
(50,84,o),
(50,199,qs),
(50,286,o),
(106,476,o),
(148,559,qs),
(168,599,o),
(267,688,o),
(386,748,o),
(437,748,qs),
(483,748,o),
(547,692,o),
(558,632,q),
(558,626,o),
(551,619,o),
(544,614,qs),
(534,608,o),
(527,601,q),
(500,568,o),
(486,568,qs),
(479,568,o),
(470,583,o),
(463,601,qs),
(454,625,o),
(437,654,o),
(421,662,q),
(406,665,o),
(393,665,qs),
(326,665,o),
(235,552,o),
(184,404,o),
(163,313,q),
(158,275,o),
(158,242,qs),
(158,173,o),
(204,71,o),
(255,54,qs),
(258,53,o),
(264,53,qs),
(326,53,o),
(436,222,q),
(450,249,o),
(501,300,o),
(528,300,qs),
(538,300,o),
(543,298,q),
(469,132,o),
(255,-21,q)
);
}
);
userData = {
assembly = "PUSHB[ ]	/* 6 values pushed */
1 1 1 0 1 76
MPPEM[ ]	/* MeasurePixelPerEm */
PUSHB[ ]	/* 1 value pushed */
13
LT[ ]	/* LessThan */
IF[ ]	/* If */
NPUSHB[ ]	/* 37 values pushed */
0 3 2 0 2 3 114 0 0 1 2 0 1 126 0 1 5 2 1 5 126 0 2 2 4 97 0 4 4 28 77 0 5 5 27 5 78
ELSE[ ]	/* Else */
MPPEM[ ]	/* MeasurePixelPerEm */
PUSHB[ ]	/* 1 value pushed */
24
LT[ ]	/* LessThan */
IF[ ]	/* If */
NPUSHB[ ]	/* 38 values pushed */
0 3 2 0 2 3 0 128 0 0 1 2 0 1 126 0 1 5 2 1 5 126 0 2 2 4 97 0 4 4 28 77 0 5 5 27 5 78
ELSE[ ]	/* Else */
MPPEM[ ]	/* MeasurePixelPerEm */
PUSHB[ ]	/* 1 value pushed */
32
LT[ ]	/* LessThan */
IF[ ]	/* If */
NPUSHB[ ]	/* 37 values pushed */
0 3 2 0 2 3 0 128 0 0 1 2 0 1 126 0 1 5 2 1 5 126 0 5 5 132 0 2 2 4 97 0 4 4 28 2 78
ELSE[ ]	/* Else */
NPUSHB[ ]	/* 42 values pushed */
0 3 2 0 2 3 0 128 0 0 1 2 0 1 126 0 1 5 2 1 5 126 0 5 5 132 0 4 2 2 4 89 0 4 4 2 97 0 2 4 2 81
EIF[ ]	/* EndIf */
EIF[ ]	/* EndIf */
EIF[ ]	/* EndIf */
NPUSHB[ ]	/* 9 values pushed */
41 40 38 42 19 19 6 8 28
CALL[ ]	/* CallFunction */";
};
width = 600;
}
);
note = C;
unicode = 67;
},
{
glyphname = Ccedilla;
layers = (
{
.lastUpdate = 753955765.465;
layerId = m01;
shapes = (
{
closed = 1;
nodes = (
(223,-37,o),
(194,-37,qs),
(147,-37,o),
(103,9,q),
(50,84,o),
(50,199,qs),
(50,286,o),
(106,476,o),
(148,559,qs),
(168,599,o),
(267,688,o),
(386,748,o),
(437,748,qs),
(483,748,o),
(547,692,o),
(558,632,q),
(558,626,o),
(551,619,o),
(544,614,qs),
(534,608,o),
(527,601,q),
(500,568,o),
(486,568,qs),
(479,568,o),
(470,583,o),
(463,601,qs),
(454,625,o),
(437,654,o),
(421,662,q),
(406,665,o),
(393,665,qs),
(326,665,o),
(235,552,o),
(184,404,o),
(163,313,q),
(158,275,o),
(158,242,qs),
(158,173,o),
(204,71,o),
(255,54,qs),
(258,53,o),
(264,53,qs),
(326,53,o),
(436,222,q),
(447,243,o),
(463,243,qs),
(470,243,o),
(496,235,o),
(512,230,q),
(500,155,o),
(404,25,o),
(329,0,q),
(330,-1,o),
(333,-9,o),
(339,-25,qs),
(341,-32,o),
(361,-34,qs),
(379,-37,o),
(403,-48,o),
(422,-82,o),
(422,-115,qs),
(422,-162,o),
(370,-212,o),
(335,-212,qs),
(324,-212,o),
(313,-209,qs),
(301,-205,o),
(274,-168,o),
(274,-158,qs),
(274,-154,o),
(288,-154,o),
(298,-156,qs),
(316,-160,o),
(328,-160,qs),
(363,-160,o),
(363,-127,q),
(361,-111,ls),
(357,-90,o),
(327,-76,o),
(302,-73,qs),
(293,-72,o),
(276,-68,o),
(274,-63,qs),
(255,-21,l)
);
}
);
userData = {
assembly = "MPPEM[ ]	/* MeasurePixelPerEm */
PUSHB[ ]	/* 1 value pushed */
39
LT[ ]	/* LessThan */
IF[ ]	/* If */
NPUSHB[ ]	/* 14 values pushed */
34 1 4 3 83 1 8 4 7 1 0 8 3 76
ELSE[ ]	/* Else */
NPUSHB[ ]	/* 14 values pushed */
34 1 4 3 83 1 8 4 7 1 1 8 3 76
EIF[ ]	/* EndIf */
MPPEM[ ]	/* MeasurePixelPerEm */
PUSHB[ ]	/* 1 value pushed */
13
LT[ ]	/* LessThan */
IF[ ]	/* If */
NPUSHB[ ]	/* 45 values pushed */
0 6 5 3 5 6 114 0 3 4 5 3 4 126 0 4 8 5 4 8 126 1 1 0 0 2 0 2 101 0 5 5 7 97 0 7 7 28 77 0 8 8 27 8 78
ELSE[ ]	/* Else */
MPPEM[ ]	/* MeasurePixelPerEm */
PUSHB[ ]	/* 1 value pushed */
24
LT[ ]	/* LessThan */
IF[ ]	/* If */
NPUSHB[ ]	/* 46 values pushed */
0 6 5 3 5 6 3 128 0 3 4 5 3 4 126 0 4 8 5 4 8 126 1 1 0 0 2 0 2 101 0 5 5 7 97 0 7 7 28 77 0 8 8 27 8 78
ELSE[ ]	/* Else */
MPPEM[ ]	/* MeasurePixelPerEm */
PUSHB[ ]	/* 1 value pushed */
32
LT[ ]	/* LessThan */
IF[ ]	/* If */
NPUSHB[ ]	/* 48 values pushed */
0 6 5 3 5 6 3 128 0 3 4 5 3 4 126 0 4 8 5 4 8 126 0 8 0 5 8 0 126 1 1 0 0 2 0 2 101 0 5 5 7 97 0 7 7 28 5 78
ELSE[ ]	/* Else */
MPPEM[ ]	/* MeasurePixelPerEm */
PUSHB[ ]	/* 1 value pushed */
39
LT[ ]	/* LessThan */
IF[ ]	/* If */
NPUSHB[ ]	/* 55 values pushed */
0 6 5 3 5 6 3 128 0 3 4 5 3 4 126 0 4 8 5 4 8 126 0 8 0 5 8 0 126 0 7 0 5 6 7 5 105 1 1 0 2 2 0 89 1 1 0 0 2 97 0 2 0 2 81
ELSE[ ]	/* Else */
NPUSHB[ ]	/* 60 values pushed */
0 6 5 3 5 6 3 128 0 3 4 5 3 4 126 0 4 8 5 4 8 126 0 8 1 5 8 1 126 0 1 0 5 1 0 126 0 7 0 5 6 7 5 105 0 0 2 2 0 89 0 0 0 2 97 0 2 0 2 81
EIF[ ]	/* EndIf */
EIF[ ]	/* EndIf */
EIF[ ]	/* EndIf */
EIF[ ]	/* EndIf */
NPUSHB[ ]	/* 18 values pushed */
82 80 71 69 61 59 53 51 41 40 38 36 37 18 40 9 8 25
CALL[ ]	/* CallFunction */";
};
width = 600;
}
);
note = Ccedilla;
unicode = 199;
},
{
glyphname = D;
layers = (
{
.lastUpdate = 753955765.465;
layerId = m01;
shapes = (
{
closed = 1;
nodes = (
(153,-36,o),
(69,-49,o),
(49,-49,qs),
(41,-49,o),
(40,-48,q),
(44,214,o),
(50,368,qs),
(56,552,o),
(57,684,q),
(110,737,o),
(131,737,qs),
(137,737,o),
(140,734,q),
(157,701,l),
(223,781,o),
(303,781,qs),
(379,781,o),
(525,654,o),
(573,567,q),
(578,550,o),
(578,523,qs),
(578,432,o),
(435,213,o),
(237,22,o),
(157,-32,q)
);
},
{
closed = 1;
nodes = (
(236,154,o),
(379,297,o),
(427,394,q),
(460,441,o),
(460,484,qs),
(460,526,o),
(407,600,o),
(354,652,qs),
(337,669,l),
(300,693,o),
(273,693,qs),
(219,693,o),
(164,544,o),
(148,353,o),
(145,219,qs),
(143,126,o),
(140,101,q)
);
}
);
userData = {
assembly = "NPUSHB[ ]	/* 12 values pushed */
10 1 3 1 41 19 15 3 2 3 2 76
MPPEM[ ]	/* MeasurePixelPerEm */
PUSHB[ ]	/* 1 value pushed */
24
LT[ ]	/* LessThan */
IF[ ]	/* If */
NPUSHB[ ]	/* 21 values pushed */
0 2 3 2 134 0 1 1 28 77 0 3 3 0 97 0 0 0 26 3 78
ELSE[ ]	/* Else */
NPUSHB[ ]	/* 19 values pushed */
0 2 3 2 134 0 0 0 3 2 0 3 105 0 1 1 28 1 78
EIF[ ]	/* EndIf */
PUSHB[ ]	/* 7 values pushed */
39 23 20 39 4 8 26
CALL[ ]	/* CallFunction */";
};
width = 600;
}
);
note = D;
unicode = 68;
},
{
glyphname = Eth;
layers = (
{
.lastUpdate = 753955765.465;
layerId = m01;
shapes = (
{
closed = 1;
nodes = (
(153,-36,o),
(69,-49,o),
(49,-49,qs),
(41,-49,o),
(40,-48,q),
(42,174,o),
(48,337,qs),
(48,342,o),
(32,342,qs),
(10,341,ls),
(3,340,o),
(-10,340,qs),
(-25,340,o),
(-25,344,qs),
(-25,353,o),
(-22,374,o),
(-20,386,qs),
(-15,430,ls),
(-15,433,o),
(5,439,o),
(17,441,qs),
(30,443,o),
(52,449,o),
(52,453,qs),
(56,576,o),
(57,684,q),
(110,737,o),
(131,737,qs),
(137,737,o),
(140,734,q),
(157,701,l),
(223,781,o),
(303,781,qs),
(379,781,o),
(525,654,o),
(573,567,q),
(582,531,o),
(582,488,qs),
(582,381,o),
(478,149,o),
(284,-19,o),
(157,-32,q)
);
},
{
closed = 1;
nodes = (
(235,126,o),
(388,239,o),
(475,386,o),
(475,459,qs),
(475,521,o),
(407,630,o),
(337,669,q),
(300,693,o),
(272,693,qs),
(181,693,o),
(156,446,qs),
(156,441,o),
(179,439,o),
(202,439,qs),
(219,439,o),
(248,436,o),
(247,431,qs),
(240,389,l),
(232,346,ls),
(231,340,o),
(207,340,qs),
(170,341,ls),
(149,341,o),
(149,336,qs),
(146,228,ls),
(144,127,o),
(140,101,q)
);
}
);
userData = {
assembly = "NPUSHB[ ]	/* 22 values pushed */
10 1 6 1 17 15 2 5 6 51 27 2 2 5 68 44 36 3 3 2 4 76
MPPEM[ ]	/* MeasurePixelPerEm */
PUSHB[ ]	/* 1 value pushed */
24
LT[ ]	/* LessThan */
IF[ ]	/* If */
NPUSHB[ ]	/* 30 values pushed */
0 3 2 3 134 0 5 4 1 2 3 5 2 105 0 1 1 28 77 0 6 6 0 97 0 0 0 26 6 78
ELSE[ ]	/* Else */
NPUSHB[ ]	/* 28 values pushed */
0 3 2 3 134 0 0 0 6 5 0 6 105 0 5 4 1 2 3 5 2 105 0 1 1 28 1 78
EIF[ ]	/* EndIf */
NPUSHB[ ]	/* 10 values pushed */
35 37 39 21 79 20 39 7 8 29
CALL[ ]	/* CallFunction */";
};
width = 600;
}
);
note = Eth;
unicode = 208;
},
{
glyphname = E;
layers = (
{
.lastUpdate = 753955765.465;
layerId = m01;
shapes = (
{
closed = 1;
nodes = (
(254,-23,o),
(194,76,o),
(165,197,o),
(153,276,qs),
(145,322,l),
(76,284,o),
(50,284,qs),
(37,284,o),
(37,293,qs),
(37,307,o),
(88,355,o),
(127,374,q),
(127,445,o),
(121,533,o),
(110,568,q),
(99,568,o),
(85,560,o),
(75,551,qs),
(66,542,o),
(51,533,o),
(39,533,qs),
(16,531,ls),
(-10,531,o),
(-10,544,qs),
(-10,556,o),
(30,592,o),
(80,621,o),
(92,621,q),
(92,633,o),
(122,676,o),
(162,708,o),
(177,708,qs),
(197,708,o),
(197,674,q),
(227,684,o),
(282,712,o),
(329,740,qs),
(386,773,o),
(457,807,o),
(497,814,q),
(505,806,o),
(458,747,o),
(399,701,o),
(391,709,q),
(381,704,o),
(322,672,qs),
(250,632,o),
(215,621,q),
(215,555,o),
(221,475,o),
(232,427,q),
(264,444,o),
(314,482,qs),
(375,526,o),
(451,570,o),
(482,570,qs),
(487,570,o),
(497,568,q),
(489,536,o),
(403,474,o),
(323,429,qs),
(261,395,o),
(232,374,q),
(243,348,o),
(261,288,qs),
(283,217,o),
(323,126,o),
(356,93,q),
(364,111,o),
(367,121,q),
(393,183,o),
(420,269,o),
(420,310,qs),
(420,344,o),
(408,374,q),
(408,393,o),
(440,429,o),
(464,448,qs),
(479,462,ls),
(487,470,o),
(493,470,qs),
(511,470,o),
(532,427,q),
(538,400,o),
(538,369,qs),
(538,295,o),
(473,132,o),
(364,0,o),
(303,-30,q)
);
}
);
userData = {
assembly = "NPUSHB[ ]	/* 28 values pushed */
54 1 3 2 83 76 37 25 13 5 7 0 2 76 40 1 3 1 75 44 1 2 74 88 20 2 7 73
MPPEM[ ]	/* MeasurePixelPerEm */
PUSHB[ ]	/* 1 value pushed */
39
LT[ ]	/* LessThan */
IF[ ]	/* If */
NPUSHB[ ]	/* 37 values pushed */
0 2 3 2 133 0 3 1 3 133 0 1 6 1 133 0 6 4 6 133 5 1 4 0 4 133 0 7 0 7 134 0 0 0 29 0 78
ELSE[ ]	/* Else */
NPUSHB[ ]	/* 35 values pushed */
0 2 3 2 133 0 3 1 3 133 0 1 6 1 133 0 6 4 6 133 5 1 4 0 4 133 0 0 7 0 133 0 7 7 118
EIF[ ]	/* EndIf */
NPUSHB[ ]	/* 18 values pushed */
82 80 73 72 68 67 66 65 61 60 57 55 33 31 22 8 8 23
CALL[ ]	/* CallFunction */";
};
width = 600;
}
);
note = E;
unicode = 69;
},
{
glyphname = Eacute;
layers = (
{
.lastUpdate = 753955765.465;
layerId = m01;
shapes = (
{
closed = 1;
nodes = (
(95,-13,o),
(95,126,qs),
(95,164,o),
(105,255,o),
(110,293,qs),
(114,318,o),
(116,337,q),
(67,326,o),
(36,326,qs),
(4,326,o),
(4,338,qs),
(4,351,o),
(69,385,o),
(114,392,q),
(134,457,o),
(155,546,o),
(154,583,q),
(141,585,l),
(130,585,o),
(116,577,qs),
(102,568,o),
(89,568,q),
(76,570,ls),
(32,577,o),
(32,592,qs),
(32,607,o),
(115,640,o),
(142,640,qs),
(149,640,o),
(152,639,q),
(157,656,o),
(226,699,o),
(250,699,qs),
(271,699,o),
(271,678,qs),
(271,671,o),
(268,659,q),
(301,660,o),
(365,672,o),
(413,684,qs),
(463,696,o),
(529,708,o),
(562,708,qs),
(585,708,o),
(596,706,q),
(601,698,o),
(553,662,o),
(490,632,o),
(474,632,qs),
(465,632,o),
(464,636,q),
(387,621,ls),
(356,614,o),
(294,604,o),
(270,603,q),
(250,537,o),
(233,461,o),
(230,412,q),
(256,416,o),
(325,441,qs),
(386,461,o),
(453,480,o),
(482,480,qs),
(508,480,o),
(525,470,q),
(508,443,o),
(403,407,o),
(319,389,qs),
(240,371,o),
(215,362,q),
(218,334,o),
(218,272,qs),
(219,193,o),
(230,97,o),
(252,57,q),
(273,82,ls),
(327,149,o),
(384,244,o),
(384,296,qs),
(383,311,l),
(387,326,o),
(421,350,o),
(463,368,o),
(477,374,qs),
(485,378,o),
(488,378,qs),
(499,378,o),
(512,351,o),
(517,325,q),
(511,247,o),
(402,84,o),
(241,-32,o),
(165,-45,q)
);
},
{
closed = 1;
nodes = (
(365,837,o),
(336,806,o),
(314,763,o),
(314,748,qs),
(314,737,o),
(321,730,qs),
(325,726,o),
(331,726,qs),
(345,726,o),
(390,758,o),
(429,796,o),
(428,799,qs),
(425,806,o),
(384,839,o),
(375,837,q)
);
}
);
userData = {
assembly = "NPUSHB[ ]	/* 25 values pushed */
95 1 11 12 75 1 8 9 34 27 2 0 1 85 1 10 0 4 76 92 17 12 3 10 73
MPPEM[ ]	/* MeasurePixelPerEm */
PUSHB[ ]	/* 1 value pushed */
26
LT[ ]	/* LessThan */
IF[ ]	/* If */
NPUSHB[ ]	/* 69 values pushed */
0 12 11 12 133 6 1 4 11 5 11 4 5 128 0 3 7 2 7 3 2 128 0 8 9 1 9 8 1 128 0 0 1 10 1 0 10 128 0 10 10 132 0 5 0 2 9 5 2 105 0 7 0 9 8 7 9 105 0 11 11 28 77 0 1 1 29 1 78
ELSE[ ]	/* Else */
NPUSHB[ ]	/* 75 values pushed */
0 12 11 12 133 0 4 11 6 11 4 6 128 0 6 5 11 6 5 126 0 3 7 2 7 3 2 128 0 8 9 1 9 8 1 128 0 0 1 10 1 0 10 128 0 10 10 132 0 5 0 2 9 5 2 105 0 7 0 9 8 7 9 105 0 11 11 28 77 0 1 1 29 1 78
EIF[ ]	/* EndIf */
NPUSHB[ ]	/* 28 values pushed */
107 106 99 98 84 82 74 73 71 70 65 64 60 58 55 54 50 48 44 43 38 37 30 28 21 13 8 23
CALL[ ]	/* CallFunction */";
};
width = 600;
}
);
note = Eacute;
unicode = 201;
},
{
glyphname = Ecircumflex;
layers = (
{
.lastUpdate = 753955765.465;
layerId = m01;
shapes = (
{
closed = 1;
nodes = (
(100,-24,o),
(100,111,qs),
(100,147,o),
(110,236,o),
(115,273,qs),
(119,296,o),
(121,316,q),
(73,305,o),
(43,305,qs),
(12,305,o),
(12,317,qs),
(12,329,o),
(75,362,o),
(119,369,q),
(139,435,o),
(159,519,o),
(158,554,q),
(145,556,l),
(135,556,o),
(121,548,qs),
(105,540,o),
(95,540,q),
(82,542,ls),
(39,549,o),
(39,563,qs),
(39,577,o),
(120,609,o),
(146,609,qs),
(153,609,o),
(156,608,q),
(161,625,o),
(227,666,o),
(250,666,qs),
(271,666,o),
(271,646,qs),
(271,639,o),
(268,628,q),
(299,629,o),
(358,640,o),
(408,652,qs),
(465,665,o),
(521,675,o),
(552,675,qs),
(575,675,o),
(586,673,q),
(591,665,o),
(545,631,o),
(484,602,o),
(468,602,qs),
(459,602,o),
(458,606,q),
(430,601,o),
(388,592,qs),
(356,585,o),
(294,575,o),
(270,574,q),
(250,507,o),
(234,435,o),
(231,388,q),
(255,392,o),
(322,415,qs),
(372,433,o),
(446,454,o),
(476,454,qs),
(503,454,o),
(517,445,q),
(500,418,o),
(403,385,o),
(317,366,qs),
(238,347,o),
(217,340,q),
(218,320,o),
(219,277,o),
(220,255,qs),
(220,181,o),
(231,84,o),
(253,44,q),
(273,69,ls),
(328,136,o),
(385,237,o),
(380,290,q),
(384,305,o),
(417,328,o),
(458,345,o),
(471,351,q),
(476,355,o),
(482,355,qs),
(500,355,o),
(510,304,q),
(504,228,o),
(398,70,o),
(242,-43,o),
(168,-55,q)
);
},
{
closed = 1;
nodes = (
(146,720,o),
(179,757,o),
(205,782,qs),
(227,806,ls),
(249,832,o),
(280,864,o),
(287,864,q),
(291,863,ls),
(297,862,o),
(319,855,o),
(326,853,q),
(347,850,ls),
(401,842,o),
(464,820,o),
(490,788,qs),
(495,783,o),
(508,771,o),
(508,766,qs),
(508,765,l),
(501,750,ls),
(498,744,o),
(489,729,o),
(485,729,qs),
(484,729,l),
(295,800,l),
(293,800,l),
(292,800,l),
(205,709,l),
(200,701,o),
(168,701,qs),
(146,701,o),
(146,704,qs)
);
}
);
userData = {
assembly = "NPUSHB[ ]	/* 29 values pushed */
75 1 8 9 33 26 2 0 1 85 21 2 10 0 3 76 124 117 105 100 97 5 11 74 92 15 2 10 73
MPPEM[ ]	/* MeasurePixelPerEm */
PUSHB[ ]	/* 1 value pushed */
26
LT[ ]	/* LessThan */
IF[ ]	/* If */
NPUSHB[ ]	/* 69 values pushed */
0 11 4 11 133 6 1 4 5 4 133 0 3 7 2 7 3 2 128 0 8 9 1 9 8 1 128 0 1 0 9 1 0 126 0 0 10 9 0 10 126 0 10 10 132 0 7 3 9 7 89 0 5 0 2 9 5 2 105 0 7 7 9 97 0 9 7 9 81
ELSE[ ]	/* Else */
NPUSHB[ ]	/* 73 values pushed */
0 11 4 11 133 0 4 6 4 133 0 6 5 6 133 0 3 7 2 7 3 2 128 0 8 9 1 9 8 1 128 0 1 0 9 1 0 126 0 0 10 9 0 10 126 0 10 10 132 0 7 3 9 7 89 0 5 0 2 9 5 2 105 0 7 7 9 97 0 9 7 9 81
EIF[ ]	/* EndIf */
NPUSHB[ ]	/* 26 values pushed */
95 94 84 82 74 73 71 70 65 64 60 58 55 54 50 48 44 43 37 36 29 27 20 12 8 23
CALL[ ]	/* CallFunction */";
};
width = 600;
}
);
note = Ecircumflex;
unicode = 202;
},
{
glyphname = Edieresis;
layers = (
{
.lastUpdate = 753955765.465;
layerId = m01;
shapes = (
{
closed = 1;
nodes = (
(100,4,o),
(100,125,qs),
(100,157,o),
(109,236,o),
(114,269,qs),
(120,307,o),
(121,316,q),
(73,305,o),
(43,305,qs),
(12,305,o),
(12,317,qs),
(12,329,o),
(75,362,o),
(119,369,q),
(139,435,o),
(159,519,o),
(158,554,q),
(145,556,l),
(135,556,o),
(121,548,qs),
(105,540,o),
(95,540,q),
(82,542,ls),
(39,549,o),
(39,563,qs),
(39,577,o),
(120,609,o),
(146,609,qs),
(153,609,o),
(156,608,q),
(161,625,o),
(227,666,o),
(250,666,qs),
(271,666,o),
(271,646,qs),
(271,639,o),
(268,628,q),
(299,629,o),
(358,640,o),
(408,652,qs),
(465,665,o),
(521,675,o),
(552,675,qs),
(575,675,o),
(586,673,q),
(591,665,o),
(545,631,o),
(484,602,o),
(468,602,qs),
(459,602,o),
(458,606,q),
(430,601,o),
(388,592,qs),
(356,585,o),
(294,575,o),
(270,574,q),
(250,507,o),
(234,435,o),
(231,388,q),
(255,392,o),
(322,415,qs),
(372,433,o),
(446,454,o),
(476,454,qs),
(503,454,o),
(517,445,q),
(500,418,o),
(403,385,o),
(317,366,qs),
(238,347,o),
(217,340,q),
(218,331,o),
(218,314,qs),
(218,296,o),
(215,260,o),
(213,242,qs),
(208,204,o),
(208,172,qs),
(208,116,o),
(230,76,q),
(242,62,o),
(269,62,qs),
(293,62,o),
(342,86,o),
(372,131,o),
(369,162,q),
(373,177,o),
(406,200,o),
(447,217,o),
(460,223,q),
(465,227,o),
(471,227,qs),
(489,227,o),
(499,176,q),
(494,113,o),
(422,15,o),
(311,-39,o),
(248,-39,qs),
(207,-39,o),
(168,-27,q)
);
},
{
closed = 1;
nodes = (
(195,746,o),
(176,764,o),
(149,778,o),
(138,778,qs),
(119,778,o),
(94,745,o),
(94,725,qs),
(94,710,o),
(109,691,o),
(124,691,qs),
(134,691,o),
(144,694,qs),
(164,701,o),
(195,728,o),
(195,741,qs)
);
},
{
closed = 1;
nodes = (
(412,794,o),
(387,794,qs),
(367,794,o),
(338,773,o),
(338,757,qs),
(338,741,o),
(355,724,qs),
(366,713,o),
(385,713,qs),
(406,713,o),
(442,738,o),
(442,756,qs),
(442,759,o),
(437,773,o),
(434,778,q)
);
}
);
userData = {
assembly = "NPUSHB[ ]	/* 12 values pushed */
82 1 10 11 92 40 33 3 12 3 2 76
MPPEM[ ]	/* MeasurePixelPerEm */
PUSHB[ ]	/* 1 value pushed */
22
LT[ ]	/* LessThan */
IF[ ]	/* If */
NPUSHB[ ]	/* 95 values pushed */
0 16 14 16 133 0 14 15 14 133 0 13 15 6 15 13 6 128 8 1 6 7 15 6 7 126 0 5 9 4 9 5 4 128 0 10 11 3 11 10 3 128 0 3 12 11 3 12 126 0 12 1 11 12 1 126 0 1 2 11 1 2 126 0 7 0 4 11 7 4 105 0 9 0 11 10 9 11 105 0 15 15 28 77 0 2 2 0 98 0 0 0 27 0 78
ELSE[ ]	/* Else */
MPPEM[ ]	/* MeasurePixelPerEm */
PUSHB[ ]	/* 1 value pushed */
24
LT[ ]	/* LessThan */
IF[ ]	/* If */
NPUSHB[ ]	/* 92 values pushed */
0 16 14 16 133 0 14 15 14 133 0 13 15 6 15 13 6 128 8 1 6 7 15 6 7 126 0 5 9 4 9 5 4 128 0 10 11 3 11 10 3 128 0 3 12 11 3 12 126 0 12 1 11 12 1 126 0 1 2 11 1 2 126 0 7 0 4 11 7 4 105 0 9 0 11 10 9 11 105 0 2 0 0 2 0 102 0 15 15 28 15 78
ELSE[ ]	/* Else */
MPPEM[ ]	/* MeasurePixelPerEm */
PUSHB[ ]	/* 1 value pushed */
26
LT[ ]	/* LessThan */
IF[ ]	/* If */
NPUSHB[ ]	/* 95 values pushed */
0 16 14 16 133 0 14 15 14 133 0 15 13 15 133 0 13 6 13 133 8 1 6 7 6 133 0 5 9 4 9 5 4 128 0 10 11 3 11 10 3 128 0 3 12 11 3 12 126 0 12 1 11 12 1 126 0 1 2 11 1 2 126 0 7 0 4 11 7 4 105 0 9 0 11 10 9 11 105 0 2 0 0 2 89 0 2 2 0 98 0 0 2 0 82
ELSE[ ]	/* Else */
NPUSHB[ ]	/* 99 values pushed */
0 16 14 16 133 0 14 15 14 133 0 15 13 15 133 0 13 6 13 133 0 6 8 6 133 0 8 7 8 133 0 5 9 4 9 5 4 128 0 10 11 3 11 10 3 128 0 3 12 11 3 12 126 0 12 1 11 12 1 126 0 1 2 11 1 2 126 0 7 0 4 11 7 4 105 0 9 0 11 10 9 11 105 0 2 0 0 2 89 0 2 2 0 98 0 0 2 0 82
EIF[ ]	/* EndIf */
EIF[ ]	/* EndIf */
EIF[ ]	/* EndIf */
NPUSHB[ ]	/* 34 values pushed */
128 126 121 119 111 109 105 103 91 89 81 80 78 77 72 71 67 65 62 61 57 55 51 50 44 43 36 34 41 20 32 17 8 25
CALL[ ]	/* CallFunction */";
};
width = 600;
}
);
note = Edieresis;
unicode = 203;
},
{
glyphname = Egrave;
layers = (
{
.lastUpdate = 753955765.465;
layerId = m01;
shapes = (
{
closed = 1;
nodes = (
(254,-23,o),
(194,76,o),
(165,197,o),
(153,276,qs),
(145,322,l),
(76,284,o),
(50,284,qs),
(37,284,o),
(37,293,qs),
(37,307,o),
(88,355,o),
(127,374,q),
(127,445,o),
(121,533,o),
(110,568,q),
(99,568,o),
(85,560,o),
(75,551,qs),
(66,542,o),
(51,533,o),
(39,533,qs),
(16,531,ls),
(-10,531,o),
(-10,544,qs),
(-10,556,o),
(30,592,o),
(80,621,o),
(92,621,q),
(92,633,o),
(122,676,o),
(162,708,o),
(177,708,qs),
(197,708,o),
(197,674,q),
(227,684,o),
(282,712,o),
(329,740,qs),
(386,773,o),
(457,807,o),
(497,814,q),
(505,806,o),
(458,747,o),
(399,701,o),
(391,709,q),
(381,704,o),
(322,672,qs),
(250,632,o),
(215,621,q),
(215,555,o),
(221,475,o),
(232,427,q),
(264,444,o),
(314,482,qs),
(375,526,o),
(451,570,o),
(482,570,qs),
(487,570,o),
(497,568,q),
(489,536,o),
(403,474,o),
(323,429,qs),
(261,395,o),
(232,374,q),
(243,348,o),
(261,288,qs),
(283,217,o),
(323,126,o),
(356,93,q),
(364,111,o),
(367,121,q),
(393,183,o),
(420,269,o),
(420,310,qs),
(420,344,o),
(408,374,q),
(408,393,o),
(440,429,o),
(464,448,qs),
(479,462,ls),
(487,470,o),
(493,470,qs),
(511,470,o),
(532,427,q),
(538,400,o),
(538,369,qs),
(538,295,o),
(473,132,o),
(364,0,o),
(303,-30,q)
);
},
{
closed = 1;
nodes = (
(96,882,o),
(139,864,o),
(162,846,qs),
(175,836,o),
(194,822,o),
(194,816,qs),
(194,811,o),
(180,794,o),
(169,783,qs),
(161,775,o),
(141,755,o),
(133,752,q),
(132,752,ls),
(125,752,o),
(96,782,o),
(88,791,q),
(78,799,o),
(68,808,qs),
(50,824,o),
(39,831,qs),
(36,833,o),
(25,839,o),
(24,841,q),
(24,842,ls),
(24,845,o),
(38,857,o),
(42,860,qs),
(49,866,o),
(63,879,o),
(71,882,q)
);
}
);
userData = {
assembly = "NPUSHB[ ]	/* 28 values pushed */
44 1 2 8 54 1 3 2 83 76 37 25 13 5 7 0 3 76 40 1 3 1 75 88 20 2 7 73
MPPEM[ ]	/* MeasurePixelPerEm */
PUSHB[ ]	/* 1 value pushed */
39
LT[ ]	/* LessThan */
IF[ ]	/* If */
NPUSHB[ ]	/* 50 values pushed */
0 2 8 3 8 2 3 128 0 3 1 8 3 1 126 0 1 6 8 1 6 126 0 6 4 8 6 4 126 5 1 4 0 8 4 0 126 0 8 0 7 8 7 101 0 0 0 29 0 78
ELSE[ ]	/* Else */
NPUSHB[ ]	/* 60 values pushed */
0 2 8 3 8 2 3 128 0 3 1 8 3 1 126 0 1 6 8 1 6 126 0 6 4 8 6 4 126 5 1 4 0 8 4 0 126 0 0 7 8 0 7 126 0 8 2 7 8 89 0 8 8 7 97 0 7 8 7 81
EIF[ ]	/* EndIf */
NPUSHB[ ]	/* 20 values pushed */
118 117 82 80 73 72 68 67 66 65 61 60 57 55 33 31 22 9 8 23
CALL[ ]	/* CallFunction */";
};
width = 600;
}
);
note = Egrave;
unicode = 200;
},
{
glyphname = F;
layers = (
{
.lastUpdate = 753955765.465;
layerId = m01;
shapes = (
{
closed = 1;
nodes = (
(127,-60,o),
(127,-42,q),
(131,-11,l),
(131,386,l),
(83,360,o),
(55,360,qs),
(43,360,o),
(30,370,o),
(30,378,qs),
(30,392,o),
(65,430,o),
(99,450,q),
(105,450,o),
(111,439,o),
(117,433,o),
(131,433,q),
(131,672,l),
(109,672,o),
(76,657,o),
(49,642,qs),
(24,627,o),
(19,625,q),
(4,630,o),
(4,641,qs),
(4,652,o),
(30,681,o),
(62,704,o),
(68,704,q),
(77,712,o),
(99,719,qs),
(123,727,o),
(131,735,qs),
(144,749,o),
(182,779,o),
(195,779,qs),
(211,779,o),
(211,752,q),
(235,764,o),
(372,814,o),
(506,853,o),
(534,853,qs),
(550,853,o),
(550,846,qs),
(550,830,o),
(480,784,q),
(435,775,o),
(338,745,o),
(248,716,qs),
(211,704,l),
(222,652,o),
(227,549,o),
(227,481,q),
(235,481,o),
(306,515,o),
(348,536,qs),
(435,578,o),
(521,617,o),
(538,617,qs),
(548,617,o),
(545,609,qs),
(530,564,o),
(423,506,o),
(329,473,qs),
(259,449,o),
(227,433,q),
(229,349,ls),
(234,214,o),
(234,170,qs),
(234,90,o),
(227,68,q),
(227,21,o),
(183,-48,o),
(147,-60,q)
);
}
);
userData = {
assembly = "NPUSHB[ ]	/* 30 values pushed */
29 1 2 1 35 1 3 2 50 1 0 3 68 63 2 5 4 70 69 2 3 6 5 5 76 7 1 4 1 75
MPPEM[ ]	/* MeasurePixelPerEm */
PUSHB[ ]	/* 1 value pushed */
22
LT[ ]	/* LessThan */
IF[ ]	/* If */
NPUSHB[ ]	/* 41 values pushed */
0 1 2 1 133 0 3 2 0 2 3 0 128 0 0 4 2 0 4 126 0 5 4 6 4 5 6 128 0 4 0 6 4 6 101 0 2 2 26 2 78
ELSE[ ]	/* Else */
NPUSHB[ ]	/* 44 values pushed */
0 1 2 1 133 0 2 3 2 133 0 3 0 3 133 0 0 4 0 133 0 5 4 6 4 5 6 128 0 4 5 6 4 89 0 4 4 6 97 0 6 4 6 81
EIF[ ]	/* EndIf */
NPUSHB[ ]	/* 16 values pushed */
72 71 67 65 57 56 55 54 38 36 32 31 45 7 8 23
CALL[ ]	/* CallFunction */";
};
width = 600;
}
);
note = F;
unicode = 70;
},
{
glyphname = G;
layers = (
{
.lastUpdate = 753955765.465;
layerId = m01;
shapes = (
{
closed = 1;
nodes = (
(443,-234,o),
(434,-234,qs),
(425,-234,o),
(425,-225,q),
(429,-191,o),
(441,-113,qs),
(454,-22,o),
(466,87,o),
(466,148,q),
(418,100,o),
(291,49,o),
(225,49,qs),
(134,49,o),
(66,95,q),
(5,156,o),
(5,267,qs),
(5,329,o),
(40,463,o),
(66,521,q),
(96,569,o),
(191,680,o),
(302,760,o),
(350,760,qs),
(404,760,o),
(439,707,q),
(427,684,o),
(381,644,o),
(372,654,qs),
(351,675,o),
(319,697,o),
(300,697,qs),
(290,697,o),
(279,693,qs),
(184,654,o),
(86,453,o),
(86,336,qs),
(86,300,o),
(93,254,qs),
(100,183,o),
(216,113,o),
(294,113,qs),
(336,113,o),
(372,122,q),
(460,155,o),
(460,201,qs),
(460,244,o),
(337,330,o),
(266,361,q),
(186,361,o),
(186,387,q),
(219,441,o),
(266,441,qs),
(300,441,o),
(346,414,q),
(396,402,o),
(465,379,o),
(492,361,q),
(556,297,o),
(556,176,qs),
(556,136,o),
(546,59,o),
(535,-6,qs),
(523,-74,o),
(519,-118,q),
(519,-161,o),
(489,-215,o),
(452,-225,q)
);
}
);
userData = {
assembly = "NPUSHB[ ]	/* 66 values pushed */
41 1 3 4 16 1 1 0 57 1 2 1 62 2 2 6 5 4 76 0 6 5 6 134 0 4 0 3 0 4 3 105 0 0 0 1 2 0 1 105 0 2 5 5 2 89 0 2 2 5 97 0 5 2 5 81 40 41 38 40 38 18 45 7 8 29
CALL[ ]	/* CallFunction */";
};
width = 600;
}
);
note = G;
unicode = 71;
},
{
glyphname = H;
layers = (
{
.lastUpdate = 753955765.465;
layerId = m01;
shapes = (
{
closed = 1;
nodes = (
(101,-63,o),
(83,-63,qs),
(58,-63,o),
(40,10,o),
(40,65,qs),
(41,125,ls),
(41,561,o),
(58,628,q),
(58,641,o),
(100,682,o),
(125,695,q),
(143,621,o),
(143,514,qs),
(142,408,ls),
(142,323,o),
(158,276,q),
(229,297,ls),
(285,312,o),
(326,326,q),
(326,367,o),
(316,481,qs),
(304,609,o),
(304,676,qs),
(304,717,o),
(309,762,q),
(309,769,o),
(336,795,o),
(371,815,o),
(383,815,qs),
(390,815,o),
(393,812,q),
(393,581,o),
(443,326,q),
(578,326,o),
(578,292,q),
(567,260,o),
(560,245,o),
(540,240,o),
(507,239,qs),
(460,237,l),
(465,208,o),
(474,150,o),
(474,128,qs),
(474,88,o),
(445,28,o),
(410,7,qs),
(385,-10,o),
(367,-10,qs),
(353,-10,o),
(335,15,o),
(326,41,q),
(350,64,o),
(350,133,qs),
(350,157,o),
(345,209,qs),
(343,237,l),
(283,237,o),
(191,228,qs),
(162,225,l),
(162,184,o),
(180,102,o),
(192,74,q),
(192,41,o),
(158,-10,o),
(125,-43,q)
);
}
);
userData = {
assembly = "NPUSHB[ ]	/* 24 values pushed */
56 53 33 3 3 4 48 29 2 0 3 13 5 2 3 1 0 3 76 45 1 3 1 75
MPPEM[ ]	/* MeasurePixelPerEm */
PUSHB[ ]	/* 1 value pushed */
34
LT[ ]	/* LessThan */
IF[ ]	/* If */
NPUSHB[ ]	/* 25 values pushed */
0 5 1 5 134 0 3 2 1 0 1 3 0 105 0 4 4 26 77 0 1 1 27 1 78
ELSE[ ]	/* Else */
NPUSHB[ ]	/* 25 values pushed */
0 4 3 4 133 0 5 1 5 134 0 3 2 1 0 1 3 0 105 0 1 1 27 1 78
EIF[ ]	/* EndIf */
NPUSHB[ ]	/* 10 values pushed */
63 61 20 20 39 39 23 6 8 27
CALL[ ]	/* CallFunction */";
};
width = 600;
}
);
note = H;
unicode = 72;
},
{
glyphname = I;
layers = (
{
.lastUpdate = 753955765.465;
layerId = m01;
shapes = (
{
closed = 1;
nodes = (
(263,-10,o),
(257,-10,qs),
(237,-10,o),
(224,68,o),
(224,156,qs),
(224,223,o),
(225,263,qs),
(226,432,ls),
(226,569,o),
(223,647,qs),
(223,657,o),
(248,689,o),
(281,714,o),
(292,714,qs),
(299,714,o),
(301,709,qs),
(313,686,o),
(313,670,qs),
(313,659,o),
(308,644,qs),
(299,615,o),
(299,590,qs),
(299,570,o),
(301,557,qs),
(325,326,l),
(338,197,ls),
(339,190,o),
(347,146,qs),
(355,104,o),
(355,87,qs),
(355,56,o),
(318,11,o),
(270,-7,qs)
);
}
);
userData = {
assembly = "MPPEM[ ]	/* MeasurePixelPerEm */
PUSHB[ ]	/* 1 value pushed */
26
LT[ ]	/* LessThan */
IF[ ]	/* If */
NPUSHB[ ]	/* 11 values pushed */
0 0 0 28 77 0 1 1 27 1 78
ELSE[ ]	/* Else */
NPUSHB[ ]	/* 11 values pushed */
0 0 1 0 133 0 1 1 27 1 78
EIF[ ]	/* EndIf */
PUSHB[ ]	/* 7 values pushed */
30 29 19 18 2 8 22
CALL[ ]	/* CallFunction */";
};
width = 600;
}
);
note = I;
unicode = 73;
},
{
glyphname = Iacute;
layers = (
{
.lastUpdate = 753955765.465;
layerId = m01;
shapes = (
{
closed = 1;
nodes = (
(263,-10,o),
(257,-10,qs),
(237,-10,o),
(224,68,o),
(224,156,qs),
(224,223,o),
(225,263,qs),
(226,432,ls),
(226,569,o),
(223,647,qs),
(223,657,o),
(248,689,o),
(281,714,o),
(292,714,qs),
(299,714,o),
(301,709,qs),
(313,686,o),
(313,670,qs),
(313,659,o),
(308,644,qs),
(299,615,o),
(299,590,qs),
(299,570,o),
(301,557,qs),
(325,326,l),
(338,197,ls),
(339,190,o),
(347,146,qs),
(355,104,o),
(355,87,qs),
(355,56,o),
(318,11,o),
(270,-7,qs)
);
},
{
closed = 1;
nodes = (
(445,757,o),
(400,715,o),
(370,663,o),
(370,642,qs),
(370,621,o),
(391,607,qs),
(392,606,o),
(394,606,qs),
(400,606,o),
(426,623,o),
(434,627,q),
(465,638,ls),
(514,653,o),
(538,669,qs),
(542,672,o),
(542,677,qs),
(542,689,o),
(513,736,o),
(477,768,o),
(465,764,qs)
);
}
);
userData = {
assembly = "PUSHB[ ]	/* 6 values pushed */
36 1 1 0 1 76
MPPEM[ ]	/* MeasurePixelPerEm */
PUSHB[ ]	/* 1 value pushed */
26
LT[ ]	/* LessThan */
IF[ ]	/* If */
NPUSHB[ ]	/* 11 values pushed */
0 0 0 28 77 0 1 1 27 1 78
ELSE[ ]	/* Else */
NPUSHB[ ]	/* 11 values pushed */
0 0 1 0 133 0 1 1 27 1 78
EIF[ ]	/* EndIf */
PUSHB[ ]	/* 7 values pushed */
30 29 19 18 2 8 22
CALL[ ]	/* CallFunction */";
};
width = 600;
}
);
note = Iacute;
unicode = 205;
},
{
glyphname = Icircumflex;
layers = (
{
.lastUpdate = 753955765.465;
layerId = m01;
shapes = (
{
closed = 1;
nodes = (
(260,-12,o),
(254,-12,qs),
(240,-12,o),
(230,28,o),
(230,72,qs),
(230,115,o),
(233,178,qs),
(238,341,o),
(238,422,qs),
(238,496,o),
(235,583,qs),
(235,593,o),
(260,625,o),
(293,650,o),
(304,650,qs),
(311,650,o),
(313,645,qs),
(325,622,o),
(325,606,qs),
(325,595,o),
(320,580,qs),
(311,551,o),
(311,526,qs),
(311,506,o),
(313,493,qs),
(325,379,o),
(328,314,qs),
(332,257,o),
(338,197,qs),
(339,190,o),
(347,146,qs),
(355,104,o),
(355,87,qs),
(355,56,o),
(318,11,o),
(270,-7,q)
);
},
{
closed = 1;
nodes = (
(117,702,o),
(204,767,o),
(286,817,o),
(298,814,qs),
(317,811,o),
(401,756,o),
(469,692,o),
(469,675,qs),
(469,671,o),
(465,667,q),
(446,656,o),
(432,656,qs),
(421,656,o),
(405,668,o),
(391,683,qs),
(371,703,o),
(357,715,qs),
(337,731,o),
(291,750,o),
(286,750,q),
(256,742,o),
(210,710,o),
(184,686,qs),
(174,677,o),
(156,663,o),
(151,663,q),
(150,664,l),
(139,665,o),
(114,681,o),
(106,691,q)
);
}
);
userData = {
assembly = "NPUSHB[ ]	/* 31 values pushed */
57 45 38 3 2 74 0 2 0 2 133 0 0 1 0 133 0 1 1 27 1 78 54 52 33 32 21 20 3 8 22
CALL[ ]	/* CallFunction */";
};
width = 600;
}
);
note = Icircumflex;
unicode = 206;
},
{
glyphname = Idieresis;
layers = (
{
.lastUpdate = 753955765.465;
layerId = m01;
shapes = (
{
closed = 1;
nodes = (
(260,-12,o),
(254,-12,qs),
(241,-12,o),
(231,21,o),
(231,58,qs),
(231,77,o),
(235,159,qs),
(242,315,o),
(242,423,qs),
(242,492,o),
(239,573,qs),
(239,583,o),
(264,615,o),
(297,640,o),
(308,640,qs),
(315,640,o),
(317,635,qs),
(329,612,o),
(329,596,qs),
(329,585,o),
(324,570,qs),
(315,541,o),
(315,516,qs),
(315,496,o),
(317,483,qs),
(328,374,o),
(330,311,qs),
(332,254,o),
(338,197,qs),
(339,190,o),
(347,146,qs),
(355,104,o),
(355,87,qs),
(355,56,o),
(318,11,o),
(270,-7,q)
);
},
{
closed = 1;
nodes = (
(226,727,o),
(200,751,o),
(176,751,qs),
(156,751,o),
(125,723,o),
(125,702,qs),
(125,689,o),
(132,676,qs),
(135,669,o),
(156,662,o),
(169,662,qs),
(192,662,o),
(226,684,o),
(226,707,qs)
);
},
{
closed = 1;
nodes = (
(462,736,o),
(422,756,o),
(396,756,qs),
(375,756,o),
(354,724,o),
(354,702,qs),
(354,680,o),
(364,667,qs),
(374,654,o),
(405,654,qs),
(418,654,o),
(441,661,o),
(447,666,qs),
(464,682,o),
(464,720,q)
);
}
);
userData = {
assembly = "PUSHB[ ]	/* 6 values pushed */
64 1 2 3 1 76
MPPEM[ ]	/* MeasurePixelPerEm */
PUSHB[ ]	/* 1 value pushed */
30
LT[ ]	/* LessThan */
IF[ ]	/* If */
NPUSHB[ ]	/* 23 values pushed */
5 1 3 2 3 133 4 1 2 0 2 133 0 0 1 0 133 0 1 1 27 1 78
ELSE[ ]	/* Else */
MPPEM[ ]	/* MeasurePixelPerEm */
PUSHB[ ]	/* 1 value pushed */
45
LT[ ]	/* LessThan */
IF[ ]	/* If */
NPUSHB[ ]	/* 27 values pushed */
5 1 3 2 3 133 0 2 4 2 133 0 4 0 4 133 0 0 1 0 133 0 1 1 27 1 78
ELSE[ ]	/* Else */
NPUSHB[ ]	/* 31 values pushed */
0 5 3 5 133 0 3 2 3 133 0 2 4 2 133 0 4 0 4 133 0 0 1 0 133 0 1 1 27 1 78
EIF[ ]	/* EndIf */
EIF[ ]	/* EndIf */
NPUSHB[ ]	/* 15 values pushed */
62 60 55 53 47 45 39 37 33 32 21 20 6 8 22
CALL[ ]	/* CallFunction */";
};
width = 600;
}
);
note = Idieresis;
unicode = 207;
},
{
glyphname = Igrave;
layers = (
{
.lastUpdate = 753955765.465;
layerId = m01;
shapes = (
{
closed = 1;
nodes = (
(263,-10,o),
(257,-10,qs),
(237,-10,o),
(224,68,o),
(224,156,qs),
(224,223,o),
(225,263,qs),
(226,432,ls),
(226,569,o),
(223,647,qs),
(223,657,o),
(248,689,o),
(281,714,o),
(292,714,qs),
(299,714,o),
(301,709,qs),
(313,686,o),
(313,670,qs),
(313,659,o),
(308,644,qs),
(299,615,o),
(299,590,qs),
(299,570,o),
(301,557,qs),
(325,326,l),
(338,197,ls),
(339,190,o),
(347,146,qs),
(355,104,o),
(355,87,qs),
(355,56,o),
(318,11,o),
(270,-7,qs)
);
},
{
closed = 1;
nodes = (
(156,866,o),
(181,852,qs),
(208,837,o),
(212,835,qs),
(234,823,o),
(260,806,o),
(261,794,qs),
(262,786,o),
(238,773,o),
(210,761,q),
(194,749,l),
(182,752,o),
(157,767,o),
(146,775,qs),
(118,792,ls),
(103,800,o),
(71,808,q),
(68,808,o),
(68,809,qs),
(67,812,o),
(82,831,o),
(86,836,qs),
(91,844,o),
(104,865,o),
(119,879,o),
(127,879,qs),
(130,879,l)
);
}
);
userData = {
assembly = "PUSHB[ ]	/* 6 values pushed */
48 1 0 2 1 76
MPPEM[ ]	/* MeasurePixelPerEm */
PUSHB[ ]	/* 1 value pushed */
26
LT[ ]	/* LessThan */
IF[ ]	/* If */
NPUSHB[ ]	/* 17 values pushed */
3 1 2 0 2 133 0 0 0 28 77 0 1 1 27 1 78
ELSE[ ]	/* Else */
NPUSHB[ ]	/* 17 values pushed */
3 1 2 0 2 133 0 0 1 0 133 0 1 1 27 1 78
EIF[ ]	/* EndIf */
NPUSHB[ ]	/* 13 values pushed */
34 33 33 59 34 59 30 29 19 18 4 8 22
CALL[ ]	/* CallFunction */";
};
width = 600;
}
);
note = Igrave;
unicode = 204;
},
{
glyphname = J;
layers = (
{
.lastUpdate = 753955765.465;
layerId = m01;
shapes = (
{
closed = 1;
nodes = (
(413,62,o),
(304,-21,o),
(244,-21,qs),
(200,-21,o),
(165,3,q),
(136,18,o),
(62,89,o),
(65,107,q),
(71,121,o),
(125,174,o),
(140,174,qs),
(145,174,o),
(148,170,qs),
(181,133,o),
(276,87,o),
(316,87,q),
(332,144,o),
(332,219,qs),
(332,260,o),
(321,363,o),
(315,412,qs),
(306,478,o),
(297,570,o),
(297,615,qs),
(297,653,o),
(299,672,q),
(283,672,o),
(249,676,qs),
(215,680,o),
(196,680,qs),
(168,680,o),
(145,672,q),
(131,665,o),
(107,656,o),
(103,655,q),
(79,668,o),
(79,685,qs),
(79,700,o),
(110,730,o),
(153,750,o),
(168,750,qs),
(210,748,o),
(279,748,qs),
(377,748,o),
(482,760,o),
(518,769,qs),
(525,770,o),
(536,773,o),
(541,773,qs),
(547,773,o),
(550,772,q),
(558,752,o),
(558,733,qs),
(558,711,o),
(523,687,o),
(450,676,o),
(382,672,q),
(386,631,o),
(404,533,o),
(414,487,qs),
(431,410,o),
(449,299,o),
(449,244,qs),
(449,180,o),
(433,120,q)
);
}
);
userData = {
assembly = "NPUSHB[ ]	/* 10 values pushed */
29 1 5 0 1 76 15 1 1 74
MPPEM[ ]	/* MeasurePixelPerEm */
PUSHB[ ]	/* 1 value pushed */
30
LT[ ]	/* LessThan */
IF[ ]	/* If */
NPUSHB[ ]	/* 31 values pushed */
0 5 0 4 0 5 4 128 3 2 2 0 0 1 95 0 1 1 28 77 0 4 4 6 97 0 6 6 27 6 78
ELSE[ ]	/* Else */
MPPEM[ ]	/* MeasurePixelPerEm */
PUSHB[ ]	/* 1 value pushed */
39
LT[ ]	/* LessThan */
IF[ ]	/* If */
NPUSHB[ ]	/* 29 values pushed */
0 5 0 4 0 5 4 128 0 1 3 2 2 0 5 1 0 105 0 4 4 6 97 0 6 6 27 6 78
ELSE[ ]	/* Else */
NPUSHB[ ]	/* 34 values pushed */
3 1 0 2 5 2 0 114 0 5 4 2 5 4 126 0 1 0 2 0 1 2 105 0 4 4 6 97 0 6 6 27 6 78
EIF[ ]	/* EndIf */
EIF[ ]	/* EndIf */
NPUSHB[ ]	/* 10 values pushed */
38 20 26 18 41 76 23 7 8 29
CALL[ ]	/* CallFunction */";
};
width = 600;
}
);
note = J;
unicode = 74;
},
{
glyphname = K;
layers = (
{
.lastUpdate = 753955765.465;
layerId = m01;
shapes = (
{
closed = 1;
nodes = (
(113,-39,o),
(70,263,o),
(34,635,o),
(34,681,qs),
(34,689,o),
(68,734,o),
(109,772,o),
(119,772,qs),
(126,772,o),
(126,764,qs),
(140,611,o),
(157,479,qs),
(169,379,o),
(176,313,q),
(187,343,ls),
(226,457,o),
(323,671,o),
(384,728,qs),
(402,745,o),
(440,755,o),
(474,757,qs),
(503,759,l),
(456,734,o),
(377,621,o),
(325,507,o),
(295,429,qs),
(281,393,l),
(318,424,o),
(377,455,o),
(401,455,qs),
(432,455,o),
(482,403,o),
(503,347,qs),
(507,333,o),
(527,283,qs),
(551,227,o),
(577,142,o),
(577,105,qs),
(577,36,o),
(520,3,q),
(504,-9,o),
(490,-9,qs),
(462,-9,o),
(434,76,o),
(418,168,qs),
(408,229,o),
(390,309,o),
(377,338,qs),
(367,358,o),
(348,358,qs),
(327,358,o),
(275,320,o),
(237,285,qs),
(206,255,o),
(188,244,q),
(198,169,ls),
(206,113,o),
(210,88,q),
(210,50,o),
(163,-18,o),
(126,-31,q)
);
}
);
userData = {
assembly = "NPUSHB[ ]	/* 12 values pushed */
33 1 0 2 46 5 2 3 1 0 2 76
MPPEM[ ]	/* MeasurePixelPerEm */
PUSHB[ ]	/* 1 value pushed */
9
LT[ ]	/* LessThan */
IF[ ]	/* If */
NPUSHB[ ]	/* 26 values pushed */
0 4 3 4 133 0 3 2 3 133 0 2 0 2 133 0 0 1 0 133 0 1 1 30 1 78
ELSE[ ]	/* Else */
MPPEM[ ]	/* MeasurePixelPerEm */
PUSHB[ ]	/* 1 value pushed */
20
LT[ ]	/* LessThan */
IF[ ]	/* If */
NPUSHB[ ]	/* 31 values pushed */
0 4 3 4 133 0 2 3 0 3 2 0 128 0 0 1 3 0 1 126 0 3 3 28 77 0 1 1 30 1 78
ELSE[ ]	/* Else */
NPUSHB[ ]	/* 26 values pushed */
0 4 3 4 133 0 3 2 3 133 0 2 0 2 133 0 0 1 0 133 0 1 1 30 1 78
EIF[ ]	/* EndIf */
EIF[ ]	/* EndIf */
PUSHB[ ]	/* 8 values pushed */
28 39 42 38 41 5 8 27
CALL[ ]	/* CallFunction */";
};
width = 600;
}
);
note = K;
unicode = 75;
},
{
glyphname = L;
layers = (
{
.lastUpdate = 753955765.465;
layerId = m01;
shapes = (
{
closed = 1;
nodes = (
(231,11,o),
(205,11,qs),
(181,11,o),
(165,43,o),
(165,77,qs),
(166,129,l),
(160,238,o),
(146,438,qs),
(133,613,o),
(133,642,qs),
(133,685,o),
(144,724,o),
(167,735,qs),
(207,754,o),
(223,754,qs),
(238,754,o),
(249,727,o),
(249,697,qs),
(249,598,o),
(257,390,qs),
(265,180,o),
(265,79,q),
(270,77,o),
(300,85,o),
(322,92,qs),
(366,107,o),
(402,118,qs),
(471,139,o),
(503,139,qs),
(538,139,o),
(538,117,qs),
(538,94,o),
(497,46,q),
(470,53,o),
(435,53,qs),
(380,53,o),
(282,30,q)
);
}
);
userData = {
assembly = "NPUSHB[ ]	/* 10 values pushed */
28 1 1 2 3 1 3 0 2 76
MPPEM[ ]	/* MeasurePixelPerEm */
PUSHB[ ]	/* 1 value pushed */
24
LT[ ]	/* LessThan */
IF[ ]	/* If */
NPUSHB[ ]	/* 26 values pushed */
0 1 2 0 2 1 0 128 0 0 3 2 0 3 126 0 2 2 28 77 0 3 3 30 3 78
ELSE[ ]	/* Else */
MPPEM[ ]	/* MeasurePixelPerEm */
PUSHB[ ]	/* 1 value pushed */
34
LT[ ]	/* LessThan */
IF[ ]	/* If */
NPUSHB[ ]	/* 21 values pushed */
0 2 1 2 133 0 1 0 1 133 0 0 3 0 133 0 3 3 30 3 78
ELSE[ ]	/* Else */
NPUSHB[ ]	/* 19 values pushed */
0 2 1 2 133 0 1 0 1 133 0 0 3 0 133 0 3 3 118
EIF[ ]	/* EndIf */
EIF[ ]	/* EndIf */
PUSHB[ ]	/* 7 values pushed */
43 44 36 32 4 8 26
CALL[ ]	/* CallFunction */";
};
width = 600;
}
);
note = L;
unicode = 76;
},
{
glyphname = M;
layers = (
{
.lastUpdate = 753955765.465;
layerId = m01;
shapes = (
{
closed = 1;
nodes = (
(586,108,o),
(526,59,o),
(512,59,qs),
(503,59,o),
(504,72,q),
(474,575,l),
(428,485,o),
(343,339,o),
(304,300,q),
(298,291,o),
(270,291,qs),
(258,291,o),
(240,293,o),
(237,294,q),
(232,299,o),
(209,359,o),
(196,394,qs),
(179,440,o),
(144,530,o),
(133,546,q),
(120,493,o),
(107,384,o),
(101,311,qs),
(98,281,o),
(93,220,o),
(89,190,q),
(79,159,o),
(38,129,o),
(0,116,q),
(0,152,o),
(8,424,o),
(11,545,qs),
(15,679,l),
(28,692,o),
(89,719,o),
(89,709,qs),
(89,575,l),
(103,603,o),
(131,640,o),
(151,650,q),
(157,654,o),
(194,655,o),
(201,655,qs),
(221,655,o),
(269,541,o),
(296,457,qs),
(311,413,l),
(362,483,o),
(439,608,o),
(474,680,q),
(479,688,o),
(522,703,o),
(540,703,qs),
(563,703,o),
(563,689,qs),
(565,621,o),
(582,477,o),
(596,378,qs),
(604,319,o),
(617,211,o),
(617,181,qs),
(617,141,o),
(607,131,qs)
);
}
);
userData = {
assembly = "NPUSHB[ ]	/* 58 values pushed */
29 1 1 0 56 42 25 15 4 2 1 57 33 2 3 2 3 76 0 1 0 2 0 1 2 128 0 2 3 0 2 3 126 0 0 1 3 0 89 0 0 0 3 97 0 3 0 3 81 60 58 52 50 56 40 4 8 24
CALL[ ]	/* CallFunction */";
};
width = 600;
}
);
note = M;
unicode = 77;
},
{
glyphname = N;
layers = (
{
.lastUpdate = 753955765.465;
layerId = m01;
shapes = (
{
closed = 1;
nodes = (
(207,118,o),
(176,74,o),
(138,42,o),
(128,42,qs),
(123,42,o),
(121,48,q),
(118,83,o),
(100,161,o),
(84,218,qs),
(64,286,o),
(44,381,o),
(44,424,qs),
(44,476,o),
(57,523,o),
(74,536,o),
(103,551,qs),
(129,565,o),
(129,461,q),
(152,490,o),
(181,490,qs),
(223,490,o),
(316,389,o),
(384,293,qs),
(438,219,o),
(456,197,q),
(421,306,o),
(384,484,o),
(384,576,qs),
(385,609,ls),
(389,660,o),
(443,704,o),
(501,715,q),
(478,630,o),
(478,554,qs),
(478,503,o),
(496,419,o),
(515,350,qs),
(542,262,o),
(552,205,q),
(555,195,o),
(555,184,qs),
(555,159,o),
(524,116,o),
(477,91,o),
(455,91,qs),
(433,91,o),
(420,104,q),
(389,126,o),
(341,189,o),
(305,245,qs),
(261,316,o),
(189,401,o),
(138,426,q),
(137,398,o),
(156,325,o),
(176,263,qs),
(192,216,o),
(208,155,o),
(207,135,qs)
);
}
);
userData = {
assembly = "NPUSHB[ ]	/* 39 values pushed */
40 33 5 3 0 1 1 76 29 26 2 1 74 0 0 1 2 1 0 2 128 0 2 2 132 0 1 1 29 1 78 55 54 39 37 44 3 8 23
CALL[ ]	/* CallFunction */";
};
width = 600;
}
);
note = N;
unicode = 78;
},
{
glyphname = Ntilde;
layers = (
{
.lastUpdate = 753955765.465;
layerId = m01;
shapes = (
{
closed = 1;
nodes = (
(104,119,o),
(73,75,o),
(32,42,o),
(21,42,qs),
(16,42,o),
(14,48,q),
(4,127,o),
(-1,298,o),
(-1,422,qs),
(-1,456,o),
(15,489,o),
(8,485,o),
(59,512,qs),
(67,516,o),
(74,516,qs),
(84,516,o),
(89,498,o),
(89,481,q),
(110,508,o),
(139,508,qs),
(184,508,o),
(290,399,o),
(368,297,qs),
(429,216,o),
(463,181,q),
(473,282,o),
(478,471,o),
(478,616,qs),
(478,653,o),
(515,740,o),
(577,803,o),
(613,810,q),
(601,742,o),
(590,586,o),
(585,465,qs),
(577,276,o),
(568,189,q),
(568,161,o),
(528,101,o),
(461,60,o),
(423,60,qs),
(413,61,o),
(403,62,q),
(354,92,o),
(271,186,o),
(212,265,qs),
(175,315,o),
(124,379,o),
(97,406,q),
(97,358,o),
(101,252,qs),
(104,136,ls)
);
},
{
closed = 1;
nodes = (
(55,631,o),
(26,616,o),
(4,600,o),
(-1,600,q),
(-5,605,o),
(-5,614,qs),
(-5,635,o),
(44,680,o),
(81,686,qs),
(217,715,o),
(303,749,qs),
(329,758,o),
(355,765,o),
(373,765,q),
(381,718,o),
(247,667,o),
(139,648,qs),
(84,637,ls)
);
}
);
userData = {
assembly = "NPUSHB[ ]	/* 13 values pushed */
33 26 14 2 4 0 1 1 76 19 1 4 74
MPPEM[ ]	/* MeasurePixelPerEm */
PUSHB[ ]	/* 1 value pushed */
30
LT[ ]	/* LessThan */
IF[ ]	/* If */
NPUSHB[ ]	/* 20 values pushed */
0 4 1 4 133 2 1 1 0 1 133 0 0 3 0 133 0 3 3 118
ELSE[ ]	/* Else */
NPUSHB[ ]	/* 24 values pushed */
0 4 2 4 133 0 2 1 2 133 0 1 0 1 133 0 0 3 0 133 0 3 3 118
EIF[ ]	/* EndIf */
NPUSHB[ ]	/* 12 values pushed */
56 55 48 47 36 35 32 30 26 5 8 23
CALL[ ]	/* CallFunction */";
};
width = 600;
}
);
note = Ntilde;
unicode = 209;
},
{
glyphname = O;
layers = (
{
.lastUpdate = 753955765.465;
layerId = m01;
shapes = (
{
closed = 1;
nodes = (
(221,30,o),
(168,30,qs),
(85,30,o),
(5,140,o),
(5,230,qs),
(5,305,o),
(57,471,o),
(148,611,o),
(203,648,q),
(243,682,o),
(337,717,o),
(387,717,qs),
(445,717,o),
(555,671,o),
(597,629,qs),
(618,610,o),
(651,558,o),
(651,536,qs),
(651,521,o),
(641,511,qs),
(602,473,o),
(588,473,qs),
(581,473,o),
(572,484,o),
(563,500,qs),
(552,522,o),
(538,541,q),
(446,646,o),
(350,646,qs),
(282,646,o),
(169,544,o),
(104,387,o),
(104,311,qs),
(104,230,o),
(184,127,o),
(264,127,q),
(321,131,o),
(406,198,o),
(451,299,o),
(451,354,qs),
(451,417,o),
(390,521,o),
(330,544,q),
(323,544,o),
(323,551,o),
(330,568,o),
(330,573,q),
(357,597,o),
(390,597,qs),
(425,597,o),
(490,541,o),
(530,445,o),
(530,389,qs),
(530,297,o),
(413,120,o),
(286,53,q)
);
}
);
userData = {
assembly = "MPPEM[ ]	/* MeasurePixelPerEm */
PUSHB[ ]	/* 1 value pushed */
30
LT[ ]	/* LessThan */
IF[ ]	/* If */
NPUSHB[ ]	/* 33 values pushed */
0 0 2 3 2 0 3 128 0 3 1 2 3 1 126 0 1 0 5 1 5 101 0 2 2 4 97 0 4 4 28 2 78
ELSE[ ]	/* Else */
NPUSHB[ ]	/* 39 values pushed */
0 0 2 3 2 0 3 128 0 3 1 2 3 1 126 0 4 0 2 0 4 2 105 0 1 5 5 1 89 0 1 1 5 97 0 5 1 5 81
EIF[ ]	/* EndIf */
NPUSHB[ ]	/* 9 values pushed */
40 40 37 37 43 37 6 8 28
CALL[ ]	/* CallFunction */";
};
width = 600;
}
);
note = O;
unicode = 79;
},
{
glyphname = Oacute;
layers = (
{
.lastUpdate = 753955765.465;
layerId = m01;
shapes = (
{
closed = 1;
nodes = (
(221,-30,o),
(168,-30,qs),
(85,-30,o),
(5,80,o),
(5,170,qs),
(5,245,o),
(57,411,o),
(148,551,o),
(203,588,q),
(243,622,o),
(337,657,o),
(387,657,qs),
(445,657,o),
(555,611,o),
(597,569,qs),
(618,550,o),
(651,498,o),
(651,476,qs),
(651,461,o),
(641,451,qs),
(602,413,o),
(588,413,qs),
(581,413,o),
(572,424,o),
(563,440,qs),
(552,462,o),
(538,481,q),
(446,586,o),
(350,586,qs),
(282,586,o),
(169,484,o),
(104,327,o),
(104,251,qs),
(104,170,o),
(184,67,o),
(264,67,q),
(321,71,o),
(406,138,o),
(451,239,o),
(451,294,qs),
(451,357,o),
(390,461,o),
(330,484,q),
(323,484,o),
(323,491,o),
(330,508,o),
(330,513,q),
(357,537,o),
(390,537,qs),
(425,537,o),
(490,481,o),
(530,385,o),
(530,329,qs),
(530,237,o),
(413,60,o),
(286,-7,q)
);
},
{
closed = 1;
nodes = (
(540,816,o),
(486,782,o),
(442,738,o),
(442,722,qs),
(442,721,ls),
(443,706,o),
(464,706,qs),
(487,706,o),
(561,736,o),
(572,745,qs),
(587,756,o),
(587,771,qs),
(587,787,o),
(560,816,o),
(549,816,qs)
);
}
);
userData = {
assembly = "MPPEM[ ]	/* MeasurePixelPerEm */
PUSHB[ ]	/* 1 value pushed */
26
LT[ ]	/* LessThan */
IF[ ]	/* If */
NPUSHB[ ]	/* 46 values pushed */
8 1 7 6 7 133 0 6 4 4 6 112 0 0 2 3 2 0 3 128 0 3 1 2 3 1 126 0 4 0 2 0 4 2 106 0 1 1 5 97 0 5 5 27 5 78
ELSE[ ]	/* Else */
MPPEM[ ]	/* MeasurePixelPerEm */
PUSHB[ ]	/* 1 value pushed */
39
LT[ ]	/* LessThan */
IF[ ]	/* If */
NPUSHB[ ]	/* 45 values pushed */
8 1 7 6 7 133 0 6 4 6 133 0 0 2 3 2 0 3 128 0 3 1 2 3 1 126 0 4 0 2 0 4 2 106 0 1 1 5 97 0 5 5 27 5 78
ELSE[ ]	/* Else */
NPUSHB[ ]	/* 50 values pushed */
8 1 7 6 7 133 0 6 4 6 133 0 0 2 3 2 0 3 128 0 3 1 2 3 1 126 0 4 0 2 0 4 2 106 0 1 5 5 1 89 0 1 1 5 97 0 5 1 5 81
EIF[ ]	/* EndIf */
EIF[ ]	/* EndIf */
NPUSHB[ ]	/* 16 values pushed */
56 56 56 70 56 69 40 40 40 37 37 43 37 9 8 29
CALL[ ]	/* CallFunction */";
};
width = 600;
}
);
note = Oacute;
unicode = 211;
},
{
glyphname = Ocircumflex;
layers = (
{
.lastUpdate = 753955765.466;
layerId = m01;
shapes = (
{
closed = 1;
nodes = (
(221,-31,o),
(168,-31,qs),
(85,-31,o),
(5,79,o),
(5,169,qs),
(5,244,o),
(57,410,o),
(148,550,o),
(203,587,q),
(243,621,o),
(337,656,o),
(387,656,qs),
(445,656,o),
(555,610,o),
(597,568,qs),
(618,549,o),
(651,497,o),
(651,475,qs),
(651,460,o),
(641,450,qs),
(602,412,o),
(588,412,qs),
(581,412,o),
(572,423,o),
(563,439,qs),
(552,461,o),
(538,480,q),
(446,585,o),
(350,585,qs),
(282,585,o),
(169,483,o),
(104,326,o),
(104,250,qs),
(104,169,o),
(184,66,o),
(264,66,q),
(321,70,o),
(406,137,o),
(451,238,o),
(451,293,qs),
(451,356,o),
(390,460,o),
(330,483,q),
(323,483,o),
(323,490,o),
(330,507,o),
(330,512,q),
(357,536,o),
(390,536,qs),
(425,536,o),
(490,480,o),
(530,384,o),
(530,328,qs),
(530,236,o),
(413,59,o),
(286,-8,q)
);
},
{
closed = 1;
nodes = (
(159,698,o),
(291,805,o),
(297,804,qs),
(337,801,o),
(422,775,o),
(461,755,qs),
(469,750,o),
(488,739,o),
(488,731,qs),
(487,724,ls),
(485,716,o),
(476,698,o),
(472,696,q),
(462,693,o),
(451,693,qs),
(435,693,o),
(401,704,o),
(373,716,qs),
(356,723,o),
(324,734,o),
(313,734,qs),
(307,734,ls),
(302,733,o),
(283,715,o),
(276,709,qs),
(262,698,o),
(193,651,o),
(185,651,qs),
(184,651,l),
(170,657,o),
(137,679,o),
(142,683,qs)
);
}
);
userData = {
assembly = "NPUSHB[ ]	/* 10 values pushed */
77 1 8 7 1 76 84 1 7 74
MPPEM[ ]	/* MeasurePixelPerEm */
PUSHB[ ]	/* 1 value pushed */
34
LT[ ]	/* LessThan */
IF[ ]	/* If */
NPUSHB[ ]	/* 52 values pushed */
0 7 8 7 133 0 8 4 8 133 0 6 4 2 4 6 2 128 0 0 2 3 2 0 3 128 0 3 1 2 3 1 126 0 4 0 2 0 4 2 105 0 1 1 5 97 0 5 5 27 5 78
ELSE[ ]	/* Else */
NPUSHB[ ]	/* 57 values pushed */
0 7 8 7 133 0 8 4 8 133 0 6 4 2 4 6 2 128 0 0 2 3 2 0 3 128 0 3 1 2 3 1 126 0 4 0 2 0 4 2 105 0 1 5 5 1 89 0 1 1 5 97 0 5 1 5 81
EIF[ ]	/* EndIf */
NPUSHB[ ]	/* 12 values pushed */
36 22 36 40 40 37 37 43 37 9 8 31
CALL[ ]	/* CallFunction */";
};
width = 600;
}
);
note = Ocircumflex;
unicode = 212;
},
{
glyphname = Odieresis;
layers = (
{
.lastUpdate = 753955765.466;
layerId = m01;
shapes = (
{
closed = 1;
nodes = (
(221,-26,o),
(168,-26,qs),
(85,-26,o),
(5,84,o),
(5,174,qs),
(5,249,o),
(57,415,o),
(148,555,o),
(203,592,q),
(243,626,o),
(337,661,o),
(387,661,qs),
(445,661,o),
(555,615,o),
(597,573,qs),
(618,554,o),
(651,502,o),
(651,480,qs),
(651,465,o),
(641,455,qs),
(602,417,o),
(588,417,qs),
(581,417,o),
(572,428,o),
(563,444,qs),
(552,466,o),
(538,485,q),
(446,590,o),
(350,590,qs),
(282,590,o),
(169,488,o),
(104,331,o),
(104,255,qs),
(104,174,o),
(184,71,o),
(264,71,q),
(321,75,o),
(406,142,o),
(451,243,o),
(451,298,qs),
(451,361,o),
(390,465,o),
(330,488,q),
(323,488,o),
(323,495,o),
(330,512,o),
(330,517,q),
(357,541,o),
(390,541,qs),
(425,541,o),
(490,485,o),
(530,389,o),
(530,333,qs),
(530,241,o),
(413,64,o),
(286,-3,q)
);
},
{
closed = 1;
nodes = (
(218,768,o),
(195,771,q),
(186,774,o),
(174,774,qs),
(148,774,o),
(139,758,qs),
(132,747,o),
(132,736,qs),
(132,719,o),
(162,697,o),
(182,697,qs),
(199,697,o),
(229,719,o),
(229,735,qs),
(229,742,o),
(226,749,qs)
);
},
{
closed = 1;
nodes = (
(431,781,o),
(387,781,qs),
(366,781,o),
(331,754,o),
(331,737,qs),
(331,728,o),
(337,719,qs),
(340,714,o),
(355,705,o),
(362,702,qs),
(373,696,o),
(382,696,qs),
(403,696,o),
(431,737,o),
(431,757,qs)
);
}
);
userData = {
assembly = "MPPEM[ ]	/* MeasurePixelPerEm */
PUSHB[ ]	/* 1 value pushed */
34
LT[ ]	/* LessThan */
IF[ ]	/* If */
NPUSHB[ ]	/* 47 values pushed */
9 1 7 6 7 133 8 1 6 4 4 6 112 0 0 2 3 2 0 3 128 0 3 1 2 3 1 126 0 4 0 2 0 4 2 106 0 1 1 5 97 0 5 5 27 5 78
ELSE[ ]	/* Else */
NPUSHB[ ]	/* 50 values pushed */
0 9 7 9 133 0 7 6 7 133 8 1 6 4 6 133 0 0 2 3 2 0 3 128 0 3 1 2 3 1 126 0 4 0 2 0 4 2 106 0 1 1 5 97 0 5 5 27 5 78
EIF[ ]	/* EndIf */
NPUSHB[ ]	/* 14 values pushed */
85 83 37 37 37 40 40 37 37 43 37 10 8 31
CALL[ ]	/* CallFunction */";
};
width = 600;
}
);
note = Odieresis;
unicode = 214;
},
{
glyphname = Ograve;
layers = (
{
.lastUpdate = 753955765.466;
layerId = m01;
shapes = (
{
closed = 1;
nodes = (
(221,-21,o),
(168,-21,qs),
(85,-21,o),
(5,89,o),
(5,179,qs),
(5,254,o),
(57,420,o),
(148,560,o),
(203,597,q),
(243,631,o),
(337,666,o),
(387,666,qs),
(445,666,o),
(555,620,o),
(597,578,qs),
(618,559,o),
(651,507,o),
(651,485,qs),
(651,470,o),
(641,460,qs),
(602,422,o),
(588,422,qs),
(581,422,o),
(572,433,o),
(563,449,qs),
(552,471,o),
(538,490,q),
(446,595,o),
(350,595,qs),
(282,595,o),
(169,493,o),
(104,336,o),
(104,260,qs),
(104,179,o),
(184,76,o),
(264,76,q),
(321,80,o),
(406,147,o),
(451,248,o),
(451,303,qs),
(451,366,o),
(390,470,o),
(330,493,q),
(323,493,o),
(323,500,o),
(330,517,o),
(330,522,q),
(357,546,o),
(390,546,qs),
(425,546,o),
(490,490,o),
(530,394,o),
(530,338,qs),
(530,246,o),
(413,69,o),
(286,2,q)
);
},
{
closed = 1;
nodes = (
(251,709,o),
(224,748,o),
(211,757,qs),
(189,774,o),
(156,790,o),
(142,790,qs),
(128,790,o),
(101,774,o),
(84,755,qs),
(72,742,o),
(60,722,o),
(60,710,qs),
(60,704,o),
(61,701,qs),
(62,695,o),
(80,686,o),
(110,677,o),
(113,675,q),
(141,663,o),
(176,652,o),
(189,652,qs),
(204,652,o),
(219,658,o),
(234,677,o),
(247,701,qs)
);
}
);
userData = {
assembly = "NPUSHB[ ]	/* 58 values pushed */
0 7 4 7 133 0 6 4 2 4 6 2 128 0 0 2 3 2 0 3 128 0 3 1 2 3 1 126 0 4 0 2 0 4 2 105 0 1 1 5 98 0 5 5 27 5 78 45 36 40 40 37 37 43 37 8 8 30
CALL[ ]	/* CallFunction */";
};
width = 600;
}
);
note = Ograve;
unicode = 210;
},
{
glyphname = P;
layers = (
{
.lastUpdate = 753955765.466;
layerId = m01;
shapes = (
{
closed = 1;
nodes = (
(128,-66,o),
(128,-46,qs),
(128,-37,o),
(134,-6,o),
(137,9,qs),
(145,47,o),
(145,56,q),
(129,119,l),
(90,96,o),
(72,96,qs),
(59,96,o),
(70,125,o),
(106,166,o),
(129,183,q),
(113,278,o),
(87,405,o),
(66,468,q),
(66,479,o),
(82,501,o),
(97,516,q),
(123,536,o),
(138,536,qs),
(151,536,o),
(164,507,o),
(172,474,qs),
(177,453,l),
(212,594,o),
(298,776,o),
(385,860,o),
(423,860,qs),
(464,860,o),
(516,774,o),
(516,703,qs),
(516,593,o),
(380,329,o),
(236,210,q),
(239,183,o),
(245,126,o),
(245,104,qs),
(245,45,o),
(200,-37,o),
(141,-59,q)
);
},
{
closed = 1;
nodes = (
(206,453,o),
(206,404,qs),
(206,379,o),
(215,330,o),
(227,278,q),
(270,321,o),
(368,451,o),
(439,598,o),
(439,659,qs),
(439,731,o),
(383,770,q),
(369,784,o),
(306,689,o),
(243,555,o),
(231,522,qs)
);
}
);
userData = {
assembly = "NPUSHB[ ]	/* 34 values pushed */
51 33 27 24 15 5 2 1 1 76 34 1 2 73 0 0 1 0 133 0 1 2 1 133 0 2 2 118 42 38 42 3 8 25
CALL[ ]	/* CallFunction */";
};
width = 600;
}
);
note = P;
unicode = 80;
},
{
glyphname = Q;
layers = (
{
.lastUpdate = 753955765.466;
layerId = m01;
shapes = (
{
closed = 1;
nodes = (
(542,-86,o),
(495,-133,o),
(474,-133,qs),
(464,-133,o),
(457,-126,q),
(438,-99,o),
(426,-76,o),
(418,-51,qs),
(411,-33,o),
(391,22,o),
(375,61,q),
(305,40,o),
(240,40,qs),
(161,40,o),
(51,106,o),
(-5,218,o),
(-5,289,qs),
(-5,386,o),
(98,589,o),
(196,666,qs),
(235,698,o),
(364,745,o),
(421,745,qs),
(478,745,o),
(547,691,o),
(547,633,qs),
(547,610,o),
(541,581,q),
(599,501,o),
(599,398,qs),
(599,318,o),
(529,169,o),
(465,117,q),
(472,103,o),
(488,78,o),
(495,67,qs),
(520,29,o),
(542,-25,o),
(542,-66,qs)
);
},
{
closed = 1;
nodes = (
(192,153,o),
(294,131,o),
(336,131,q),
(324,158,o),
(287,211,o),
(256,251,qs),
(220,300,l),
(220,310,o),
(275,356,o),
(285,356,q),
(349,284,o),
(418,202,o),
(453,145,q),
(495,167,o),
(536,264,o),
(536,328,qs),
(536,406,o),
(480,565,o),
(383,669,o),
(325,669,qs),
(291,669,o),
(260,652,q),
(208,634,o),
(122,538,o),
(72,411,o),
(72,348,qs),
(72,293,o),
(113,202,o),
(156,173,q)
);
}
);
userData = {
assembly = "NPUSHB[ ]	/* 16 values pushed */
10 1 4 3 60 54 2 5 4 27 5 2 1 5 3 76
MPPEM[ ]	/* MeasurePixelPerEm */
PUSHB[ ]	/* 1 value pushed */
41
LT[ ]	/* LessThan */
IF[ ]	/* If */
NPUSHB[ ]	/* 32 values pushed */
0 4 3 5 3 4 5 128 0 2 1 2 134 0 5 0 1 2 5 1 106 0 3 3 0 97 0 0 0 28 3 78
ELSE[ ]	/* Else */
NPUSHB[ ]	/* 37 values pushed */
0 4 3 5 3 4 5 128 0 2 1 2 134 0 0 0 3 4 0 3 105 0 5 1 1 5 89 0 5 5 1 98 0 1 5 1 82
EIF[ ]	/* EndIf */
NPUSHB[ ]	/* 9 values pushed */
22 25 42 40 40 46 6 8 28
CALL[ ]	/* CallFunction */";
};
width = 600;
}
);
note = Q;
unicode = 81;
},
{
glyphname = R;
layers = (
{
.lastUpdate = 753955765.466;
layerId = m01;
shapes = (
{
closed = 1;
nodes = (
(477,-42,o),
(408,0,o),
(357,58,o),
(323,106,qs),
(290,153,o),
(240,210,o),
(172,254,o),
(129,261,q),
(129,197,o),
(121,153,o),
(90,132,o),
(42,116,q),
(24,116,o),
(24,176,qs),
(24,209,o),
(27,234,qs),
(28,261,ls),
(30,293,o),
(30,322,qs),
(30,383,o),
(20,571,o),
(16,637,qs),
(13,681,ls),
(13,697,o),
(61,737,o),
(80,737,qs),
(95,737,o),
(100,725,q),
(100,609,l),
(136,670,o),
(233,731,o),
(281,731,qs),
(327,731,o),
(388,677,o),
(388,632,qs),
(388,571,o),
(264,416,o),
(129,333,q),
(194,333,o),
(292,292,o),
(361,233,o),
(408,183,qs),
(462,125,o),
(549,57,o),
(609,42,q),
(625,42,o),
(625,33,qs),
(625,23,o),
(584,-15,o),
(533,-45,o),
(522,-45,qs)
);
},
{
closed = 1;
nodes = (
(153,633,o),
(120,603,o),
(107,565,o),
(107,535,qs),
(107,509,o),
(110,465,qs),
(114,417,o),
(115,377,q),
(162,393,o),
(244,478,o),
(294,579,o),
(294,616,qs),
(294,640,o),
(271,668,o),
(247,668,qs),
(223,668,o),
(187,652,q)
);
}
);
userData = {
assembly = "NPUSHB[ ]	/* 17 values pushed */
22 1 6 2 61 59 21 3 1 6 42 34 2 4 1 3 76
MPPEM[ ]	/* MeasurePixelPerEm */
PUSHB[ ]	/* 1 value pushed */
39
LT[ ]	/* LessThan */
IF[ ]	/* If */
NPUSHB[ ]	/* 39 values pushed */
0 1 6 4 6 1 4 128 0 4 0 6 4 0 126 0 0 5 6 0 5 126 7 1 5 5 132 0 6 6 2 97 3 1 2 2 28 6 78
ELSE[ ]	/* Else */
NPUSHB[ ]	/* 43 values pushed */
0 1 6 4 6 1 4 128 0 4 0 6 4 0 126 0 0 5 6 0 5 126 7 1 5 5 132 0 3 3 28 77 0 6 6 2 97 0 2 2 28 6 78
EIF[ ]	/* EndIf */
NPUSHB[ ]	/* 16 values pushed */
0 0 53 51 0 50 0 49 28 36 37 22 20 8 8 27
CALL[ ]	/* CallFunction */";
};
width = 600;
}
);
note = R;
unicode = 82;
},
{
glyphname = S;
layers = (
{
.lastUpdate = 753955765.466;
layerId = m01;
shapes = (
{
closed = 1;
nodes = (
(375,-4,o),
(366,-4,qs),
(320,-4,o),
(229,32,o),
(150,83,o),
(89,127,qs),
(50,155,l),
(13,176,o),
(-23,210,o),
(-23,226,qs),
(-23,242,o),
(12,275,o),
(50,295,q),
(89,283,o),
(179,229,o),
(245,182,qs),
(322,128,o),
(415,75,o),
(450,75,qs),
(484,75,o),
(503,108,qs),
(522,142,o),
(522,167,qs),
(522,200,o),
(466,247,o),
(381,278,o),
(309,298,qs),
(228,321,o),
(127,359,o),
(48,420,o),
(38,465,qs),
(30,496,o),
(30,531,qs),
(30,608,o),
(115,732,o),
(248,802,o),
(317,802,qs),
(382,802,o),
(484,734,o),
(506,666,q),
(506,659,o),
(479,629,o),
(443,605,o),
(429,605,q),
(411,659,o),
(299,720,o),
(239,720,qs),
(207,720,o),
(157,702,o),
(144,684,qs),
(104,621,o),
(104,574,qs),
(104,528,o),
(176,465,o),
(281,428,o),
(366,405,qs),
(434,387,o),
(518,360,o),
(549,341,qs),
(618,303,o),
(618,238,qs),
(618,190,o),
(549,86,o),
(443,9,o),
(393,-2,q)
);
}
);
userData = {
assembly = "NPUSHB[ ]	/* 50 values pushed */
51 1 3 1 1 76 0 1 0 3 0 1 3 128 0 3 4 0 3 4 126 0 0 0 2 97 0 2 2 26 77 0 4 4 30 4 78 63 61 46 44 28 26 21 20 18 16 5 8 22
CALL[ ]	/* CallFunction */";
};
width = 600;
}
);
note = S;
unicode = 83;
},
{
glyphname = T;
layers = (
{
.lastUpdate = 753955765.466;
layerId = m01;
shapes = (
{
closed = 1;
nodes = (
(269,-33,o),
(256,-29,o),
(256,-20,q),
(229,38,o),
(203,289,o),
(203,432,qs),
(203,574,o),
(213,662,q),
(189,662,o),
(154,669,qs),
(116,675,o),
(95,675,q),
(58,671,ls),
(39,668,o),
(27,668,qs),
(11,668,o),
(0,675,q),
(10,717,o),
(82,749,o),
(136,749,qs),
(163,749,o),
(211,745,qs),
(243,742,o),
(266,742,q),
(639,715,l),
(645,709,o),
(645,701,qs),
(645,690,o),
(623,665,o),
(594,642,o),
(586,635,qs),
(578,628,o),
(542,617,o),
(526,617,qs),
(511,617,o),
(506,622,q),
(479,629,o),
(400,635,qs),
(334,640,o),
(293,648,q),
(293,469,o),
(312,188,o),
(349,74,qs),
(352,65,o),
(352,57,qs),
(352,34,o),
(313,-13,o),
(283,-33,q)
);
}
);
userData = {
assembly = "MPPEM[ ]	/* MeasurePixelPerEm */
PUSHB[ ]	/* 1 value pushed */
34
LT[ ]	/* LessThan */
IF[ ]	/* If */
NPUSHB[ ]	/* 16 values pushed */
30 20 2 3 1 7 1 0 3 44 2 2 6 0 3 76
ELSE[ ]	/* Else */
MPPEM[ ]	/* MeasurePixelPerEm */
PUSHB[ ]	/* 1 value pushed */
39
LT[ ]	/* LessThan */
IF[ ]	/* If */
NPUSHB[ ]	/* 20 values pushed */
20 1 4 1 7 1 0 3 44 2 2 6 0 3 76 30 1 4 1 75
ELSE[ ]	/* Else */
NPUSHB[ ]	/* 20 values pushed */
20 1 4 1 7 1 0 5 44 2 2 6 0 3 76 30 1 4 1 75
EIF[ ]	/* EndIf */
EIF[ ]	/* EndIf */
MPPEM[ ]	/* MeasurePixelPerEm */
PUSHB[ ]	/* 1 value pushed */
30
LT[ ]	/* LessThan */
IF[ ]	/* If */
NPUSHB[ ]	/* 27 values pushed */
0 0 3 6 3 0 6 128 5 4 2 3 3 1 97 2 1 1 1 28 77 0 6 6 27 6 78
ELSE[ ]	/* Else */
MPPEM[ ]	/* MeasurePixelPerEm */
PUSHB[ ]	/* 1 value pushed */
34
LT[ ]	/* LessThan */
IF[ ]	/* If */
NPUSHB[ ]	/* 26 values pushed */
0 0 3 6 3 0 6 128 0 6 6 132 5 4 2 3 3 1 97 2 1 1 1 28 3 78
ELSE[ ]	/* Else */
MPPEM[ ]	/* MeasurePixelPerEm */
PUSHB[ ]	/* 1 value pushed */
39
LT[ ]	/* LessThan */
IF[ ]	/* If */
NPUSHB[ ]	/* 34 values pushed */
5 1 3 4 0 4 3 0 128 0 0 6 4 0 6 126 0 6 6 132 0 2 0 4 3 2 4 105 0 1 1 28 1 78
ELSE[ ]	/* Else */
NPUSHB[ ]	/* 40 values pushed */
0 3 4 5 4 3 5 128 0 5 0 4 5 0 126 0 0 6 4 0 6 126 0 6 6 132 0 2 0 4 3 2 4 105 0 1 1 28 1 78
EIF[ ]	/* EndIf */
EIF[ ]	/* EndIf */
EIF[ ]	/* EndIf */
NPUSHB[ ]	/* 10 values pushed */
23 18 18 35 34 25 44 7 8 29
CALL[ ]	/* CallFunction */";
};
width = 600;
}
);
note = T;
unicode = 84;
},
{
glyphname = U;
layers = (
{
.lastUpdate = 753955765.466;
layerId = m01;
shapes = (
{
closed = 1;
nodes = (
(217,-37,o),
(76,148,o),
(10,422,o),
(10,558,qs),
(10,622,o),
(18,676,q),
(33,719,o),
(97,792,o),
(132,792,qs),
(140,792,o),
(149,789,q),
(156,767,o),
(168,741,qs),
(178,715,o),
(185,693,o),
(185,678,qs),
(185,638,o),
(149,563,q),
(143,556,o),
(143,529,qs),
(143,466,o),
(208,230,o),
(307,53,o),
(356,57,q),
(401,64,o),
(468,192,o),
(503,386,o),
(503,491,qs),
(503,647,o),
(468,751,q),
(463,756,o),
(463,763,qs),
(463,776,o),
(490,809,o),
(532,832,o),
(552,832,qs),
(581,832,o),
(618,776,o),
(618,713,qs),
(618,532,o),
(583,213,o),
(452,-37,o),
(323,-37,qs)
);
}
);
userData = {
assembly = "PUSHB[ ]	/* 6 values pushed */
10 1 2 1 1 76
MPPEM[ ]	/* MeasurePixelPerEm */
PUSHB[ ]	/* 1 value pushed */
24
LT[ ]	/* LessThan */
IF[ ]	/* If */
NPUSHB[ ]	/* 17 values pushed */
0 0 1 0 133 0 1 1 26 77 3 1 2 2 27 2 78
ELSE[ ]	/* Else */
NPUSHB[ ]	/* 17 values pushed */
0 0 1 0 133 3 1 2 1 2 134 0 1 1 26 1 78
EIF[ ]	/* EndIf */
NPUSHB[ ]	/* 12 values pushed */
0 0 0 42 0 41 34 32 37 4 8 23
CALL[ ]	/* CallFunction */";
};
width = 600;
}
);
note = U;
unicode = 85;
},
{
glyphname = Uacute;
layers = (
{
.lastUpdate = 753955765.466;
layerId = m01;
shapes = (
{
closed = 1;
nodes = (
(226,-44,o),
(79,139,o),
(10,419,o),
(10,558,qs),
(10,622,o),
(18,676,q),
(25,702,ls),
(29,720,o),
(40,733,o),
(58,733,qs),
(82,733,o),
(136,723,q),
(163,723,o),
(163,698,qs),
(163,686,o),
(151,647,o),
(144,627,qs),
(129,587,o),
(123,563,q),
(119,523,o),
(119,502,qs),
(119,397,o),
(191,186,o),
(302,53,o),
(356,57,q),
(401,64,o),
(468,173,o),
(503,341,o),
(503,434,qs),
(503,572,o),
(468,676,q),
(463,681,o),
(463,688,qs),
(463,701,o),
(490,734,o),
(532,757,o),
(552,757,qs),
(581,757,o),
(618,701,o),
(618,638,qs),
(618,468,o),
(585,188,o),
(461,-29,o),
(337,-37,qs)
);
},
{
closed = 1;
nodes = (
(378,939,o),
(336,866,o),
(308,779,o),
(309,779,q),
(313,776,o),
(329,765,o),
(331,765,qs),
(351,765,o),
(421,819,o),
(476,887,o),
(476,908,q),
(475,915,l),
(470,930,o),
(438,947,o),
(421,947,qs),
(414,947,o),
(406,945,qs)
);
}
);
userData = {
assembly = "MPPEM[ ]	/* MeasurePixelPerEm */
PUSHB[ ]	/* 1 value pushed */
30
LT[ ]	/* LessThan */
IF[ ]	/* If */
NPUSHB[ ]	/* 10 values pushed */
48 1 0 4 10 1 3 1 2 76
ELSE[ ]	/* Else */
NPUSHB[ ]	/* 10 values pushed */
48 1 5 4 10 1 3 1 2 76
EIF[ ]	/* EndIf */
MPPEM[ ]	/* MeasurePixelPerEm */
PUSHB[ ]	/* 1 value pushed */
9
LT[ ]	/* LessThan */
IF[ ]	/* If */
NPUSHB[ ]	/* 24 values pushed */
0 4 0 4 133 5 1 0 1 0 133 2 1 1 1 28 77 6 1 3 3 27 3 78
ELSE[ ]	/* Else */
MPPEM[ ]	/* MeasurePixelPerEm */
PUSHB[ ]	/* 1 value pushed */
20
LT[ ]	/* LessThan */
IF[ ]	/* If */
NPUSHB[ ]	/* 24 values pushed */
0 4 0 4 133 5 1 0 0 28 77 2 1 1 1 28 77 6 1 3 3 27 3 78
ELSE[ ]	/* Else */
MPPEM[ ]	/* MeasurePixelPerEm */
PUSHB[ ]	/* 1 value pushed */
24
LT[ ]	/* LessThan */
IF[ ]	/* If */
NPUSHB[ ]	/* 24 values pushed */
0 4 0 4 133 5 1 0 1 0 133 2 1 1 1 28 77 6 1 3 3 27 3 78
ELSE[ ]	/* Else */
MPPEM[ ]	/* MeasurePixelPerEm */
PUSHB[ ]	/* 1 value pushed */
30
LT[ ]	/* LessThan */
IF[ ]	/* If */
NPUSHB[ ]	/* 28 values pushed */
0 4 0 4 133 5 1 0 2 0 133 6 1 3 1 3 134 0 2 2 28 77 0 1 1 28 1 78
ELSE[ ]	/* Else */
MPPEM[ ]	/* MeasurePixelPerEm */
PUSHB[ ]	/* 1 value pushed */
49
LT[ ]	/* LessThan */
IF[ ]	/* If */
NPUSHB[ ]	/* 32 values pushed */
0 4 5 4 133 0 5 0 5 133 0 0 2 0 133 6 1 3 1 3 134 0 2 2 28 77 0 1 1 28 1 78
ELSE[ ]	/* Else */
NPUSHB[ ]	/* 34 values pushed */
0 4 5 4 133 0 5 0 5 133 0 0 2 0 133 0 1 2 3 2 1 3 128 6 1 3 3 132 0 2 2 28 2 78
EIF[ ]	/* EndIf */
EIF[ ]	/* EndIf */
EIF[ ]	/* EndIf */
EIF[ ]	/* EndIf */
EIF[ ]	/* EndIf */
NPUSHB[ ]	/* 18 values pushed */
0 0 53 52 46 44 0 43 0 42 34 32 31 30 37 7 8 23
CALL[ ]	/* CallFunction */";
};
width = 600;
}
);
note = Uacute;
unicode = 218;
},
{
glyphname = Ucircumflex;
layers = (
{
.lastUpdate = 753955765.466;
layerId = m01;
shapes = (
{
closed = 1;
nodes = (
(226,-44,o),
(79,116,o),
(10,366,o),
(10,496,qs),
(10,556,o),
(18,610,q),
(25,636,ls),
(29,654,o),
(40,667,o),
(58,667,qs),
(82,667,o),
(136,657,q),
(163,657,o),
(163,632,qs),
(163,620,o),
(151,581,o),
(144,561,qs),
(129,521,o),
(123,497,q),
(119,457,o),
(119,437,qs),
(119,338,o),
(190,159,o),
(301,53,o),
(356,57,q),
(401,64,o),
(468,157,o),
(503,301,o),
(503,384,qs),
(503,506,o),
(468,610,q),
(463,615,o),
(463,622,qs),
(463,635,o),
(490,668,o),
(532,691,o),
(552,691,qs),
(581,691,o),
(618,635,o),
(618,572,qs),
(618,408,o),
(585,159,o),
(461,-29,o),
(337,-37,qs)
);
},
{
closed = 1;
nodes = (
(136,774,o),
(191,824,qs),
(210,842,l),
(299,938,o),
(318,943,qs),
(321,944,o),
(327,944,qs),
(350,944,o),
(396,921,q),
(426,902,ls),
(452,884,o),
(466,878,qs),
(503,861,o),
(552,836,o),
(557,826,q),
(557,824,ls),
(557,813,o),
(515,741,o),
(508,742,qs),
(462,751,o),
(348,812,qs),
(323,825,l),
(316,827,l),
(314,827,l),
(301,818,o),
(268,788,qs),
(244,767,o),
(198,729,o),
(195,730,q),
(186,735,o),
(145,759,o),
(136,763,q)
);
}
);
userData = {
assembly = "NPUSHB[ ]	/* 14 values pushed */
75 59 56 51 46 5 0 4 10 1 3 1 2 76
MPPEM[ ]	/* MeasurePixelPerEm */
PUSHB[ ]	/* 1 value pushed */
24
LT[ ]	/* LessThan */
IF[ ]	/* If */
NPUSHB[ ]	/* 23 values pushed */
0 4 0 4 133 0 0 1 0 133 2 1 1 3 1 133 5 1 3 3 27 3 78
ELSE[ ]	/* Else */
NPUSHB[ ]	/* 25 values pushed */
0 4 0 4 133 0 0 2 0 133 0 2 1 2 133 0 1 3 1 133 5 1 3 3 118
EIF[ ]	/* EndIf */
NPUSHB[ ]	/* 16 values pushed */
0 0 68 67 0 43 0 42 34 32 31 30 37 6 8 23
CALL[ ]	/* CallFunction */";
};
width = 600;
}
);
note = Ucircumflex;
unicode = 219;
},
{
glyphname = Udieresis;
layers = (
{
.lastUpdate = 753955765.466;
layerId = m01;
shapes = (
{
closed = 1;
nodes = (
(226,-44,o),
(79,139,o),
(10,419,o),
(10,558,qs),
(10,622,o),
(18,676,q),
(25,702,ls),
(29,720,o),
(40,733,o),
(58,733,qs),
(82,733,o),
(136,723,q),
(163,723,o),
(163,698,qs),
(163,686,o),
(151,647,o),
(144,627,qs),
(129,587,o),
(123,563,q),
(119,523,o),
(119,502,qs),
(119,397,o),
(191,186,o),
(302,53,o),
(356,57,q),
(401,64,o),
(468,173,o),
(503,341,o),
(503,434,qs),
(503,572,o),
(468,676,q),
(463,681,o),
(463,688,qs),
(463,701,o),
(490,734,o),
(532,757,o),
(552,757,qs),
(581,757,o),
(618,701,o),
(618,638,qs),
(618,468,o),
(585,188,o),
(461,-29,o),
(337,-37,qs)
);
},
{
closed = 1;
nodes = (
(266,829,ls),
(266,845,o),
(238,862,o),
(218,862,qs),
(192,862,o),
(152,835,o),
(152,811,qs),
(152,803,l),
(156,782,o),
(182,762,o),
(201,762,qs),
(217,762,o),
(247,785,o),
(266,815,o),
(266,825,qs)
);
},
{
closed = 1;
nodes = (
(431,863,o),
(405,863,qs),
(383,863,o),
(344,826,o),
(344,803,qs),
(344,794,o),
(346,789,qs),
(348,781,o),
(363,774,qs),
(376,766,o),
(389,766,qs),
(413,766,o),
(454,800,o),
(454,817,qs),
(454,820,o),
(447,832,o),
(444,836,q)
);
}
);
userData = {
assembly = "MPPEM[ ]	/* MeasurePixelPerEm */
PUSHB[ ]	/* 1 value pushed */
26
LT[ ]	/* LessThan */
IF[ ]	/* If */
NPUSHB[ ]	/* 11 values pushed */
70 50 2 0 5 10 1 3 1 2 76
ELSE[ ]	/* Else */
MPPEM[ ]	/* MeasurePixelPerEm */
PUSHB[ ]	/* 1 value pushed */
45
LT[ ]	/* LessThan */
IF[ ]	/* If */
NPUSHB[ ]	/* 11 values pushed */
70 50 2 6 5 10 1 3 1 2 76
ELSE[ ]	/* Else */
NPUSHB[ ]	/* 11 values pushed */
70 50 2 4 5 10 1 3 1 2 76
EIF[ ]	/* EndIf */
EIF[ ]	/* EndIf */
MPPEM[ ]	/* MeasurePixelPerEm */
PUSHB[ ]	/* 1 value pushed */
9
LT[ ]	/* LessThan */
IF[ ]	/* If */
NPUSHB[ ]	/* 26 values pushed */
7 1 5 0 5 133 6 4 2 0 1 0 133 2 1 1 1 28 77 8 1 3 3 27 3 78
ELSE[ ]	/* Else */
MPPEM[ ]	/* MeasurePixelPerEm */
PUSHB[ ]	/* 1 value pushed */
20
LT[ ]	/* LessThan */
IF[ ]	/* If */
NPUSHB[ ]	/* 26 values pushed */
7 1 5 0 5 133 6 4 2 0 0 28 77 2 1 1 1 28 77 8 1 3 3 27 3 78
ELSE[ ]	/* Else */
MPPEM[ ]	/* MeasurePixelPerEm */
PUSHB[ ]	/* 1 value pushed */
24
LT[ ]	/* LessThan */
IF[ ]	/* If */
NPUSHB[ ]	/* 26 values pushed */
7 1 5 0 5 133 6 4 2 0 1 0 133 2 1 1 1 28 77 8 1 3 3 27 3 78
ELSE[ ]	/* Else */
MPPEM[ ]	/* MeasurePixelPerEm */
PUSHB[ ]	/* 1 value pushed */
26
LT[ ]	/* LessThan */
IF[ ]	/* If */
NPUSHB[ ]	/* 30 values pushed */
7 1 5 0 5 133 6 4 2 0 2 0 133 8 1 3 1 3 134 0 2 2 28 77 0 1 1 28 1 78
ELSE[ ]	/* Else */
MPPEM[ ]	/* MeasurePixelPerEm */
PUSHB[ ]	/* 1 value pushed */
45
LT[ ]	/* LessThan */
IF[ ]	/* If */
NPUSHB[ ]	/* 34 values pushed */
7 1 5 6 5 133 0 6 0 6 133 4 1 0 2 0 133 8 1 3 1 3 134 0 2 2 28 77 0 1 1 28 1 78
ELSE[ ]	/* Else */
MPPEM[ ]	/* MeasurePixelPerEm */
PUSHB[ ]	/* 1 value pushed */
49
LT[ ]	/* LessThan */
IF[ ]	/* If */
NPUSHB[ ]	/* 34 values pushed */
7 1 5 4 5 133 6 1 4 0 4 133 0 0 2 0 133 8 1 3 1 3 134 0 2 2 28 77 0 1 1 28 1 78
ELSE[ ]	/* Else */
NPUSHB[ ]	/* 36 values pushed */
7 1 5 4 5 133 6 1 4 0 4 133 0 0 2 0 133 0 1 2 3 2 1 3 128 8 1 3 3 132 0 2 2 28 2 78
EIF[ ]	/* EndIf */
EIF[ ]	/* EndIf */
EIF[ ]	/* EndIf */
EIF[ ]	/* EndIf */
EIF[ ]	/* EndIf */
EIF[ ]	/* EndIf */
NPUSHB[ ]	/* 22 values pushed */
0 0 74 72 65 63 55 53 48 46 0 43 0 42 34 32 31 30 37 9 8 23
CALL[ ]	/* CallFunction */";
};
width = 600;
}
);
note = Udieresis;
unicode = 220;
},
{
glyphname = Ugrave;
layers = (
{
.lastUpdate = 753955765.466;
layerId = m01;
shapes = (
{
closed = 1;
nodes = (
(226,-44,o),
(79,139,o),
(10,419,o),
(10,558,qs),
(10,622,o),
(18,676,q),
(25,702,ls),
(29,720,o),
(40,733,o),
(58,733,qs),
(82,733,o),
(136,723,q),
(163,723,o),
(163,698,qs),
(163,686,o),
(151,647,o),
(144,627,qs),
(129,587,o),
(123,563,q),
(119,523,o),
(119,502,qs),
(119,397,o),
(191,186,o),
(302,53,o),
(356,57,q),
(401,64,o),
(468,173,o),
(503,341,o),
(503,434,qs),
(503,572,o),
(468,676,q),
(464,682,o),
(479,688,o),
(494,688,qs),
(531,688,o),
(615,660,o),
(618,638,q),
(618,468,o),
(585,188,o),
(461,-29,o),
(337,-37,qs)
);
},
{
closed = 1;
nodes = (
(151,859,o),
(204,794,o),
(266,744,o),
(275,737,q),
(279,739,o),
(293,749,o),
(297,753,q),
(299,761,o),
(299,768,qs),
(299,793,o),
(272,870,o),
(232,933,o),
(215,940,qs),
(213,941,o),
(207,941,qs),
(187,941,o),
(156,906,o),
(155,887,qs)
);
}
);
userData = {
assembly = "MPPEM[ ]	/* MeasurePixelPerEm */
PUSHB[ ]	/* 1 value pushed */
24
LT[ ]	/* LessThan */
IF[ ]	/* If */
NPUSHB[ ]	/* 11 values pushed */
58 49 2 1 4 3 1 3 0 2 76
ELSE[ ]	/* Else */
NPUSHB[ ]	/* 11 values pushed */
58 49 2 2 4 3 1 3 0 2 76
EIF[ ]	/* EndIf */
MPPEM[ ]	/* MeasurePixelPerEm */
PUSHB[ ]	/* 1 value pushed */
24
LT[ ]	/* LessThan */
IF[ ]	/* If */
NPUSHB[ ]	/* 26 values pushed */
0 4 1 4 133 0 0 1 3 1 0 3 128 2 1 1 1 28 77 5 1 3 3 27 3 78
ELSE[ ]	/* Else */
MPPEM[ ]	/* MeasurePixelPerEm */
PUSHB[ ]	/* 1 value pushed */
49
LT[ ]	/* LessThan */
IF[ ]	/* If */
NPUSHB[ ]	/* 29 values pushed */
0 4 2 4 133 0 0 1 3 1 0 3 128 5 1 3 3 132 0 2 2 28 77 0 1 1 28 1 78
ELSE[ ]	/* Else */
NPUSHB[ ]	/* 31 values pushed */
0 4 2 4 133 0 1 2 0 2 1 0 128 0 0 3 2 0 3 126 5 1 3 3 132 0 2 2 28 2 78
EIF[ ]	/* EndIf */
EIF[ ]	/* EndIf */
NPUSHB[ ]	/* 16 values pushed */
0 0 43 42 0 40 0 39 31 29 28 27 37 6 8 23
CALL[ ]	/* CallFunction */";
};
width = 600;
}
);
note = Ugrave;
unicode = 217;
},
{
glyphname = V;
layers = (
{
.lastUpdate = 753955765.466;
layerId = m01;
shapes = (
{
closed = 1;
nodes = (
(294,-8,o),
(248,-8,qs),
(189,-8,o),
(143,115,q),
(50,323,o),
(-1,546,q),
(-1,567,o),
(43,613,o),
(65,613,qs),
(73,613,o),
(79,610,q),
(102,558,o),
(143,445,qs),
(188,320,o),
(259,156,o),
(302,99,q),
(319,139,o),
(344,248,o),
(359,331,qs),
(383,462,o),
(429,630,o),
(518,765,o),
(589,785,q),
(606,779,o),
(606,765,qs),
(606,747,o),
(559,706,o),
(541,706,q),
(517,649,o),
(482,515,o),
(461,419,qs),
(432,292,o),
(385,132,o),
(350,67,q)
);
}
);
userData = {
assembly = "NPUSHB[ ]	/* 31 values pushed */
27 17 2 2 1 1 76 0 0 1 0 133 0 1 2 1 133 0 2 2 30 2 78 32 30 25 23 21 3 8 23
CALL[ ]	/* CallFunction */";
};
width = 600;
}
);
note = V;
unicode = 86;
},
{
glyphname = W;
layers = (
{
.lastUpdate = 753955765.466;
layerId = m01;
shapes = (
{
closed = 1;
nodes = (
(201,38,o),
(148,-15,o),
(124,-15,qs),
(97,-15,o),
(85,18,qs),
(72,48,o),
(13,244,o),
(-34,448,o),
(-34,504,qs),
(-34,539,o),
(-24,549,q),
(-15,567,o),
(22,596,o),
(41,596,qs),
(59,596,o),
(70,581,qs),
(87,556,o),
(112,500,o),
(112,479,qs),
(112,441,o),
(70,440,q),
(85,392,o),
(106,309,qs),
(128,219,o),
(148,159,q),
(161,242,o),
(184,339,o),
(240,425,o),
(288,425,qs),
(306,425,o),
(348,348,o),
(384,267,qs),
(431,156,o),
(460,112,q),
(481,195,o),
(495,373,o),
(498,502,qs),
(502,638,o),
(507,705,q),
(507,730,o),
(534,774,o),
(572,800,o),
(586,800,qs),
(601,800,o),
(601,784,qs),
(601,753,ls),
(597,688,o),
(595,557,qs),
(594,442,o),
(585,291,o),
(555,134,o),
(523,65,q),
(515,44,o),
(440,-1,o),
(413,-1,qs),
(403,-1,o),
(397,2,q),
(376,17,o),
(316,118,o),
(265,235,o),
(257,268,q),
(245,201,ls),
(238,153,o),
(225,94,o),
(210,65,q)
);
}
);
userData = {
assembly = "NPUSHB[ ]	/* 59 values pushed */
25 1 4 1 39 30 3 3 0 2 2 76 0 4 1 3 1 4 3 128 0 3 2 1 3 2 126 0 2 0 1 2 0 126 0 1 1 26 77 0 0 0 30 77 0 5 5 27 5 78 41 37 23 44 42 40 6 8 28
CALL[ ]	/* CallFunction */";
};
width = 600;
}
);
note = W;
unicode = 87;
},
{
glyphname = X;
layers = (
{
.lastUpdate = 753955765.466;
layerId = m01;
shapes = (
{
closed = 1;
nodes = (
(19,1,o),
(6,5,o),
(6,8,qs),
(6,16,o),
(45,49,qs),
(82,83,ls),
(126,123,o),
(201,237,o),
(562,963,o),
(258,355,q),
(237,381,ls),
(164,469,o),
(72,586,o),
(34,645,qs),
(31,650,o),
(31,655,qs),
(31,675,o),
(90,708,o),
(114,708,q),
(142,675,o),
(303,488,o),
(323,468,q),
(338,489,o),
(389,570,qs),
(445,659,o),
(526,766,o),
(579,805,q),
(618,809,l),
(644,809,o),
(644,789,q),
(636,780,o),
(612,755,o),
(583,737,o),
(566,737,qs),
(558,737,o),
(547,740,q),
(516,686,o),
(454,586,qs),
(388,478,o),
(355,420,q),
(490,283,o),
(563,227,q),
(593,245,o),
(606,245,qs),
(613,245,o),
(621,236,o),
(621,229,qs),
(621,212,o),
(589,162,o),
(538,124,o),
(512,124,qs),
(496,124,o),
(483,131,qs),
(451,147,o),
(379,215,o),
(330,268,qs),
(291,308,l),
(284,297,o),
(265,256,o),
(255,235,qs),
(224,166,o),
(171,70,o),
(94,-1,o),
(46,-1,qs),
(35,-1,o),
(30,0,qs)
);
}
);
userData = {
assembly = "NPUSHB[ ]	/* 78 values pushed */
35 1 3 4 55 49 43 25 8 5 2 5 23 18 2 1 2 3 76 0 3 4 5 4 3 5 128 0 2 5 1 5 2 1 128 0 1 0 5 1 0 126 0 4 4 26 77 0 5 5 0 97 6 1 0 0 30 0 78 2 0 47 46 37 36 32 30 22 20 15 13 0 65 2 65 7 8 22
CALL[ ]	/* CallFunction */";
};
width = 600;
}
);
note = X;
unicode = 88;
},
{
glyphname = Y;
layers = (
{
.lastUpdate = 753955765.466;
layerId = m01;
shapes = (
{
closed = 1;
nodes = (
(209,-31,o),
(199,-31,qs),
(190,-31,o),
(190,-17,qs),
(190,9,o),
(242,132,o),
(292,239,qs),
(359,379,o),
(359,398,q),
(308,405,o),
(141,548,o),
(0,716,o),
(-6,747,q),
(20,784,o),
(54,816,o),
(67,816,qs),
(81,816,o),
(107,786,o),
(129,750,qs),
(160,700,o),
(220,619,o),
(322,524,o),
(393,482,q),
(415,515,o),
(444,604,o),
(461,669,qs),
(476,730,o),
(497,786,o),
(512,789,q),
(529,789,o),
(574,775,o),
(574,764,q),
(561,678,o),
(502,498,o),
(431,336,o),
(372,211,qs),
(327,116,ls),
(317,96,o),
(288,37,o),
(250,-10,o),
(227,-17,q)
);
}
);
userData = {
assembly = "NPUSHB[ ]	/* 9 values pushed */
31 27 17 8 4 2 0 1 76
MPPEM[ ]	/* MeasurePixelPerEm */
PUSHB[ ]	/* 1 value pushed */
32
LT[ ]	/* LessThan */
IF[ ]	/* If */
NPUSHB[ ]	/* 16 values pushed */
0 1 1 26 77 0 0 0 26 77 0 2 2 27 2 78
ELSE[ ]	/* Else */
MPPEM[ ]	/* MeasurePixelPerEm */
PUSHB[ ]	/* 1 value pushed */
34
LT[ ]	/* LessThan */
IF[ ]	/* If */
NPUSHB[ ]	/* 16 values pushed */
0 1 0 1 133 0 0 0 26 77 0 2 2 27 2 78
ELSE[ ]	/* Else */
MPPEM[ ]	/* MeasurePixelPerEm */
PUSHB[ ]	/* 1 value pushed */
41
LT[ ]	/* LessThan */
IF[ ]	/* If */
NPUSHB[ ]	/* 16 values pushed */
0 1 0 1 133 0 2 0 2 134 0 0 0 26 0 78
ELSE[ ]	/* Else */
NPUSHB[ ]	/* 14 values pushed */
0 1 0 1 133 0 0 2 0 133 0 2 2 118
EIF[ ]	/* EndIf */
EIF[ ]	/* EndIf */
EIF[ ]	/* EndIf */
PUSHB[ ]	/* 6 values pushed */
44 44 26 3 8 25
CALL[ ]	/* CallFunction */";
};
width = 600;
}
);
note = Y;
unicode = 89;
},
{
glyphname = Yacute;
layers = (
{
.lastUpdate = 753955765.466;
layerId = m01;
shapes = (
{
closed = 1;
nodes = (
(209,-31,o),
(199,-31,qs),
(190,-31,o),
(190,-17,qs),
(190,9,o),
(242,132,o),
(292,239,qs),
(359,379,o),
(359,398,q),
(308,405,o),
(141,548,o),
(0,716,o),
(-6,747,q),
(20,784,o),
(54,816,o),
(67,816,qs),
(81,816,o),
(107,786,o),
(129,750,qs),
(160,700,o),
(220,619,o),
(322,524,o),
(393,482,q),
(415,515,o),
(444,604,o),
(461,669,qs),
(476,730,o),
(497,786,o),
(512,789,q),
(529,789,o),
(574,775,o),
(574,764,q),
(561,678,o),
(502,498,o),
(431,336,o),
(372,211,qs),
(327,116,ls),
(317,96,o),
(288,37,o),
(250,-10,o),
(227,-17,q)
);
},
{
closed = 1;
nodes = (
(344,877,o),
(304,805,o),
(300,764,q),
(314,757,l),
(316,755,o),
(319,755,qs),
(331,755,o),
(464,849,o),
(469,860,q),
(471,868,o),
(471,873,qs),
(471,892,o),
(439,913,o),
(417,913,qs),
(389,913,o),
(373,900,qs)
);
}
);
userData = {
assembly = "NPUSHB[ ]	/* 17 values pushed */
45 1 1 3 53 8 2 4 0 31 27 17 3 2 4 3 76
MPPEM[ ]	/* MeasurePixelPerEm */
PUSHB[ ]	/* 1 value pushed */
22
LT[ ]	/* LessThan */
IF[ ]	/* If */
NPUSHB[ ]	/* 26 values pushed */
0 3 1 3 133 0 1 1 26 77 0 0 0 26 77 0 4 4 28 77 0 2 2 27 2 78
ELSE[ ]	/* Else */
MPPEM[ ]	/* MeasurePixelPerEm */
PUSHB[ ]	/* 1 value pushed */
32
LT[ ]	/* LessThan */
IF[ ]	/* If */
NPUSHB[ ]	/* 29 values pushed */
0 3 1 3 133 0 4 0 2 0 4 2 128 0 1 1 26 77 0 0 0 26 77 0 2 2 27 2 78
ELSE[ ]	/* Else */
MPPEM[ ]	/* MeasurePixelPerEm */
PUSHB[ ]	/* 1 value pushed */
34
LT[ ]	/* LessThan */
IF[ ]	/* If */
NPUSHB[ ]	/* 29 values pushed */
0 3 1 3 133 0 1 0 1 133 0 4 0 2 0 4 2 128 0 0 0 26 77 0 2 2 27 2 78
ELSE[ ]	/* Else */
MPPEM[ ]	/* MeasurePixelPerEm */
PUSHB[ ]	/* 1 value pushed */
41
LT[ ]	/* LessThan */
IF[ ]	/* If */
NPUSHB[ ]	/* 28 values pushed */
0 3 1 3 133 0 1 0 1 133 0 4 0 2 0 4 2 128 0 2 2 132 0 0 0 26 0 78
ELSE[ ]	/* Else */
NPUSHB[ ]	/* 24 values pushed */
0 3 1 3 133 0 1 0 1 133 0 0 4 0 133 0 4 2 4 133 0 2 2 118
EIF[ ]	/* EndIf */
EIF[ ]	/* EndIf */
EIF[ ]	/* EndIf */
EIF[ ]	/* EndIf */
PUSHB[ ]	/* 8 values pushed */
22 34 44 44 26 5 8 27
CALL[ ]	/* CallFunction */";
};
width = 600;
}
);
note = Yacute;
unicode = 221;
},
{
glyphname = Z;
layers = (
{
.lastUpdate = 753955765.466;
layerId = m01;
shapes = (
{
closed = 1;
nodes = (
(282,-1,o),
(249,-1,qs),
(192,-1,o),
(141,70,o),
(141,129,qs),
(141,195,o),
(194,355,o),
(227,407,q),
(194,399,o),
(66,379,o),
(23,379,qs),
(-27,379,o),
(-27,395,qs),
(-27,414,o),
(44,454,q),
(120,454,o),
(217,459,o),
(258,469,q),
(327,569,ls),
(373,635,o),
(405,686,o),
(405,699,qs),
(405,708,o),
(389,715,o),
(372,715,qs),
(353,715,o),
(308,710,qs),
(268,706,o),
(161,699,o),
(105,699,q),
(95,697,o),
(77,683,qs),
(53,665,o),
(40,665,qs),
(25,665,o),
(13,683,q),
(6,690,o),
(6,699,qs),
(6,713,o),
(36,741,o),
(77,760,o),
(90,760,q),
(120,775,o),
(319,775,qs),
(333,775,o),
(369,781,qs),
(418,788,o),
(434,788,qs),
(467,788,o),
(488,775,q),
(483,737,o),
(446,669,o),
(411,621,qs),
(381,579,o),
(344,517,o),
(335,484,q),
(363,491,o),
(410,507,qs),
(500,536,o),
(549,545,q),
(538,514,o),
(484,475,o),
(418,454,o),
(366,443,qs),
(319,434,o),
(288,424,q),
(226,304,o),
(226,209,qs),
(226,144,o),
(282,70,o),
(327,70,qs),
(378,70,o),
(497,171,o),
(549,270,q),
(546,276,o),
(546,283,qs),
(546,295,o),
(562,317,o),
(586,339,o),
(594,347,q),
(621,347,o),
(621,326,qs),
(621,291,o),
(495,139,o),
(344,10,o),
(319,10,q)
);
}
);
userData = {
assembly = "NPUSHB[ ]	/* 20 values pushed */
29 25 2 8 5 77 1 9 8 9 1 1 0 3 76 35 1 3 1 75
MPPEM[ ]	/* MeasurePixelPerEm */
PUSHB[ ]	/* 1 value pushed */
39
LT[ ]	/* LessThan */
IF[ ]	/* If */
NPUSHB[ ]	/* 69 values pushed */
0 4 3 7 3 4 7 128 0 7 6 3 7 6 126 0 5 6 8 6 5 8 128 0 0 9 1 9 0 1 128 0 3 0 6 5 3 6 105 0 8 0 9 0 8 9 105 0 2 2 26 77 0 1 1 11 97 12 1 11 11 30 77 0 10 10 30 10 78
ELSE[ ]	/* Else */
NPUSHB[ ]	/* 67 values pushed */
0 2 3 2 133 0 4 3 7 3 4 7 128 0 7 6 3 7 6 126 0 5 6 8 6 5 8 128 0 0 9 1 9 0 1 128 0 3 0 6 5 3 6 105 0 8 0 9 0 8 9 105 0 1 12 1 11 10 1 11 105 0 10 10 30 10 78
EIF[ ]	/* EndIf */
NPUSHB[ ]	/* 29 values pushed */
0 0 0 85 0 85 84 82 75 73 70 68 61 59 57 55 52 50 44 43 42 40 38 36 40 20 13 8 24
CALL[ ]	/* CallFunction */";
};
width = 600;
}
);
note = Z;
unicode = 90;
},
{
glyphname = A.ss01;
layers = (
{
.lastUpdate = 753955765.466;
layerId = m01;
shapes = (
{
closed = 1;
nodes = (
(456,-123,o),
(440,-98,qs),
(422,-71,o),
(415,-64,q),
(415,-50,o),
(406,-1,qs),
(403,18,o),
(397,51,o),
(397,61,q),
(375,61,o),
(272,50,qs),
(211,43,o),
(199,43,q),
(194,35,o),
(188,9,qs),
(178,-27,o),
(154,-64,o),
(128,-64,q),
(117,-53,o),
(101,-46,qs),
(94,-42,o),
(80,-34,o),
(74,-28,qs),
(64,-17,o),
(50,11,o),
(50,24,qs),
(50,36,o),
(57,43,q),
(98,296,o),
(254,759,q),
(272,759,ls),
(287,759,o),
(348,736,o),
(361,723,qs),
(379,706,l),
(379,584,o),
(429,348,o),
(477,179,qs),
(494,118,o),
(529,-11,o),
(540,-64,qs),
(545,-84,o),
(545,-98,qs),
(545,-122,o),
(524,-149,o),
(507,-149,qs),
(489,-149,o),
(468,-135,q)
);
},
{
closed = 1;
nodes = (
(237,298,o),
(209,162,qs),
(199,115,l),
(225,128,o),
(349,151,o),
(379,151,q),
(354,261,o),
(323,473,o),
(307,616,q),
(307,600,o),
(281,492,qs),
(254,388,o),
(254,365,q)
);
}
);
userData = {
assembly = "NPUSHB[ ]	/* 67 values pushed */
60 51 12 3 5 1 57 1 4 5 2 76 43 1 2 1 75 0 1 5 1 133 0 3 4 2 4 3 2 128 0 2 0 4 2 0 126 0 0 0 132 0 5 4 4 5 89 0 5 5 4 97 0 4 5 4 81 55 54 18 20 28 45 32 6 8 27
CALL[ ]	/* CallFunction */";
};
width = 600;
}
);
note = A.ss01;
},
{
glyphname = Aacute.ss01;
layers = (
{
.lastUpdate = 753955765.466;
layerId = m01;
shapes = (
{
closed = 1;
nodes = (
(454,-131,o),
(434,-102,qs),
(416,-75,o),
(410,-69,q),
(410,-61,o),
(402,-9,qs),
(393,38,o),
(393,51,q),
(381,51,o),
(309,44,o),
(274,41,qs),
(215,34,o),
(203,34,q),
(200,27,o),
(195,10,o),
(192,1,qs),
(183,-33,o),
(161,-69,o),
(136,-69,q),
(131,-64,o),
(111,-52,q),
(95,-45,o),
(84,-34,qs),
(75,-24,o),
(61,3,o),
(61,15,qs),
(61,27,o),
(68,34,q),
(107,274,o),
(256,718,q),
(273,718,ls),
(287,718,o),
(346,696,o),
(358,683,qs),
(375,667,l),
(375,552,o),
(421,331,o),
(468,166,qs),
(513,4,o),
(529,-69,qs),
(533,-85,o),
(533,-102,qs),
(533,-125,o),
(514,-150,o),
(497,-150,qs),
(480,-150,o),
(460,-137,q)
);
},
{
closed = 1;
nodes = (
(239,269,o),
(221,186,qs),
(203,102,l),
(228,115,o),
(346,137,o),
(375,137,q),
(352,243,o),
(322,445,o),
(307,581,q),
(307,562,o),
(282,464,qs),
(256,360,o),
(256,341,q)
);
},
{
closed = 1;
nodes = (
(521,777,o),
(470,741,o),
(438,700,o),
(438,687,qs),
(438,658,o),
(452,658,qs),
(459,658,o),
(475,665,qs),
(493,673,o),
(503,674,q),
(535,672,l),
(553,669,o),
(569,669,qs),
(594,669,o),
(594,682,q),
(589,710,ls),
(582,748,o),
(567,787,o),
(548,784,q)
);
}
);
userData = {
assembly = "NPUSHB[ ]	/* 19 values pushed */
63 1 6 1 11 1 8 6 59 50 2 5 8 56 1 4 5 4 76
MPPEM[ ]	/* MeasurePixelPerEm */
PUSHB[ ]	/* 1 value pushed */
32
LT[ ]	/* LessThan */
IF[ ]	/* If */
NPUSHB[ ]	/* 54 values pushed */
7 1 6 1 8 1 6 8 128 0 8 5 1 8 5 126 0 5 4 1 5 4 126 0 4 3 1 4 3 126 0 3 2 1 3 2 126 0 2 0 1 2 0 126 0 0 0 132 0 1 1 28 1 78
ELSE[ ]	/* Else */
NPUSHB[ ]	/* 40 values pushed */
0 1 6 1 133 7 1 6 8 6 133 0 8 5 8 133 0 5 4 5 133 0 4 3 4 133 0 3 2 3 133 0 2 0 2 133 0 0 0 118
EIF[ ]	/* EndIf */
NPUSHB[ ]	/* 12 values pushed */
35 17 42 31 19 21 27 44 32 9 8 31
CALL[ ]	/* CallFunction */";
};
width = 600;
}
);
note = Aacute.ss01;
},
{
glyphname = B.ss01;
layers = (
{
.lastUpdate = 753955765.466;
layerId = m01;
shapes = (
{
closed = 1;
nodes = (
(209,-84,o),
(193,-84,qs),
(173,-84,o),
(119,-61,o),
(81,-28,o),
(81,-14,qs),
(81,7,o),
(126,14,q),
(120,49,o),
(111,199,o),
(108,277,qs),
(105,357,o),
(96,515,o),
(89,556,q),
(89,548,o),
(75,548,qs),
(62,548,o),
(29,562,o),
(17,574,q),
(14,580,o),
(14,587,qs),
(14,602,o),
(35,633,o),
(58,660,qs),
(83,689,o),
(89,701,q),
(89,728,o),
(95,760,o),
(108,760,qs),
(120,760,o),
(144,737,q),
(218,805,o),
(303,805,qs),
(355,805,o),
(443,755,o),
(494,667,o),
(494,615,qs),
(494,549,o),
(451,484,q),
(519,456,o),
(584,357,o),
(584,294,qs),
(584,211,o),
(483,36,o),
(325,-79,o),
(244,-79,qs),
(234,-79,o),
(216,-77,q)
);
},
{
closed = 1;
nodes = (
(174,568,o),
(180,461,o),
(180,375,q),
(198,393,o),
(240,431,qs),
(289,474,o),
(348,534,o),
(390,609,o),
(390,650,qs),
(390,676,o),
(379,707,q),
(353,722,o),
(322,722,qs),
(255,722,o),
(180,647,q),
(180,646,o),
(178,637,o),
(170,629,o),
(162,629,q)
);
},
{
closed = 1;
nodes = (
(216,32,l),
(341,95,o),
(506,231,o),
(506,315,qs),
(506,351,o),
(487,388,q),
(453,419,o),
(409,419,qs),
(323,419,o),
(198,303,q),
(198,282,o),
(209,152,qs),
(213,110,o),
(216,68,qs)
);
}
);
userData = {
assembly = "NPUSHB[ ]	/* 24 values pushed */
16 1 5 2 26 21 2 3 5 8 1 6 3 80 79 70 63 47 39 6 0 6 4 76
MPPEM[ ]	/* MeasurePixelPerEm */
PUSHB[ ]	/* 1 value pushed */
45
LT[ ]	/* LessThan */
IF[ ]	/* If */
NPUSHB[ ]	/* 39 values pushed */
0 2 1 5 1 2 5 128 0 3 5 6 5 3 6 128 0 6 0 5 6 0 126 4 1 0 0 132 0 5 5 1 97 0 1 1 26 5 78
ELSE[ ]	/* Else */
NPUSHB[ ]	/* 45 values pushed */
0 2 1 5 1 2 5 128 0 3 5 6 5 3 6 128 0 6 0 5 6 0 126 0 0 4 5 0 4 126 0 4 4 132 0 5 5 1 97 0 1 1 26 5 78
EIF[ ]	/* EndIf */
NPUSHB[ ]	/* 11 values pushed */
73 71 38 44 43 34 43 32 7 8 28
CALL[ ]	/* CallFunction */";
};
width = 600;
}
);
note = B.ss01;
},
{
glyphname = C.ss01;
layers = (
{
.lastUpdate = 753955765.466;
layerId = m01;
shapes = (
{
closed = 1;
nodes = (
(372,-28,o),
(322,-28,qs),
(244,-28,o),
(110,74,o),
(30,237,o),
(30,323,qs),
(30,364,o),
(38,396,q),
(45,469,o),
(132,657,o),
(263,790,o),
(333,790,qs),
(399,790,o),
(456,727,qs),
(475,708,o),
(475,700,qs),
(475,694,o),
(466,694,qs),
(455,694,o),
(417,713,o),
(403,727,q),
(330,703,o),
(209,556,o),
(139,359,o),
(139,263,qs),
(139,143,o),
(195,65,q),
(214,55,o),
(236,55,qs),
(281,55,o),
(378,128,o),
(456,232,o),
(473,273,q),
(473,296,o),
(486,296,qs),
(497,296,o),
(525,274,o),
(544,257,q),
(576,235,o),
(576,202,qs),
(576,163,o),
(504,74,o),
(448,21,qs),
(421,-5,l)
);
}
);
userData = {
assembly = "NPUSHB[ ]	/* 10 values pushed */
22 1 2 3 10 1 1 0 2 76
MPPEM[ ]	/* MeasurePixelPerEm */
PUSHB[ ]	/* 1 value pushed */
45
LT[ ]	/* LessThan */
IF[ ]	/* If */
NPUSHB[ ]	/* 31 values pushed */
0 2 3 0 3 2 0 128 0 0 1 3 0 1 126 0 3 3 26 77 0 1 1 4 97 0 4 4 27 4 78
ELSE[ ]	/* Else */
NPUSHB[ ]	/* 31 values pushed */
0 3 2 3 133 0 2 0 2 133 0 0 1 0 133 0 1 4 4 1 89 0 1 1 4 97 0 4 1 4 81
EIF[ ]	/* EndIf */
PUSHB[ ]	/* 8 values pushed */
40 36 41 36 39 5 8 27
CALL[ ]	/* CallFunction */";
};
width = 600;
}
);
note = C.ss01;
},
{
glyphname = D.ss01;
layers = (
{
.lastUpdate = 753955765.466;
layerId = m01;
shapes = (
{
closed = 1;
nodes = (
(314,-27,o),
(280,-27,qs),
(245,-27,o),
(170,-15,o),
(112,-3,q),
(105,-6,o),
(96,-6,qs),
(80,-6,o),
(41,16,o),
(14,48,o),
(14,62,qs),
(19,133,o),
(22,274,o),
(22,380,qs),
(22,486,o),
(25,628,o),
(30,699,qs),
(30,719,o),
(36,748,o),
(47,748,q),
(47,785,o),
(52,816,o),
(62,816,qs),
(76,816,o),
(112,780,q),
(133,784,o),
(161,784,qs),
(271,784,o),
(464,632,o),
(580,398,o),
(580,283,qs),
(580,172,o),
(462,9,o),
(341,-20,qs)
);
},
{
closed = 1;
nodes = (
(171,37,o),
(204,37,qs),
(295,37,o),
(420,126,o),
(482,271,o),
(482,356,qs),
(482,448,o),
(411,617,o),
(275,723,o),
(182,723,qs),
(152,723,o),
(112,715,q),
(105,628,o),
(105,525,qs),
(105,429,o),
(115,234,o),
(125,84,qs),
(128,45,l)
);
}
);
userData = {
assembly = "NPUSHB[ ]	/* 10 values pushed */
8 1 2 0 34 1 6 5 2 76
MPPEM[ ]	/* MeasurePixelPerEm */
PUSHB[ ]	/* 1 value pushed */
28
LT[ ]	/* LessThan */
IF[ ]	/* If */
NPUSHB[ ]	/* 36 values pushed */
0 1 1 26 77 0 2 2 28 77 0 5 5 0 97 0 0 0 26 77 0 3 3 30 77 0 6 6 4 97 0 4 4 27 4 78
ELSE[ ]	/* Else */
MPPEM[ ]	/* MeasurePixelPerEm */
PUSHB[ ]	/* 1 value pushed */
32
LT[ ]	/* LessThan */
IF[ ]	/* If */
NPUSHB[ ]	/* 34 values pushed */
0 0 0 5 6 0 5 105 0 1 1 26 77 0 2 2 28 77 0 3 3 30 77 0 6 6 4 97 0 4 4 27 4 78
ELSE[ ]	/* Else */
MPPEM[ ]	/* MeasurePixelPerEm */
PUSHB[ ]	/* 1 value pushed */
49
LT[ ]	/* LessThan */
IF[ ]	/* If */
NPUSHB[ ]	/* 37 values pushed */
0 1 0 1 133 0 2 0 5 0 2 5 128 0 0 0 5 6 0 5 105 0 3 3 30 77 0 6 6 4 97 0 4 4 27 4 78
ELSE[ ]	/* Else */
NPUSHB[ ]	/* 34 values pushed */
0 1 0 1 133 0 2 0 5 0 2 5 128 0 0 0 5 6 0 5 105 0 6 0 4 6 4 101 0 3 3 30 3 78
EIF[ ]	/* EndIf */
EIF[ ]	/* EndIf */
EIF[ ]	/* EndIf */
NPUSHB[ ]	/* 10 values pushed */
38 40 35 43 18 34 37 7 8 29
CALL[ ]	/* CallFunction */";
};
width = 600;
}
);
note = D.ss01;
},
{
glyphname = E.ss01;
layers = (
{
.lastUpdate = 753955765.466;
layerId = m01;
shapes = (
{
closed = 1;
nodes = (
(329,-21,o),
(284,-21,qs),
(152,-21,o),
(43,187,o),
(43,355,qs),
(43,507,o),
(83,718,q),
(76,732,o),
(76,736,qs),
(76,739,o),
(79,739,q),
(100,735,l),
(89,746,o),
(89,754,qs),
(89,767,o),
(115,767,q),
(305,800,o),
(423,800,qs),
(437,800,o),
(486,782,o),
(524,754,o),
(524,741,qs),
(524,728,o),
(505,718,q),
(439,718,l),
(164,718,l),
(164,711,o),
(155,711,qs),
(149,711,o),
(135,715,q),
(115,718,l),
(138,695,o),
(156,629,o),
(156,585,qs),
(156,553,o),
(150,487,qs),
(144,425,o),
(144,400,qs),
(144,380,o),
(147,362,q),
(186,372,o),
(251,394,qs),
(322,418,o),
(358,427,q),
(374,427,l),
(410,410,o),
(454,383,o),
(454,368,qs),
(454,356,o),
(439,346,q),
(439,335,o),
(359,313,o),
(342,313,qs),
(262,313,o),
(164,281,q),
(147,281,l),
(147,213,o),
(164,113,o),
(196,70,q),
(212,68,o),
(221,68,qs),
(293,68,o),
(434,166,o),
(488,233,q),
(483,233,o),
(477,239,o),
(477,244,qs),
(477,247,o),
(483,253,o),
(488,253,qs),
(496,253,o),
(505,248,q),
(567,223,o),
(567,178,qs),
(567,143,o),
(503,64,o),
(411,1,o),
(374,-10,qs)
);
}
);
userData = {
assembly = "NPUSHB[ ]	/* 84 values pushed */
66 65 63 46 4 5 7 37 27 2 3 4 2 76 0 7 6 5 6 7 5 128 0 4 5 3 5 4 3 128 0 3 2 5 3 2 126 0 2 0 5 2 0 126 0 0 1 5 0 1 126 0 5 5 6 97 0 6 6 26 77 0 1 1 8 97 0 8 8 27 8 78 44 17 37 95 23 33 20 39 38 9 8 31
CALL[ ]	/* CallFunction */";
};
width = 600;
}
);
note = E.ss01;
},
{
glyphname = F.ss01;
layers = (
{
.lastUpdate = 753955765.466;
layerId = m01;
shapes = (
{
closed = 1;
nodes = (
(242,-6,o),
(231,-6,qs),
(208,-6,o),
(161,27,o),
(150,49,q),
(150,201,l),
(120,190,o),
(102,190,qs),
(79,190,o),
(79,213,q),
(83,252,l),
(116,256,o),
(144,267,o),
(155,293,o),
(155,323,qs),
(153,379,ls),
(150,487,o),
(150,522,q),
(139,517,o),
(77,488,o),
(66,488,q),
(69,479,o),
(69,474,qs),
(69,462,o),
(57,462,qs),
(44,462,o),
(6,489,o),
(-2,505,q),
(-11,514,o),
(-11,522,qs),
(-11,538,o),
(36,565,o),
(80,584,qs),
(111,596,o),
(146,614,o),
(150,623,q),
(150,725,l),
(161,728,o),
(169,728,qs),
(192,728,o),
(222,696,o),
(222,676,qs),
(222,665,o),
(218,657,q),
(238,665,o),
(303,694,qs),
(356,720,o),
(433,751,o),
(471,758,q),
(483,758,o),
(516,717,o),
(541,661,o),
(541,643,qs),
(541,620,o),
(522,623,q),
(503,631,o),
(478,631,qs),
(447,631,o),
(380,610,o),
(331,590,qs),
(267,562,o),
(234,556,q),
(234,534,o),
(240,479,o),
(243,454,qs),
(252,393,o),
(252,353,q),
(269,359,o),
(300,377,qs),
(331,394,o),
(375,413,o),
(398,413,qs),
(418,413,o),
(437,404,q),
(458,404,o),
(514,365,o),
(514,349,qs),
(514,341,o),
(505,336,q),
(408,309,ls),
(329,287,o),
(271,261,o),
(249,209,o),
(249,148,qs),
(250,76,ls),
(252,30,o),
(252,-1,q)
);
}
);
userData = {
assembly = "NPUSHB[ ]	/* 29 values pushed */
49 42 2 2 4 68 56 50 24 4 6 2 63 1 5 6 80 76 19 3 7 0 86 81 2 8 7 5 76
MPPEM[ ]	/* MeasurePixelPerEm */
PUSHB[ ]	/* 1 value pushed */
26
LT[ ]	/* LessThan */
IF[ ]	/* If */
NPUSHB[ ]	/* 49 values pushed */
0 6 2 5 2 6 5 128 0 5 0 2 5 0 126 1 1 0 7 2 0 7 126 0 7 8 2 7 8 126 0 3 0 2 6 3 2 105 0 4 4 28 77 0 8 8 30 8 78
ELSE[ ]	/* Else */
NPUSHB[ ]	/* 55 values pushed */
0 6 2 5 2 6 5 128 0 5 1 2 5 1 126 0 1 0 2 1 0 126 0 0 7 2 0 7 126 0 7 8 2 7 8 126 0 3 0 2 6 3 2 105 0 4 4 28 77 0 8 8 30 8 78
EIF[ ]	/* EndIf */
NPUSHB[ ]	/* 12 values pushed */
36 43 19 45 25 22 45 33 27 9 8 31
CALL[ ]	/* CallFunction */";
};
width = 600;
}
);
note = F.ss01;
},
{
glyphname = G.ss01;
layers = (
{
.lastUpdate = 753955765.466;
layerId = m01;
shapes = (
{
closed = 1;
nodes = (
(559,313,o),
(599,137,o),
(599,35,qs),
(599,-27,o),
(586,-121,o),
(576,-132,q),
(560,-140,o),
(548,-140,qs),
(525,-140,o),
(508,-110,qs),
(505,-103,o),
(505,-84,qs),
(505,-65,o),
(512,2,o),
(516,36,qs),
(526,120,o),
(526,142,qs),
(526,159,o),
(523,162,q),
(494,89,o),
(367,3,o),
(293,3,qs),
(219,3,o),
(93,97,o),
(59,191,qs),
(32,260,o),
(32,337,qs),
(32,426,o),
(102,600,o),
(165,663,qs),
(241,739,o),
(329,739,qs),
(362,739,o),
(417,718,o),
(449,686,o),
(449,672,qs),
(449,665,o),
(447,662,qs),
(428,636,o),
(409,636,qs),
(402,636,o),
(384,643,o),
(375,648,qs),
(361,656,o),
(338,665,o),
(325,665,qs),
(301,665,o),
(272,647,q),
(196,580,o),
(111,393,o),
(111,291,qs),
(111,215,o),
(134,146,qs),
(148,108,o),
(208,71,o),
(247,71,qs),
(292,71,o),
(383,114,o),
(408,146,q),
(428,165,o),
(464,231,o),
(464,255,qs),
(464,272,o),
(454,282,q),
(433,283,o),
(323,286,o),
(276,286,qs),
(254,286,o),
(241,309,o),
(241,344,q),
(247,354,o),
(319,364,o),
(368,364,qs),
(421,364,o),
(509,353,o),
(516,344,q)
);
}
);
userData = {
assembly = "NPUSHB[ ]	/* 68 values pushed */
39 1 3 5 5 1 1 0 58 56 2 2 1 3 76 0 4 3 0 3 4 0 128 0 7 6 7 134 0 0 0 1 2 0 1 103 0 3 3 5 97 0 5 5 28 77 0 2 2 6 97 0 6 6 30 6 78 44 40 38 36 40 39 68 33 8 8 30
CALL[ ]	/* CallFunction */";
};
width = 600;
}
);
note = G.ss01;
},
{
glyphname = H.ss01;
layers = (
{
.lastUpdate = 753955765.466;
layerId = m01;
shapes = (
{
closed = 1;
nodes = (
(172,-49,o),
(166,-49,qs),
(149,-49,o),
(114,-24,o),
(91,12,o),
(91,27,q),
(79,100,o),
(73,245,o),
(73,354,q),
(38,371,o),
(0,397,o),
(0,409,q),
(12,421,o),
(50,427,o),
(73,427,q),
(73,462,o),
(67,579,o),
(64,636,qs),
(54,790,o),
(54,845,q),
(89,845,o),
(127,776,o),
(142,675,o),
(149,592,qs),
(152,558,o),
(159,488,o),
(163,463,q),
(169,463,o),
(214,475,o),
(238,482,qs),
(300,500,o),
(309,500,q),
(309,772,ls),
(309,844,o),
(334,844,qs),
(346,844,o),
(363,827,qs),
(400,790,o),
(400,536,q),
(487,534,ls),
(506,534,o),
(551,512,o),
(581,471,o),
(581,445,q),
(542,446,o),
(501,441,o),
(467,436,qs),
(437,431,o),
(400,427,q),
(400,409,o),
(411,319,qs),
(421,233,o),
(432,120,o),
(432,71,qs),
(432,-42,o),
(395,-42,qs),
(370,-42,o),
(327,9,q),
(309,27,o),
(309,232,qs),
(310,369,ls),
(310,404,o),
(309,409,q),
(233,372,o),
(163,372,q),
(163,303,o),
(172,190,qs),
(182,46,o),
(182,-45,q)
);
}
);
userData = {
assembly = "MPPEM[ ]	/* MeasurePixelPerEm */
PUSHB[ ]	/* 1 value pushed */
34
LT[ ]	/* LessThan */
IF[ ]	/* If */
NPUSHB[ ]	/* 22 values pushed */
56 5 2 0 7 62 59 1 3 1 0 2 76 19 1 7 1 75 68 1 1 73
ELSE[ ]	/* Else */
NPUSHB[ ]	/* 22 values pushed */
56 5 2 0 7 62 59 1 3 1 0 68 1 8 1 3 76 19 1 7 1 75
EIF[ ]	/* EndIf */
MPPEM[ ]	/* MeasurePixelPerEm */
PUSHB[ ]	/* 1 value pushed */
28
LT[ ]	/* LessThan */
IF[ ]	/* If */
NPUSHB[ ]	/* 42 values pushed */
6 1 4 3 4 133 0 2 5 7 5 2 7 128 0 7 0 5 7 0 126 0 0 1 5 0 1 126 0 3 8 1 1 3 1 101 0 5 5 29 5 78
ELSE[ ]	/* Else */
MPPEM[ ]	/* MeasurePixelPerEm */
PUSHB[ ]	/* 1 value pushed */
34
LT[ ]	/* LessThan */
IF[ ]	/* If */
NPUSHB[ ]	/* 52 values pushed */
6 1 4 3 4 133 0 5 3 2 3 5 2 128 0 2 7 3 2 7 126 0 7 0 3 7 0 126 0 0 1 3 0 1 126 0 3 5 1 3 87 0 3 3 1 97 8 1 1 3 1 81
ELSE[ ]	/* Else */
NPUSHB[ ]	/* 56 values pushed */
6 1 4 3 4 133 0 5 3 2 3 5 2 128 0 2 7 3 2 7 126 0 7 0 3 7 0 126 0 0 1 3 0 1 126 0 8 1 8 134 0 3 5 1 3 87 0 3 3 1 97 0 1 3 1 81
EIF[ ]	/* EndIf */
EIF[ ]	/* EndIf */
NPUSHB[ ]	/* 12 values pushed */
27 21 26 18 35 35 26 39 19 9 8 31
CALL[ ]	/* CallFunction */";
};
width = 600;
}
);
note = H.ss01;
},
{
glyphname = I.ss01;
layers = (
{
.lastUpdate = 753955765.466;
layerId = m01;
shapes = (
{
closed = 1;
nodes = (
(343,-28,o),
(333,-28,qs),
(312,-28,o),
(275,-6,o),
(252,26,o),
(252,41,qs),
(252,684,l),
(249,696,o),
(249,707,qs),
(249,725,o),
(266,746,o),
(281,746,qs),
(307,746,o),
(337,716,q),
(340,710,o),
(340,706,qs),
(340,701,o),
(322,695,o),
(315,692,o),
(315,683,qs),
(315,678,o),
(318,667,q),
(318,564,o),
(335,324,qs),
(341,228,o),
(352,35,o),
(352,-25,q)
);
}
);
userData = {
assembly = "PUSHB[ ]	/* 8 values pushed */
26 19 4 3 1 0 1 76
MPPEM[ ]	/* MeasurePixelPerEm */
PUSHB[ ]	/* 1 value pushed */
39
LT[ ]	/* LessThan */
IF[ ]	/* If */
NPUSHB[ ]	/* 11 values pushed */
0 0 0 28 77 0 1 1 27 1 78
ELSE[ ]	/* Else */
MPPEM[ ]	/* MeasurePixelPerEm */
PUSHB[ ]	/* 1 value pushed */
45
LT[ ]	/* LessThan */
IF[ ]	/* If */
NPUSHB[ ]	/* 11 values pushed */
0 0 1 0 133 0 1 1 27 1 78
ELSE[ ]	/* Else */
NPUSHB[ ]	/* 9 values pushed */
0 0 1 0 133 0 1 1 118
EIF[ ]	/* EndIf */
EIF[ ]	/* EndIf */
PUSHB[ ]	/* 5 values pushed */
40 45 2 8 24
CALL[ ]	/* CallFunction */";
};
width = 600;
}
);
note = I.ss01;
},
{
glyphname = J.ss01;
layers = (
{
.lastUpdate = 753955765.466;
layerId = m01;
shapes = (
{
closed = 1;
nodes = (
(395,-69,o),
(174,-24,o),
(-7,49,o),
(-7,93,qs),
(-7,97,o),
(-5,105,q),
(32,105,o),
(107,87,o),
(167,69,qs),
(226,51,o),
(307,33,o),
(346,33,qs),
(368,33,o),
(379,35,q),
(400,92,o),
(400,167,qs),
(400,249,o),
(359,425,o),
(318,561,qs),
(283,680,o),
(274,715,q),
(263,704,o),
(148,698,o),
(100,698,q),
(94,695,o),
(87,695,qs),
(70,695,o),
(35,722,o),
(35,735,qs),
(35,750,o),
(65,750,q),
(129,768,o),
(282,793,o),
(406,810,qs),
(483,820,l),
(498,820,o),
(544,805,o),
(578,780,o),
(578,767,qs),
(578,758,o),
(570,750,qs),
(564,744,o),
(507,737,o),
(454,733,qs),
(413,730,o),
(337,721,o),
(326,715,q),
(347,662,ls),
(416,489,o),
(511,191,o),
(511,79,qs),
(511,-50,o),
(431,-69,q)
);
}
);
userData = {
assembly = "MPPEM[ ]	/* MeasurePixelPerEm */
PUSHB[ ]	/* 1 value pushed */
39
LT[ ]	/* LessThan */
IF[ ]	/* If */
PUSHB[ ]	/* 6 values pushed */
5 1 2 1 1 76
ELSE[ ]	/* Else */
PUSHB[ ]	/* 6 values pushed */
5 1 3 1 1 76
EIF[ ]	/* EndIf */
MPPEM[ ]	/* MeasurePixelPerEm */
PUSHB[ ]	/* 1 value pushed */
26
LT[ ]	/* LessThan */
IF[ ]	/* If */
NPUSHB[ ]	/* 38 values pushed */
3 1 2 1 5 1 2 5 128 0 5 4 1 5 4 126 0 4 6 1 4 6 126 0 6 6 132 0 0 0 26 77 0 1 1 28 1 78
ELSE[ ]	/* Else */
MPPEM[ ]	/* MeasurePixelPerEm */
PUSHB[ ]	/* 1 value pushed */
28
LT[ ]	/* LessThan */
IF[ ]	/* If */
NPUSHB[ ]	/* 38 values pushed */
0 0 1 0 133 3 1 2 1 5 1 2 5 128 0 5 4 1 5 4 126 0 4 6 1 4 6 126 0 6 6 132 0 1 1 28 1 78
ELSE[ ]	/* Else */
MPPEM[ ]	/* MeasurePixelPerEm */
PUSHB[ ]	/* 1 value pushed */
39
LT[ ]	/* LessThan */
IF[ ]	/* If */
NPUSHB[ ]	/* 30 values pushed */
0 0 1 0 133 0 1 2 1 133 3 1 2 5 2 133 0 5 4 5 133 0 4 6 4 133 0 6 6 118
ELSE[ ]	/* Else */
NPUSHB[ ]	/* 34 values pushed */
0 0 1 0 133 0 1 3 1 133 0 3 2 3 133 0 2 5 2 133 0 5 4 5 133 0 4 6 4 133 0 6 6 118
EIF[ ]	/* EndIf */
EIF[ ]	/* EndIf */
EIF[ ]	/* EndIf */
NPUSHB[ ]	/* 17 values pushed */
52 51 46 45 41 39 30 28 26 25 22 21 17 16 7 8 22
CALL[ ]	/* CallFunction */";
};
width = 600;
}
);
note = J.ss01;
},
{
glyphname = K.ss01;
layers = (
{
.lastUpdate = 753955765.466;
layerId = m01;
shapes = (
{
closed = 1;
nodes = (
(176,-31,o),
(148,-27,o),
(136,-5,o),
(136,27,qs),
(137,64,l),
(138,142,ls),
(138,237,o),
(129,350,q),
(101,569,o),
(94,618,qs),
(78,747,o),
(68,844,q),
(69,852,o),
(83,852,qs),
(93,852,o),
(117,845,o),
(121,844,q),
(144,844,o),
(161,747,o),
(167,645,qs),
(170,579,o),
(179,494,o),
(188,470,q),
(215,502,o),
(265,683,o),
(274,793,q),
(282,797,o),
(292,797,qs),
(312,797,o),
(348,764,o),
(360,741,q),
(360,683,o),
(299,499,o),
(222,325,o),
(222,329,q),
(296,313,o),
(425,212,o),
(521,75,o),
(548,3,q),
(519,-21,o),
(498,-21,qs),
(476,-21,o),
(435,29,o),
(411,87,q),
(377,156,o),
(274,261,o),
(205,261,q),
(205,209,o),
(212,146,qs),
(222,58,o),
(222,-31,q)
);
}
);
userData = {
assembly = "NPUSHB[ ]	/* 12 values pushed */
27 19 15 3 0 2 11 1 1 0 2 76
MPPEM[ ]	/* MeasurePixelPerEm */
PUSHB[ ]	/* 1 value pushed */
24
LT[ ]	/* LessThan */
IF[ ]	/* If */
NPUSHB[ ]	/* 26 values pushed */
4 1 3 2 3 133 0 0 2 1 2 0 1 128 0 2 2 26 77 5 1 1 1 27 1 78
ELSE[ ]	/* Else */
MPPEM[ ]	/* MeasurePixelPerEm */
PUSHB[ ]	/* 1 value pushed */
30
LT[ ]	/* LessThan */
IF[ ]	/* If */
NPUSHB[ ]	/* 30 values pushed */
4 1 3 2 3 133 0 0 2 1 2 0 1 128 0 2 2 26 77 0 1 1 27 77 0 5 5 27 5 78
ELSE[ ]	/* Else */
MPPEM[ ]	/* MeasurePixelPerEm */
PUSHB[ ]	/* 1 value pushed */
34
LT[ ]	/* LessThan */
IF[ ]	/* If */
NPUSHB[ ]	/* 34 values pushed */
0 4 3 4 133 0 3 2 3 133 0 0 2 1 2 0 1 128 0 2 2 26 77 0 1 1 27 77 0 5 5 27 5 78
ELSE[ ]	/* Else */
NPUSHB[ ]	/* 34 values pushed */
0 4 3 4 133 0 3 2 3 133 0 0 2 1 2 0 1 128 0 5 1 5 134 0 2 2 26 77 0 1 1 27 1 78
EIF[ ]	/* EndIf */
EIF[ ]	/* EndIf */
EIF[ ]	/* EndIf */
NPUSHB[ ]	/* 9 values pushed */
28 34 25 43 36 19 6 8 28
CALL[ ]	/* CallFunction */";
};
width = 600;
}
);
note = K.ss01;
},
{
glyphname = L.ss01;
layers = (
{
.lastUpdate = 753955765.466;
layerId = m01;
shapes = (
{
closed = 1;
nodes = (
(255,-20,o),
(231,-20,qs),
(179,-20,o),
(124,76,o),
(103,202,o),
(97,294,qs),
(92,357,o),
(91,366,q),
(91,395,o),
(72,577,qs),
(66,631,o),
(56,729,o),
(56,742,qs),
(56,750,o),
(62,750,qs),
(73,750,o),
(115,708,o),
(116,697,q),
(160,469,l),
(237,80,l),
(275,133,o),
(359,222,o),
(426,287,qs),
(492,351,l),
(529,351,o),
(597,308,o),
(597,276,q),
(518,216,o),
(376,84,o),
(282,-10,q)
);
}
);
userData = {
assembly = "NPUSHB[ ]	/* 13 values pushed */
21 16 2 0 1 23 9 2 3 2 0 2 76
MPPEM[ ]	/* MeasurePixelPerEm */
PUSHB[ ]	/* 1 value pushed */
28
LT[ ]	/* LessThan */
IF[ ]	/* If */
NPUSHB[ ]	/* 19 values pushed */
0 0 1 2 1 0 2 128 0 1 1 28 77 0 2 2 27 2 78
ELSE[ ]	/* Else */
NPUSHB[ ]	/* 16 values pushed */
0 1 0 1 133 0 0 2 0 133 0 2 2 27 2 78
EIF[ ]	/* EndIf */
PUSHB[ ]	/* 6 values pushed */
44 24 20 3 8 25
CALL[ ]	/* CallFunction */";
};
width = 600;
}
);
note = L.ss01;
},
{
glyphname = M.ss01;
layers = (
{
.lastUpdate = 753955765.466;
layerId = m01;
shapes = (
{
closed = 1;
nodes = (
(575,-24,o),
(564,-24,qs),
(548,-24,o),
(509,-1,o),
(482,31,o),
(482,43,q),
(473,133,o),
(454,259,qs),
(446,319,o),
(429,447,o),
(424,497,q),
(415,450,ls),
(401,378,o),
(380,293,o),
(365,263,q),
(356,262,o),
(340,262,qs),
(286,262,o),
(211,308,o),
(153,390,o),
(108,469,q),
(123,387,o),
(145,156,o),
(145,87,q),
(141,78,o),
(131,78,qs),
(118,78,o),
(82,112,o),
(72,131,q),
(68,237,o),
(45,392,qs),
(29,508,o),
(23,578,qs),
(22,592,o),
(51,592,qs),
(70,592,o),
(87,585,q),
(131,560,o),
(192,494,o),
(235,437,qs),
(281,375,o),
(306,350,q),
(314,397,o),
(332,469,qs),
(341,508,o),
(360,593,o),
(365,631,qs),
(368,648,o),
(435,684,o),
(461,684,qs),
(479,684,o),
(482,673,qs),
(505,556,o),
(543,301,o),
(567,122,qs),
(585,-16,l)
);
}
);
userData = {
assembly = "NPUSHB[ ]	/* 52 values pushed */
44 34 13 3 3 1 31 26 2 2 3 55 49 2 4 2 3 76 0 0 1 0 133 0 1 3 1 133 0 3 2 3 133 0 2 4 2 133 0 4 4 27 4 78 45 39 39 45 36 5 8 27
CALL[ ]	/* CallFunction */";
};
width = 600;
}
);
note = M.ss01;
},
{
glyphname = N.ss01;
layers = (
{
.lastUpdate = 753955765.466;
layerId = m01;
shapes = (
{
closed = 1;
nodes = (
(149,-8,o),
(133,-8,qs),
(116,-8,o),
(102,9,o),
(99,40,o),
(99,76,q),
(91,203,o),
(61,371,o),
(38,467,qs),
(17,553,o),
(11,597,q),
(11,690,l),
(18,702,o),
(42,702,qs),
(62,702,o),
(92,685,o),
(86,673,q),
(115,636,o),
(184,533,o),
(217,483,qs),
(300,354,o),
(423,192,o),
(496,135,q),
(496,247,o),
(489,394,o),
(456,557,o),
(421,635,q),
(429,659,o),
(454,659,qs),
(470,659,o),
(508,639,o),
(534,610,o),
(534,597,q),
(547,571,o),
(580,415,o),
(603,227,o),
(603,154,qs),
(603,36,o),
(571,19,q),
(489,40,o),
(359,146,o),
(263,276,o),
(198,380,qs),
(139,473,o),
(115,507,q),
(197,172,o),
(197,59,qs),
(197,5,o),
(179,1,qs)
);
}
);
userData = {
assembly = "NPUSHB[ ]	/* 38 values pushed */
36 1 0 1 37 25 15 3 4 2 0 2 76 0 1 0 1 133 0 0 2 0 133 0 2 2 30 2 78 47 45 35 33 20 18 3 8 22
CALL[ ]	/* CallFunction */";
};
width = 600;
}
);
note = N.ss01;
},
{
glyphname = Ntilde.ss01;
layers = (
{
.lastUpdate = 753955765.466;
layerId = m01;
shapes = (
{
closed = 1;
nodes = (
(435,643,o),
(382,643,qs),
(351,643,o),
(290,656,o),
(244,669,qs),
(198,682,o),
(136,695,o),
(105,695,qs),
(70,695,o),
(39,685,q),
(34,674,o),
(20,674,qs),
(2,674,o),
(-42,708,o),
(-42,718,q),
(3,750,o),
(68,750,qs),
(94,750,o),
(146,742,o),
(190,733,qs),
(266,716,o),
(305,716,qs),
(314,716,o),
(334,718,qs),
(355,718,o),
(391,731,o),
(415,744,qs),
(447,760,o),
(465,766,q),
(492,759,o),
(522,732,o),
(522,716,qs),
(522,703,o),
(502,678,o),
(481,668,qs)
);
},
{
closed = 1;
nodes = (
(179,-9,o),
(163,-9,qs),
(142,-9,o),
(133,20,o),
(133,64,q),
(126,178,o),
(98,346,o),
(78,438,qs),
(61,518,o),
(56,554,q),
(56,635,l),
(59,641,o),
(67,641,qs),
(77,641,o),
(108,622,o),
(126,596,o),
(122,587,q),
(147,555,o),
(207,466,o),
(235,423,qs),
(307,311,o),
(416,167,o),
(481,116,q),
(481,214,o),
(474,343,o),
(446,485,o),
(415,554,q),
(422,575,o),
(444,575,qs),
(466,575,o),
(514,538,o),
(514,521,q),
(525,498,o),
(554,361,o),
(574,196,o),
(574,132,qs),
(574,27,o),
(546,14,q),
(474,32,o),
(360,125,o),
(275,240,o),
(218,332,qs),
(185,387,o),
(147,442,q),
(219,147,o),
(219,49,qs),
(219,1,o),
(203,-2,qs)
);
}
);
userData = {
assembly = "NPUSHB[ ]	/* 22 values pushed */
71 1 6 7 72 59 50 38 4 8 6 2 76 19 1 0 1 75 5 1 2 74
MPPEM[ ]	/* MeasurePixelPerEm */
PUSHB[ ]	/* 1 value pushed */
28
LT[ ]	/* LessThan */
IF[ ]	/* If */
NPUSHB[ ]	/* 49 values pushed */
0 4 0 3 3 4 114 0 7 5 6 5 7 6 128 0 6 8 5 6 8 126 0 3 3 2 98 0 2 2 28 77 0 5 5 0 97 1 1 0 0 28 77 0 8 8 30 8 78
ELSE[ ]	/* Else */
MPPEM[ ]	/* MeasurePixelPerEm */
PUSHB[ ]	/* 1 value pushed */
32
LT[ ]	/* LessThan */
IF[ ]	/* If */
NPUSHB[ ]	/* 47 values pushed */
0 4 0 3 3 4 114 0 7 5 6 5 7 6 128 0 6 8 5 6 8 126 0 2 0 3 5 2 3 105 0 5 5 0 97 1 1 0 0 28 77 0 8 8 30 8 78
ELSE[ ]	/* Else */
NPUSHB[ ]	/* 45 values pushed */
0 4 0 3 3 4 114 0 7 5 6 5 7 6 128 0 6 8 5 6 8 126 0 2 0 3 5 2 3 105 1 1 0 0 5 7 0 5 105 0 8 8 30 8 78
EIF[ ]	/* EndIf */
EIF[ ]	/* EndIf */
NPUSHB[ ]	/* 15 values pushed */
81 79 69 68 54 52 36 34 35 35 33 25 9 8 28
CALL[ ]	/* CallFunction */";
};
width = 600;
}
);
note = Ntilde.ss01;
},
{
glyphname = O.ss01;
layers = (
{
.lastUpdate = 753955765.466;
layerId = m01;
shapes = (
{
closed = 1;
nodes = (
(310,-27,o),
(284,-27,qs),
(188,-27,o),
(66,94,o),
(13,276,o),
(13,372,qs),
(13,402,o),
(16,429,qs),
(24,517,o),
(108,696,o),
(247,814,o),
(334,814,qs),
(350,814,o),
(408,787,o),
(453,746,o),
(453,725,q),
(451,714,l),
(516,714,o),
(581,590,o),
(581,489,qs),
(581,387,o),
(518,165,o),
(405,-2,o),
(334,-23,q)
);
},
{
closed = 1;
nodes = (
(304,72,o),
(414,208,o),
(463,405,o),
(463,513,qs),
(463,620,o),
(442,706,q),
(433,702,o),
(423,702,qs),
(406,702,o),
(384,728,o),
(384,747,q),
(302,732,o),
(181,611,o),
(118,438,o),
(118,344,qs),
(118,262,o),
(168,114,o),
(217,61,q)
);
}
);
userData = {
assembly = "NPUSHB[ ]	/* 15 values pushed */
30 7 2 0 1 35 1 3 0 41 1 2 3 3 76
MPPEM[ ]	/* MeasurePixelPerEm */
PUSHB[ ]	/* 1 value pushed */
26
LT[ ]	/* LessThan */
IF[ ]	/* If */
NPUSHB[ ]	/* 24 values pushed */
0 3 0 2 0 3 2 128 0 1 1 26 77 0 0 0 28 77 0 2 2 27 2 78
ELSE[ ]	/* Else */
MPPEM[ ]	/* MeasurePixelPerEm */
PUSHB[ ]	/* 1 value pushed */
39
LT[ ]	/* LessThan */
IF[ ]	/* If */
NPUSHB[ ]	/* 26 values pushed */
0 0 1 3 1 0 3 128 0 3 2 1 3 2 126 0 1 1 26 77 0 2 2 27 2 78
ELSE[ ]	/* Else */
MPPEM[ ]	/* MeasurePixelPerEm */
PUSHB[ ]	/* 1 value pushed */
49
LT[ ]	/* LessThan */
IF[ ]	/* If */
NPUSHB[ ]	/* 21 values pushed */
0 1 0 1 133 0 0 3 0 133 0 3 2 3 133 0 2 2 27 2 78
ELSE[ ]	/* Else */
NPUSHB[ ]	/* 19 values pushed */
0 1 0 1 133 0 0 3 0 133 0 3 2 3 133 0 2 2 118
EIF[ ]	/* EndIf */
EIF[ ]	/* EndIf */
EIF[ ]	/* EndIf */
PUSHB[ ]	/* 7 values pushed */
42 40 36 21 4 8 26
CALL[ ]	/* CallFunction */";
};
width = 600;
}
);
note = O.ss01;
},
{
glyphname = P.ss01;
layers = (
{
.lastUpdate = 753955765.466;
layerId = m01;
shapes = (
{
closed = 1;
nodes = (
(164,-9,o),
(151,-9,qs),
(134,-9,o),
(107,19,o),
(91,57,o),
(91,68,qs),
(91,102,o),
(83,324,qs),
(74,524,o),
(74,580,q),
(36,606,o),
(36,632,qs),
(36,657,o),
(74,683,q),
(74,702,o),
(88,724,o),
(101,724,qs),
(112,724,o),
(125,717,q),
(194,758,o),
(264,758,qs),
(338,758,o),
(459,669,o),
(529,526,o),
(529,450,qs),
(529,377,o),
(459,253,o),
(309,173,o),
(194,170,q),
(196,130,ls),
(198,98,o),
(198,79,qs),
(198,21,o),
(177,0,q)
);
},
{
closed = 1;
nodes = (
(170,557,o),
(177,452,qs),
(185,334,o),
(194,273,q),
(214,271,o),
(224,271,qs),
(287,271,o),
(385,335,o),
(438,439,o),
(438,498,qs),
(438,559,o),
(408,614,q),
(381,675,o),
(309,675,qs),
(246,675,o),
(160,632,q)
);
}
);
userData = {
assembly = "NPUSHB[ ]	/* 48 values pushed */
19 14 2 4 2 49 23 2 5 4 2 76 0 1 0 4 5 1 4 105 0 5 0 0 3 5 0 105 0 2 2 28 77 0 3 3 30 3 78 38 34 45 34 38 20 6 8 28
CALL[ ]	/* CallFunction */";
};
width = 600;
}
);
note = P.ss01;
},
{
glyphname = Q.ss01;
layers = (
{
.lastUpdate = 753955765.466;
layerId = m01;
shapes = (
{
closed = 1;
nodes = (
(591,-89,o),
(579,-89,qs),
(552,-89,o),
(501,-41,o),
(462,24,o),
(454,50,q),
(376,13,o),
(307,13,qs),
(215,13,o),
(75,130,o),
(0,319,o),
(0,424,qs),
(0,522,o),
(69,695,o),
(136,751,q),
(210,801,o),
(281,801,qs),
(365,801,o),
(495,664,o),
(566,449,o),
(566,339,qs),
(566,267,o),
(535,144,o),
(504,101,q),
(517,75,o),
(547,29,qs),
(571,-8,o),
(596,-56,o),
(603,-83,q)
);
},
{
closed = 1;
nodes = (
(230,95,o),
(253,95,qs),
(290,95,o),
(359,124,o),
(386,151,q),
(374,163,o),
(356,185,qs),
(339,205,o),
(317,227,o),
(303,234,q),
(296,241,o),
(276,256,o),
(265,268,o),
(265,274,qs),
(265,279,o),
(270,284,q),
(275,286,o),
(286,286,qs),
(307,286,o),
(346,261,o),
(378,234,qs),
(406,210,o),
(420,201,q),
(461,304,o),
(461,421,qs),
(461,500,o),
(423,652,o),
(386,717,q),
(361,725,o),
(331,725,qs),
(260,725,o),
(154,619,o),
(98,452,o),
(98,362,qs),
(98,276,o),
(152,136,o),
(204,101,q)
);
}
);
userData = {
assembly = "NPUSHB[ ]	/* 16 values pushed */
60 42 4 3 5 4 22 1 1 5 28 1 2 1 3 76
MPPEM[ ]	/* MeasurePixelPerEm */
PUSHB[ ]	/* 1 value pushed */
30
LT[ ]	/* LessThan */
IF[ ]	/* If */
NPUSHB[ ]	/* 34 values pushed */
0 4 3 5 3 4 5 128 0 2 1 2 134 0 3 3 0 97 0 0 0 26 77 0 5 5 1 98 0 1 1 30 1 78
ELSE[ ]	/* Else */
NPUSHB[ ]	/* 32 values pushed */
0 4 3 5 3 4 5 128 0 2 1 2 134 0 5 0 1 2 5 1 106 0 3 3 0 97 0 0 0 26 3 78
EIF[ ]	/* EndIf */
NPUSHB[ ]	/* 9 values pushed */
46 42 39 36 39 42 6 8 28
CALL[ ]	/* CallFunction */";
};
width = 600;
}
);
note = Q.ss01;
},
{
glyphname = R.ss01;
layers = (
{
.lastUpdate = 753955765.466;
layerId = m01;
shapes = (
{
closed = 1;
nodes = (
(715,-39,o),
(683,-39,qs),
(643,-39,o),
(517,49,o),
(414,135,qs),
(322,212,o),
(209,295,o),
(164,310,q),
(164,284,o),
(174,217,o),
(179,185,qs),
(194,108,o),
(194,64,qs),
(194,22,o),
(182,-7,q),
(170,-11,o),
(156,-11,qs),
(128,-11,o),
(88,29,o),
(76,64,q),
(76,81,o),
(74,189,o),
(66,283,o),
(58,275,q),
(32,262,o),
(19,262,qs),
(-12,262,o),
(-12,328,qs),
(-12,343,o),
(8,358,o),
(29,366,qs),
(52,374,o),
(58,381,q),
(58,421,o),
(50,517,qs),
(47,557,o),
(41,644,o),
(41,680,q),
(26,665,o),
(5,617,o),
(5,592,q),
(4,585,o),
(-55,618,o),
(-65,627,q),
(-65,685,o),
(29,766,o),
(169,806,o),
(237,806,qs),
(265,806,o),
(287,803,q),
(352,789,o),
(412,716,o),
(412,662,qs),
(412,608,o),
(357,482,o),
(274,374,o),
(234,345,q),
(288,333,o),
(505,196,o),
(702,36,o),
(728,-7,q)
);
},
{
closed = 1;
nodes = (
(127,667,o),
(153,456,o),
(164,433,q),
(235,490,o),
(323,646,o),
(323,733,q),
(289,734,ls),
(259,736,o),
(241,736,qs),
(201,736,o),
(143,720,o),
(129,698,q)
);
}
);
userData = {
assembly = "NPUSHB[ ]	/* 17 values pushed */
72 69 52 27 22 16 3 7 1 4 60 40 2 2 1 2 76
MPPEM[ ]	/* MeasurePixelPerEm */
PUSHB[ ]	/* 1 value pushed */
22
LT[ ]	/* LessThan */
IF[ ]	/* If */
NPUSHB[ ]	/* 29 values pushed */
0 1 4 2 4 1 2 128 0 4 4 0 97 0 0 0 26 77 0 2 2 27 77 0 3 3 27 3 78
ELSE[ ]	/* Else */
NPUSHB[ ]	/* 29 values pushed */
0 1 4 2 4 1 2 128 0 3 2 3 134 0 4 4 0 97 0 0 0 26 77 0 2 2 27 2 78
EIF[ ]	/* EndIf */
NPUSHB[ ]	/* 12 values pushed */
66 62 59 57 44 42 35 33 43 5 8 23
CALL[ ]	/* CallFunction */";
};
width = 600;
}
);
note = R.ss01;
},
{
glyphname = S.ss01;
layers = (
{
.lastUpdate = 753955765.466;
layerId = m01;
shapes = (
{
closed = 1;
nodes = (
(292,-21,o),
(252,-21,qs),
(202,-21,o),
(101,2,o),
(33,52,o),
(33,90,qs),
(33,102,o),
(42,113,o),
(64,122,o),
(68,125,qs),
(73,130,o),
(81,130,qs),
(99,130,o),
(138,93,o),
(138,72,q),
(154,70,o),
(163,70,qs),
(218,70,o),
(345,124,o),
(432,214,o),
(432,265,qs),
(432,292,o),
(419,318,q),
(395,342,o),
(325,381,o),
(270,406,qs),
(210,434,o),
(144,471,o),
(121,494,qs),
(79,536,o),
(79,589,qs),
(79,638,o),
(147,738,o),
(249,813,o),
(297,827,qs),
(302,828,o),
(311,828,qs),
(345,828,o),
(410,785,o),
(451,730,o),
(451,717,qs),
(451,711,o),
(446,711,qs),
(430,711,o),
(384,757,q),
(352,757,o),
(257,693,o),
(187,599,o),
(187,557,qs),
(187,505,o),
(244,476,qs),
(262,467,o),
(310,447,qs),
(380,418,o),
(472,367,o),
(539,287,o),
(542,230,qs),
(542,170,o),
(480,64,o),
(375,-7,o),
(314,-15,q)
);
}
);
userData = {
assembly = "NPUSHB[ ]	/* 53 values pushed */
19 1 1 0 45 1 3 4 2 76 0 2 0 2 133 0 0 1 0 133 0 1 4 1 133 0 4 3 4 133 0 3 3 5 97 0 5 5 27 5 78 59 57 48 47 44 42 37 17 30 6 8 25
CALL[ ]	/* CallFunction */";
};
width = 600;
}
);
note = S.ss01;
},
{
glyphname = T.ss01;
layers = (
{
.lastUpdate = 753955765.466;
layerId = m01;
shapes = (
{
closed = 1;
nodes = (
(393,2,o),
(348,61,o),
(338,138,o),
(338,192,q),
(314,322,ls),
(296,424,o),
(271,548,o),
(250,616,q),
(236,630,l),
(215,624,o),
(180,622,qs),
(149,620,o),
(116,613,o),
(104,601,q),
(90,601,ls),
(68,601,o),
(15,632,o),
(15,650,qs),
(15,657,o),
(17,660,q),
(27,670,o),
(109,689,o),
(134,689,q),
(204,706,o),
(331,729,qs),
(451,751,o),
(499,762,q),
(523,762,o),
(577,738,o),
(587,718,q),
(587,689,l),
(572,674,o),
(528,674,q),
(497,664,o),
(331,645,o),
(294,645,q),
(319,607,o),
(392,366,o),
(445,106,o),
(445,40,qs),
(445,15,o),
(440,2,q)
);
}
);
userData = {
assembly = "NPUSHB[ ]	/* 65 values pushed */
11 1 3 2 23 1 0 1 37 1 6 4 3 76 10 1 3 1 75 0 2 3 2 133 0 3 1 3 133 0 1 0 1 133 0 0 5 0 133 0 5 4 5 133 0 4 6 4 133 0 6 6 30 6 78 25 34 38 20 20 18 21 7 8 29
CALL[ ]	/* CallFunction */";
};
width = 600;
}
);
note = T.ss01;
},
{
glyphname = U.ss01;
layers = (
{
.lastUpdate = 753955765.466;
layerId = m01;
shapes = (
{
closed = 1;
nodes = (
(287,3,o),
(115,248,o),
(27,575,o),
(16,710,qs),
(12,747,l),
(12,763,o),
(22,763,qs),
(26,763,o),
(33,760,q),
(39,762,o),
(43,762,qs),
(57,762,o),
(90,739,o),
(113,706,o),
(113,693,qs),
(113,681,o),
(103,677,q),
(135,499,o),
(228,213,o),
(310,101,q),
(383,241,o),
(448,569,o),
(448,743,q),
(459,753,o),
(476,753,qs),
(501,753,o),
(558,714,o),
(569,693,q),
(573,652,o),
(573,593,qs),
(573,427,o),
(495,99,o),
(413,3,q)
);
}
);
userData = {
assembly = "MPPEM[ ]	/* MeasurePixelPerEm */
PUSHB[ ]	/* 1 value pushed */
24
LT[ ]	/* LessThan */
IF[ ]	/* If */
NPUSHB[ ]	/* 12 values pushed */
27 12 9 3 3 0 1 76 23 1 0 74
ELSE[ ]	/* Else */
MPPEM[ ]	/* MeasurePixelPerEm */
PUSHB[ ]	/* 1 value pushed */
26
LT[ ]	/* LessThan */
IF[ ]	/* If */
NPUSHB[ ]	/* 12 values pushed */
23 1 0 2 27 12 9 3 3 0 2 76
ELSE[ ]	/* Else */
NPUSHB[ ]	/* 12 values pushed */
23 1 0 1 27 12 9 3 3 0 2 76
EIF[ ]	/* EndIf */
EIF[ ]	/* EndIf */
MPPEM[ ]	/* MeasurePixelPerEm */
PUSHB[ ]	/* 1 value pushed */
24
LT[ ]	/* LessThan */
IF[ ]	/* If */
NPUSHB[ ]	/* 13 values pushed */
2 1 2 0 0 28 77 0 3 3 30 3 78
ELSE[ ]	/* Else */
MPPEM[ ]	/* MeasurePixelPerEm */
PUSHB[ ]	/* 1 value pushed */
26
LT[ ]	/* LessThan */
IF[ ]	/* If */
NPUSHB[ ]	/* 17 values pushed */
0 2 0 2 133 1 1 0 3 0 133 0 3 3 30 3 78
ELSE[ ]	/* Else */
NPUSHB[ ]	/* 17 values pushed */
2 1 1 0 1 133 0 0 3 0 133 0 3 3 30 3 78
EIF[ ]	/* EndIf */
EIF[ ]	/* EndIf */
PUSHB[ ]	/* 7 values pushed */
21 35 28 38 4 8 26
CALL[ ]	/* CallFunction */";
};
width = 600;
}
);
note = U.ss01;
},
{
glyphname = V.ss01;
layers = (
{
.lastUpdate = 753955765.466;
layerId = m01;
shapes = (
{
closed = 1;
nodes = (
(422,-9,o),
(404,-9,qs),
(366,-9,o),
(294,58,o),
(265,102,q),
(184,249,o),
(19,571,o),
(-27,686,q),
(-20,706,o),
(-5,706,qs),
(24,706,o),
(125,558,o),
(219,380,o),
(285,249,qs),
(325,167,o),
(334,153,q),
(357,271,o),
(445,515,o),
(506,652,q),
(515,661,o),
(530,661,qs),
(549,661,o),
(595,631,o),
(626,586,o),
(626,566,q),
(593,499,o),
(542,346,o),
(513,239,qs),
(495,176,o),
(456,47,o),
(437,-1,q)
);
}
);
userData = {
assembly = "NPUSHB[ ]	/* 29 values pushed */
14 5 2 2 0 1 76 0 1 0 1 133 0 0 2 0 133 0 2 2 30 2 78 38 41 40 3 8 25
CALL[ ]	/* CallFunction */";
};
width = 600;
}
);
note = V.ss01;
},
{
glyphname = W.ss01;
layers = (
{
.lastUpdate = 753955765.466;
layerId = m01;
shapes = (
{
closed = 1;
nodes = (
(258,-2,ls),
(229,-2,o),
(196,20,o),
(172,68,o),
(150,125,qs),
(117,209,o),
(68,323,o),
(26,405,q),
(3,462,ls),
(-13,498,o),
(-31,548,o),
(-31,564,qs),
(-31,586,o),
(-11,586,qs),
(6,586,o),
(41,570,q),
(61,540,o),
(190,253,o),
(220,180,q),
(224,243,o),
(248,298,o),
(268,298,qs),
(287,298,o),
(335,261,o),
(374,224,qs),
(406,192,o),
(430,173,q),
(454,280,o),
(475,446,qs),
(489,546,o),
(506,655,o),
(521,719,q),
(536,766,o),
(574,766,qs),
(591,766,o),
(630,749,o),
(655,735,q),
(622,602,o),
(596,476,o),
(585,405,qs),
(578,362,o),
(556,241,o),
(536,150,qs),
(523,84,o),
(494,25,o),
(473,25,qs),
(451,25,o),
(394,75,o),
(332,140,qs),
(314,159,l),
(310,134,o),
(308,87,qs),
(306,49,o),
(300,12,o),
(289,0,q)
);
}
);
userData = {
assembly = "NPUSHB[ ]	/* 49 values pushed */
17 1 3 1 35 27 4 3 0 2 2 76 0 1 3 1 133 0 3 2 3 133 0 0 2 4 2 0 4 128 0 2 2 4 97 0 4 4 30 4 78 43 38 42 42 39 5 8 27
CALL[ ]	/* CallFunction */";
};
width = 600;
}
);
note = W.ss01;
},
{
glyphname = X.ss01;
layers = (
{
.lastUpdate = 753955765.466;
layerId = m01;
shapes = (
{
closed = 1;
nodes = (
(-8,62,o),
(-8,106,qs),
(-8,125,o),
(16,171,o),
(39,206,qs),
(68,252,o),
(73,262,q),
(93,282,o),
(218,467,o),
(231,492,q),
(223,506,o),
(176,560,qs),
(103,649,o),
(38,737,o),
(44,750,q),
(52,756,o),
(68,756,qs),
(88,756,o),
(130,743,o),
(142,732,qs),
(167,707,o),
(204,657,o),
(232,615,qs),
(261,571,o),
(274,555,q),
(294,575,o),
(346,651,qs),
(385,707,o),
(438,776,o),
(460,793,q),
(472,793,o),
(518,760,o),
(518,750,q),
(512,739,o),
(510,720,qs),
(507,704,o),
(500,690,o),
(490,690,qs),
(484,690,o),
(475,693,q),
(432,586,o),
(361,469,q),
(371,456,o),
(404,407,qs),
(460,320,o),
(503,276,qs),
(516,262,o),
(531,216,o),
(531,196,qs),
(531,164,o),
(514,164,q),
(506,166,l),
(467,185,o),
(408,261,o),
(371,323,qs),
(335,384,o),
(317,405,q),
(305,389,o),
(251,299,qs),
(188,192,o),
(99,60,o),
(73,47,q)
);
}
);
userData = {
assembly = "NPUSHB[ ]	/* 17 values pushed */
28 1 1 3 51 36 19 4 4 0 1 2 76 61 1 0 73
MPPEM[ ]	/* MeasurePixelPerEm */
PUSHB[ ]	/* 1 value pushed */
22
LT[ ]	/* LessThan */
IF[ ]	/* If */
NPUSHB[ ]	/* 23 values pushed */
0 1 3 0 3 1 0 128 0 0 0 132 0 2 2 26 77 0 3 3 28 3 78
ELSE[ ]	/* Else */
NPUSHB[ ]	/* 25 values pushed */
0 3 2 1 2 3 1 128 0 1 0 2 1 0 126 0 0 0 132 0 2 2 26 2 78
EIF[ ]	/* EndIf */
PUSHB[ ]	/* 7 values pushed */
44 22 43 26 4 8 26
CALL[ ]	/* CallFunction */";
};
width = 600;
}
);
note = X.ss01;
},
{
glyphname = Y.ss01;
layers = (
{
.lastUpdate = 753955765.466;
layerId = m01;
shapes = (
{
closed = 1;
nodes = (
(253,-19,o),
(197,23,o),
(197,47,q),
(191,59,o),
(226,157,o),
(267,256,qs),
(298,329,o),
(329,411,o),
(329,426,q),
(206,544,o),
(66,712,o),
(66,733,qs),
(66,748,o),
(135,703,o),
(269,577,o),
(362,476,q),
(370,500,o),
(396,563,o),
(409,593,qs),
(437,656,o),
(470,747,o),
(477,789,q),
(477,800,o),
(485,800,qs),
(494,800,o),
(530,770,o),
(543,756,q),
(543,697,o),
(505,564,o),
(469,463,qs),
(444,393,ls),
(434,366,o),
(412,280,qs),
(378,147,o),
(319,-12,o),
(279,-19,q)
);
}
);
userData = {
assembly = "NPUSHB[ ]	/* 26 values pushed */
32 26 19 8 4 1 0 1 76 0 0 0 26 77 0 1 1 27 1 78 35 34 26 2 8 23
CALL[ ]	/* CallFunction */";
};
width = 600;
}
);
note = Y.ss01;
},
{
glyphname = Z.ss01;
layers = (
{
.lastUpdate = 753955765.466;
layerId = m01;
shapes = (
{
closed = 1;
nodes = (
(206,15,o),
(169,15,qs),
(94,15,o),
(12,86,o),
(12,145,qs),
(12,182,o),
(47,267,o),
(81,310,q),
(26,333,o),
(26,352,qs),
(26,363,o),
(59,378,o),
(94,389,qs),
(115,395,l),
(155,456,o),
(230,555,qs),
(308,659,o),
(334,698,q),
(318,698,o),
(216,690,qs),
(116,682,o),
(98,682,q),
(82,679,o),
(28,699,o),
(28,713,qs),
(28,727,o),
(107,755,o),
(198,766,qs),
(275,773,ls),
(349,779,o),
(364,779,qs),
(408,779,o),
(444,746,o),
(452,698,q),
(432,659,o),
(383,588,o),
(342,535,qs),
(288,465,o),
(266,429,q),
(320,397,o),
(320,376,qs),
(320,359,o),
(269,340,o),
(215,327,q),
(119,196,o),
(98,91,q),
(144,96,o),
(237,128,o),
(307,157,qs),
(392,192,o),
(499,226,o),
(554,226,q),
(563,217,o),
(589,194,o),
(607,168,o),
(607,155,qs),
(607,149,o),
(604,141,q),
(557,134,o),
(462,103,o),
(391,75,qs),
(309,42,o),
(249,24,q)
);
}
);
userData = {
assembly = "NPUSHB[ ]	/* 16 values pushed */
54 23 2 0 2 16 1 4 0 2 76 28 1 3 1 75
MPPEM[ ]	/* MeasurePixelPerEm */
PUSHB[ ]	/* 1 value pushed */
22
LT[ ]	/* LessThan */
IF[ ]	/* If */
NPUSHB[ ]	/* 33 values pushed */
0 3 1 2 1 3 2 128 0 2 0 1 2 0 126 0 0 4 1 0 4 126 0 1 1 26 77 0 4 4 30 4 78
ELSE[ ]	/* Else */
MPPEM[ ]	/* MeasurePixelPerEm */
PUSHB[ ]	/* 1 value pushed */
28
LT[ ]	/* LessThan */
IF[ ]	/* If */
NPUSHB[ ]	/* 26 values pushed */
0 1 3 1 133 0 3 2 3 133 0 2 0 2 133 0 0 4 0 133 0 4 4 30 4 78
ELSE[ ]	/* Else */
NPUSHB[ ]	/* 24 values pushed */
0 1 3 1 133 0 3 2 3 133 0 2 0 2 133 0 0 4 0 133 0 4 4 118
EIF[ ]	/* EndIf */
EIF[ ]	/* EndIf */
NPUSHB[ ]	/* 12 values pushed */
61 59 44 43 41 40 32 30 26 5 8 23
CALL[ ]	/* CallFunction */";
};
width = 600;
}
);
note = Z.ss01;
},
{
glyphname = A.ss02;
layers = (
{
.lastUpdate = 753955765.466;
layerId = m01;
shapes = (
{
closed = 1;
nodes = (
(442,17,o),
(418,115,o),
(406,160,qs),
(383,251,o),
(376,283,q),
(359,283,o),
(271,255,o),
(188,220,o),
(179,211,q),
(167,182,o),
(144,110,o),
(134,76,qs),
(111,-5,o),
(89,-59,q),
(89,-64,o),
(82,-64,qs),
(68,-64,o),
(17,-34,o),
(17,-23,qs),
(17,3,o),
(35,64,o),
(53,109,qs),
(62,133,o),
(71,157,q),
(67,161,o),
(51,171,qs),
(31,185,o),
(13,203,o),
(13,215,qs),
(13,222,o),
(17,229,q),
(17,241,o),
(73,265,o),
(89,265,q),
(132,480,o),
(232,749,q),
(250,777,o),
(276,777,qs),
(295,777,o),
(331,750,o),
(340,732,q),
(346,712,o),
(363,653,o),
(373,617,qs),
(417,453,o),
(430,426,q),
(441,426,o),
(460,440,o),
(466,444,q),
(489,434,ls),
(529,417,o),
(574,383,o),
(574,354,qs),
(574,346,o),
(531,330,o),
(477,319,o),
(466,319,q),
(502,193,o),
(544,19,o),
(556,-77,q),
(563,-90,o),
(563,-97,qs),
(563,-107,o),
(552,-107,qs),
(539,-107,o),
(494,-80,o),
(454,-41,o),
(448,-23,q)
);
},
{
closed = 1;
nodes = (
(265,569,o),
(236,457,qs),
(209,356,o),
(197,319,q),
(210,332,o),
(327,390,o),
(340,390,q),
(333,417,o),
(313,507,qs),
(297,581,o),
(286,624,q)
);
}
);
userData = {
assembly = "NPUSHB[ ]	/* 20 values pushed */
78 18 2 2 3 36 1 5 4 5 1 0 5 3 76 74 1 1 1 75
MPPEM[ ]	/* MeasurePixelPerEm */
PUSHB[ ]	/* 1 value pushed */
9
LT[ ]	/* LessThan */
IF[ ]	/* If */
NPUSHB[ ]	/* 46 values pushed */
0 3 2 3 133 0 2 7 2 133 0 7 1 7 133 0 1 6 1 133 0 6 4 6 133 0 0 5 0 134 0 4 5 5 4 89 0 4 4 5 97 0 5 4 5 81
ELSE[ ]	/* Else */
MPPEM[ ]	/* MeasurePixelPerEm */
PUSHB[ ]	/* 1 value pushed */
20
LT[ ]	/* LessThan */
IF[ ]	/* If */
NPUSHB[ ]	/* 48 values pushed */
0 2 3 7 3 2 7 128 0 7 1 3 7 1 126 0 1 6 3 1 6 126 0 6 4 3 6 4 126 0 0 5 0 134 0 4 0 5 0 4 5 105 0 3 3 26 3 78
ELSE[ ]	/* Else */
NPUSHB[ ]	/* 46 values pushed */
0 3 2 3 133 0 2 7 2 133 0 7 1 7 133 0 1 6 1 133 0 6 4 6 133 0 0 5 0 134 0 4 5 5 4 89 0 4 4 5 97 0 5 4 5 81
EIF[ ]	/* EndIf */
EIF[ ]	/* EndIf */
NPUSHB[ ]	/* 14 values pushed */
72 71 62 61 51 50 19 39 25 22 34 8 8 27
CALL[ ]	/* CallFunction */";
};
width = 600;
}
);
note = A.ss02;
},
{
glyphname = Aacute.ss02;
layers = (
{
.lastUpdate = 753955765.466;
layerId = m01;
shapes = (
{
closed = 1;
nodes = (
(442,17,o),
(418,115,o),
(406,160,qs),
(383,251,o),
(376,283,q),
(359,283,o),
(271,255,o),
(188,220,o),
(179,211,q),
(167,182,o),
(144,110,o),
(134,76,qs),
(111,-5,o),
(89,-59,q),
(89,-64,o),
(82,-64,qs),
(68,-64,o),
(17,-34,o),
(17,-23,qs),
(17,3,o),
(35,64,o),
(53,109,qs),
(62,133,o),
(71,157,q),
(67,161,o),
(51,171,qs),
(31,185,o),
(13,203,o),
(13,215,qs),
(13,222,o),
(17,229,q),
(17,241,o),
(73,265,o),
(89,265,q),
(132,480,o),
(232,749,q),
(250,777,o),
(276,777,qs),
(295,777,o),
(331,750,o),
(340,732,q),
(346,712,o),
(363,653,o),
(373,617,qs),
(417,453,o),
(430,426,q),
(441,426,o),
(460,440,o),
(466,444,q),
(489,434,ls),
(529,417,o),
(574,383,o),
(574,354,qs),
(574,346,o),
(531,330,o),
(477,319,o),
(466,319,q),
(502,193,o),
(544,19,o),
(556,-77,q),
(563,-90,o),
(563,-97,qs),
(563,-107,o),
(552,-107,qs),
(539,-107,o),
(494,-80,o),
(454,-41,o),
(448,-23,q)
);
},
{
closed = 1;
nodes = (
(265,569,o),
(236,457,qs),
(209,356,o),
(197,319,q),
(210,332,o),
(327,390,o),
(340,390,q),
(333,417,o),
(313,507,qs),
(297,581,o),
(286,624,q)
);
},
{
closed = 1;
nodes = (
(467,750,o),
(454,731,qs),
(426,692,o),
(426,671,qs),
(426,649,o),
(455,649,qs),
(477,649,o),
(534,671,o),
(541,680,qs),
(547,688,o),
(547,700,qs),
(547,714,o),
(541,728,qs),
(534,745,o),
(514,766,o),
(497,774,q)
);
}
);
userData = {
assembly = "NPUSHB[ ]	/* 24 values pushed */
94 1 8 3 78 18 2 2 8 36 1 5 4 5 1 0 5 4 76 74 1 1 1 75
MPPEM[ ]	/* MeasurePixelPerEm */
PUSHB[ ]	/* 1 value pushed */
9
LT[ ]	/* LessThan */
IF[ ]	/* If */
NPUSHB[ ]	/* 57 values pushed */
0 3 8 3 133 0 2 8 7 8 2 7 128 0 7 1 8 7 1 126 0 6 1 4 1 6 4 128 0 0 5 0 134 0 8 0 1 6 8 1 105 0 4 5 5 4 89 0 4 4 5 97 0 5 4 5 81
ELSE[ ]	/* Else */
MPPEM[ ]	/* MeasurePixelPerEm */
PUSHB[ ]	/* 1 value pushed */
20
LT[ ]	/* LessThan */
IF[ ]	/* If */
NPUSHB[ ]	/* 50 values pushed */
0 2 8 7 8 2 7 128 0 7 1 8 7 1 126 0 6 1 4 1 6 4 128 0 0 5 0 134 0 8 0 1 6 8 1 105 0 4 0 5 0 4 5 105 0 3 3 26 3 78
ELSE[ ]	/* Else */
NPUSHB[ ]	/* 57 values pushed */
0 3 8 3 133 0 2 8 7 8 2 7 128 0 7 1 8 7 1 126 0 6 1 4 1 6 4 128 0 0 5 0 134 0 8 0 1 6 8 1 105 0 4 5 5 4 89 0 4 4 5 97 0 5 4 5 81
EIF[ ]	/* EndIf */
EIF[ ]	/* EndIf */
NPUSHB[ ]	/* 16 values pushed */
89 87 72 71 62 61 51 50 19 39 25 22 34 9 8 27
CALL[ ]	/* CallFunction */";
};
width = 600;
}
);
note = Aacute.ss02;
},
{
glyphname = B.ss02;
layers = (
{
.lastUpdate = 753955765.466;
layerId = m01;
shapes = (
{
closed = 1;
nodes = (
(281,-26,o),
(268,-26,qs),
(255,-26,o),
(225,-7,q),
(208,6,o),
(190,12,q),
(138,138,o),
(5,509,o),
(-25,619,qs),
(-27,629,o),
(-27,634,qs),
(-27,652,o),
(-7,677,o),
(7,677,qs),
(16,677,o),
(26,671,q),
(66,714,o),
(163,760,o),
(210,760,qs),
(272,760,o),
(352,685,o),
(352,615,qs),
(352,567,o),
(328,502,q),
(410,536,o),
(474,536,qs),
(536,536,o),
(601,469,o),
(601,412,qs),
(601,352,o),
(529,203,o),
(387,50,o),
(288,-14,q)
);
},
{
closed = 1;
nodes = (
(69,573,o),
(92,507,qs),
(118,428,o),
(131,374,q),
(175,421,o),
(225,480,o),
(263,552,o),
(263,586,qs),
(263,616,o),
(245,646,q),
(230,662,o),
(192,678,o),
(171,678,qs),
(140,678,o),
(80,643,o),
(61,611,q)
);
},
{
closed = 1;
nodes = (
(257,79,l),
(358,162,o),
(508,348,o),
(508,408,qs),
(508,433,o),
(495,449,q),
(475,468,o),
(435,468,qs),
(373,468,o),
(223,379,o),
(169,300,q),
(172,284,o),
(205,213,o),
(222,179,qs),
(246,129,o),
(249,119,qs)
);
}
);
userData = {
assembly = "NPUSHB[ ]	/* 57 values pushed */
48 21 2 0 2 8 1 5 0 63 53 44 3 3 5 3 76 0 2 4 0 4 2 0 128 0 1 0 4 2 1 4 105 0 0 0 5 3 0 5 105 0 3 3 27 3 78 57 55 35 42 35 37 37 6 8 27
CALL[ ]	/* CallFunction */";
};
width = 600;
}
);
note = B.ss02;
},
{
glyphname = C.ss02;
layers = (
{
.lastUpdate = 753955765.466;
layerId = m01;
shapes = (
{
closed = 1;
nodes = (
(368,-28,o),
(358,-28,qs),
(281,-28,o),
(132,47,o),
(26,180,o),
(9,263,q),
(6,293,o),
(6,324,qs),
(6,448,o),
(107,682,o),
(207,750,q),
(261,780,o),
(329,780,qs),
(382,780,o),
(475,741,o),
(532,663,o),
(532,609,qs),
(532,594,o),
(531,587,q),
(524,580,o),
(512,580,qs),
(499,580,o),
(469,595,o),
(460,605,qs),
(454,612,o),
(451,634,o),
(451,653,qs),
(451,674,o),
(448,702,o),
(442,713,q),
(339,720,o),
(190,595,o),
(113,391,o),
(113,283,qs),
(113,203,o),
(134,138,q),
(186,60,o),
(268,60,qs),
(337,60,o),
(483,159,o),
(531,227,q),
(538,239,o),
(550,239,qs),
(565,239,o),
(599,213,o),
(622,192,q),
(622,71,o),
(388,-26,q)
);
}
);
userData = {
assembly = "NPUSHB[ ]	/* 10 values pushed */
28 1 3 2 1 1 1 0 2 76
MPPEM[ ]	/* MeasurePixelPerEm */
PUSHB[ ]	/* 1 value pushed */
24
LT[ ]	/* LessThan */
IF[ ]	/* If */
NPUSHB[ ]	/* 36 values pushed */
0 3 2 0 2 3 0 128 0 0 1 2 0 1 126 0 2 2 4 97 0 4 4 26 77 0 1 1 5 97 0 5 5 27 5 78
ELSE[ ]	/* Else */
MPPEM[ ]	/* MeasurePixelPerEm */
PUSHB[ ]	/* 1 value pushed */
45
LT[ ]	/* LessThan */
IF[ ]	/* If */
NPUSHB[ ]	/* 34 values pushed */
0 3 2 0 2 3 0 128 0 0 1 2 0 1 126 0 4 0 2 3 4 2 105 0 1 1 5 97 0 5 5 27 5 78
ELSE[ ]	/* Else */
NPUSHB[ ]	/* 39 values pushed */
0 3 2 0 2 3 0 128 0 0 1 2 0 1 126 0 4 0 2 3 4 2 105 0 1 5 5 1 89 0 1 1 5 97 0 5 1 5 81
EIF[ ]	/* EndIf */
EIF[ ]	/* EndIf */
NPUSHB[ ]	/* 9 values pushed */
41 38 40 22 35 35 6 8 28
CALL[ ]	/* CallFunction */";
};
width = 600;
}
);
note = C.ss02;
},
{
glyphname = D.ss02;
layers = (
{
.lastUpdate = 753955765.466;
layerId = m01;
shapes = (
{
closed = 1;
nodes = (
(291,-58,o),
(282,-58,qs),
(230,-58,o),
(93,-13,o),
(-8,45,o),
(-8,61,qs),
(-8,73,o),
(24,73,qs),
(45,73,o),
(81,67,q),
(70,173,o),
(63,319,qs),
(59,387,o),
(48,535,o),
(41,598,q),
(-14,650,o),
(-14,679,qs),
(-14,693,o),
(0,700,q),
(116,787,o),
(227,787,qs),
(329,787,o),
(494,650,o),
(587,433,o),
(587,318,qs),
(587,181,o),
(448,-25,o),
(307,-56,q)
);
},
{
closed = 1;
nodes = (
(164,304,o),
(184,141,o),
(184,46,q),
(269,51,o),
(395,169,o),
(460,347,o),
(460,439,qs),
(460,512,o),
(418,632,o),
(333,704,o),
(272,704,qs),
(206,704,o),
(123,659,q),
(123,649,o),
(133,547,qs),
(143,445,o),
(143,434,q)
);
}
);
userData = {
assembly = "NPUSHB[ ]	/* 11 values pushed */
44 31 2 1 3 17 1 4 1 2 76
MPPEM[ ]	/* MeasurePixelPerEm */
PUSHB[ ]	/* 1 value pushed */
34
LT[ ]	/* LessThan */
IF[ ]	/* If */
NPUSHB[ ]	/* 26 values pushed */
0 1 3 4 3 1 4 128 0 4 0 2 4 2 101 0 3 3 0 97 0 0 0 26 3 78
ELSE[ ]	/* Else */
NPUSHB[ ]	/* 32 values pushed */
0 1 3 4 3 1 4 128 0 0 0 3 1 0 3 105 0 4 2 2 4 89 0 4 4 2 97 0 2 4 2 81
EIF[ ]	/* EndIf */
PUSHB[ ]	/* 8 values pushed */
22 38 36 43 37 5 8 27
CALL[ ]	/* CallFunction */";
};
width = 600;
}
);
note = D.ss02;
},
{
glyphname = E.ss02;
layers = (
{
.lastUpdate = 753955765.466;
layerId = m01;
shapes = (
{
closed = 1;
nodes = (
(218,-70,o),
(115,35,o),
(71,196,o),
(71,286,qs),
(71,332,o),
(75,365,q),
(59,372,o),
(39,395,o),
(39,404,qs),
(39,422,o),
(75,422,q),
(69,453,o),
(66,516,o),
(66,564,qs),
(66,611,o),
(63,675,o),
(56,706,q),
(22,727,o),
(22,750,qs),
(22,764,o),
(51,781,o),
(75,781,q),
(166,799,o),
(427,838,o),
(491,838,q),
(536,815,o),
(557,804,o),
(585,769,o),
(585,743,q),
(565,732,o),
(535,721,o),
(520,721,qs),
(494,721,o),
(472,743,q),
(448,742,o),
(358,737,o),
(302,734,qs),
(150,724,o),
(131,724,q),
(146,687,o),
(156,611,o),
(158,554,qs),
(159,526,o),
(164,466,o),
(169,441,q),
(245,461,o),
(327,479,o),
(374,479,qs),
(481,479,o),
(491,403,q),
(453,390,o),
(378,384,o),
(323,384,qs),
(270,384,o),
(201,378,o),
(169,365,q),
(169,290,o),
(175,189,o),
(199,78,o),
(226,25,q),
(243,37,ls),
(325,97,o),
(430,201,o),
(453,271,q),
(472,271,o),
(529,214,q),
(535,193,o),
(535,173,qs),
(535,119,o),
(464,21,o),
(356,-52,o),
(302,-70,q)
);
}
);
userData = {
assembly = "NPUSHB[ ]	/* 23 values pushed */
42 1 3 6 26 1 7 2 21 1 1 7 65 15 2 0 1 11 1 8 0 5 76
MPPEM[ ]	/* MeasurePixelPerEm */
PUSHB[ ]	/* 1 value pushed */
24
LT[ ]	/* LessThan */
IF[ ]	/* If */
NPUSHB[ ]	/* 52 values pushed */
0 4 3 2 3 4 2 128 0 7 2 1 2 7 1 128 0 0 1 8 1 0 8 128 0 8 8 132 0 5 0 3 4 5 3 103 0 6 6 26 77 0 1 1 2 97 0 2 2 29 1 78
ELSE[ ]	/* Else */
NPUSHB[ ]	/* 55 values pushed */
0 6 5 3 5 6 3 128 0 4 3 2 3 4 2 128 0 7 2 1 2 7 1 128 0 0 1 8 1 0 8 128 0 8 8 132 0 5 0 3 4 5 3 103 0 1 1 2 97 0 2 2 29 1 78
EIF[ ]	/* EndIf */
NPUSHB[ ]	/* 12 values pushed */
25 26 18 22 33 88 35 42 22 9 8 31
CALL[ ]	/* CallFunction */";
};
width = 600;
}
);
note = E.ss02;
},
{
glyphname = F.ss02;
layers = (
{
.lastUpdate = 753955765.466;
layerId = m01;
shapes = (
{
closed = 1;
nodes = (
(240,-120,o),
(197,-38,o),
(183,77,o),
(180,168,qs),
(178,228,o),
(172,298,o),
(165,320,q),
(160,314,o),
(145,298,o),
(126,287,o),
(114,286,q),
(63,308,o),
(63,329,qs),
(63,347,o),
(118,372,o),
(165,387,q),
(165,624,l),
(143,611,o),
(126,611,qs),
(104,611,o),
(73,640,o),
(59,674,o),
(64,675,q),
(162,725,o),
(347,797,o),
(422,797,qs),
(472,797,o),
(503,776,q),
(508,775,o),
(501,750,o),
(481,727,o),
(469,726,q),
(449,730,o),
(301,686,o),
(233,658,q),
(233,630,o),
(242,540,qs),
(250,438,o),
(250,421,q),
(279,433,ls),
(324,453,o),
(390,475,o),
(419,475,qs),
(476,475,o),
(503,421,q),
(509,399,o),
(384,363,o),
(285,344,qs),
(250,337,l),
(261,268,o),
(275,126,qs),
(291,-34,o),
(300,-86,qs),
(303,-110,ls),
(303,-115,o),
(295,-120,o),
(283,-120,qs)
);
}
);
userData = {
assembly = "NPUSHB[ ]	/* 54 values pushed */
39 33 24 21 4 2 1 49 45 40 17 7 5 3 0 2 76 0 2 1 0 1 2 0 128 4 1 3 0 3 134 0 1 1 26 77 0 0 0 29 0 78 0 0 0 56 0 55 37 47 44 5 8 25
CALL[ ]	/* CallFunction */";
};
width = 600;
}
);
note = F.ss02;
},
{
glyphname = G.ss02;
layers = (
{
.lastUpdate = 753955765.466;
layerId = m01;
shapes = (
{
closed = 1;
nodes = (
(546,-194,o),
(503,-132,o),
(474,-36,o),
(474,0,qs),
(474,20,o),
(478,29,q),
(369,-73,o),
(263,-73,qs),
(199,-73,o),
(93,-3,o),
(23,110,o),
(11,173,qs),
(2,209,o),
(2,254,qs),
(2,352,o),
(76,571,o),
(207,719,o),
(286,719,qs),
(354,719,o),
(425,658,q),
(452,638,o),
(486,577,o),
(486,555,qs),
(486,537,o),
(473,537,qs),
(457,537,o),
(425,568,q),
(417,584,o),
(398,621,o),
(378,644,o),
(366,644,qs),
(363,644,o),
(353,640,q),
(287,624,o),
(173,488,o),
(107,301,o),
(107,213,qs),
(107,134,o),
(166,17,o),
(227,-7,q),
(250,-12,o),
(267,-12,qs),
(318,-12,o),
(401,49,o),
(449,149,o),
(449,204,qs),
(449,235,o),
(442,262,q),
(397,253,o),
(355,253,qs),
(307,253,o),
(244,273,o),
(244,289,qs),
(244,304,o),
(314,337,o),
(388,352,q),
(425,352,ls),
(454,352,o),
(521,327,o),
(568,278,o),
(568,244,qs),
(571,123,ls),
(576,30,o),
(576,-51,qs),
(576,-139,o),
(568,-187,q)
);
}
);
userData = {
assembly = "NPUSHB[ ]	/* 10 values pushed */
17 1 1 0 59 1 2 1 2 76
MPPEM[ ]	/* MeasurePixelPerEm */
PUSHB[ ]	/* 1 value pushed */
34
LT[ ]	/* LessThan */
IF[ ]	/* If */
NPUSHB[ ]	/* 36 values pushed */
0 3 5 4 5 3 4 128 0 4 0 5 4 0 126 0 0 0 1 2 0 1 106 0 2 0 6 2 6 101 0 5 5 28 5 78
ELSE[ ]	/* Else */
NPUSHB[ ]	/* 39 values pushed */
0 5 3 5 133 0 3 4 3 133 0 4 0 4 133 0 0 0 1 2 0 1 106 0 2 6 6 2 89 0 2 2 6 97 0 6 2 6 81
EIF[ ]	/* EndIf */
NPUSHB[ ]	/* 10 values pushed */
40 37 36 41 38 37 39 7 8 29
CALL[ ]	/* CallFunction */";
};
width = 600;
}
);
note = G.ss02;
},
{
glyphname = H.ss02;
layers = (
{
.lastUpdate = 753955765.466;
layerId = m01;
shapes = (
{
closed = 1;
nodes = (
(189,-53,o),
(150,-26,o),
(128,14,o),
(128,31,qs),
(128,336,l),
(119,336,o),
(69,328,qs),
(24,319,o),
(10,319,q),
(3,337,o),
(3,351,qs),
(3,374,o),
(39,391,o),
(73,396,qs),
(102,400,o),
(111,405,q),
(111,777,l),
(117,789,o),
(128,789,qs),
(143,789,o),
(179,755,o),
(179,744,q),
(190,676,o),
(196,536,o),
(196,422,q),
(232,429,ls),
(295,443,o),
(384,456,o),
(434,456,q),
(432,506,ls),
(426,592,o),
(426,668,qs),
(426,839,o),
(468,828,q),
(522,774,o),
(522,753,qs),
(522,747,o),
(519,744,q),
(522,641,o),
(537,-35,o),
(536,-36,q),
(466,-36,o),
(417,81,o),
(417,181,qs),
(417,207,o),
(419,253,qs),
(420,315,ls),
(420,347,o),
(417,371,q),
(376,361,o),
(318,354,qs),
(255,347,o),
(213,336,q),
(213,292,o),
(224,213,qs),
(236,121,o),
(236,74,qs),
(236,0,o),
(213,-53,q)
);
}
);
userData = {
assembly = "NPUSHB[ ]	/* 20 values pushed */
41 36 22 20 4 1 2 42 33 9 3 4 1 2 76 5 1 4 1 75
MPPEM[ ]	/* MeasurePixelPerEm */
PUSHB[ ]	/* 1 value pushed */
26
LT[ ]	/* LessThan */
IF[ ]	/* If */
NPUSHB[ ]	/* 37 values pushed */
0 1 2 4 2 1 4 128 0 3 4 0 4 3 0 128 0 5 0 5 134 0 4 4 2 97 0 2 2 26 77 0 0 0 27 0 78
ELSE[ ]	/* Else */
MPPEM[ ]	/* MeasurePixelPerEm */
PUSHB[ ]	/* 1 value pushed */
41
LT[ ]	/* LessThan */
IF[ ]	/* If */
NPUSHB[ ]	/* 38 values pushed */
0 1 2 4 2 1 4 128 0 3 4 0 4 3 0 128 0 0 5 4 0 5 126 0 5 5 132 0 4 4 2 97 0 2 2 26 4 78
ELSE[ ]	/* Else */
NPUSHB[ ]	/* 43 values pushed */
0 1 2 4 2 1 4 128 0 3 4 0 4 3 0 128 0 0 5 4 0 5 126 0 5 5 132 0 2 1 4 2 89 0 2 2 4 97 0 4 2 4 81
EIF[ ]	/* EndIf */
EIF[ ]	/* EndIf */
NPUSHB[ ]	/* 15 values pushed */
58 57 53 52 50 49 40 38 30 29 17 16 6 8 22
CALL[ ]	/* CallFunction */";
};
width = 600;
}
);
note = H.ss02;
},
{
glyphname = I.ss02;
layers = (
{
.lastUpdate = 753955765.466;
layerId = m01;
shapes = (
{
closed = 1;
nodes = (
(355,-26,o),
(343,-26,qs),
(327,-26,o),
(291,0,o),
(267,35,o),
(267,48,q),
(259,150,o),
(251,386,qs),
(243,623,o),
(235,723,q),
(231,745,o),
(245,745,qs),
(257,745,o),
(301,714,o),
(336,676,o),
(336,665,qs),
(336,657,o),
(325,657,q),
(320,658,o),
(315,658,q),
(315,558,o),
(330,353,o),
(344,212,qs),
(349,155,o),
(360,40,o),
(364,-17,q)
);
}
);
userData = {
assembly = "NPUSHB[ ]	/* 11 values pushed */
5 1 0 1 25 19 2 2 0 2 76
MPPEM[ ]	/* MeasurePixelPerEm */
PUSHB[ ]	/* 1 value pushed */
41
LT[ ]	/* LessThan */
IF[ ]	/* If */
NPUSHB[ ]	/* 19 values pushed */
0 0 1 2 1 0 2 128 0 1 1 28 77 0 2 2 27 2 78
ELSE[ ]	/* Else */
NPUSHB[ ]	/* 16 values pushed */
0 1 0 1 133 0 0 2 0 133 0 2 2 27 2 78
EIF[ ]	/* EndIf */
PUSHB[ ]	/* 6 values pushed */
40 36 23 3 8 25
CALL[ ]	/* CallFunction */";
};
width = 600;
}
);
note = I.ss02;
},
{
glyphname = J.ss02;
layers = (
{
.lastUpdate = 753955765.466;
layerId = m01;
shapes = (
{
closed = 1;
nodes = (
(371,0,o),
(320,0,qs),
(266,0,o),
(135,46,o),
(29,119,o),
(10,157,q),
(6,196,o),
(29,196,qs),
(44,196,o),
(90,171,o),
(129,145,qs),
(181,112,o),
(252,75,o),
(279,75,qs),
(301,75,o),
(314,89,qs),
(373,157,o),
(373,362,qs),
(373,433,o),
(362,594,qs),
(354,712,o),
(354,749,qs),
(354,776,o),
(363,800,o),
(382,800,q),
(426,789,o),
(450,678,o),
(450,597,qs),
(450,566,o),
(456,484,o),
(459,445,qs),
(469,339,o),
(469,284,qs),
(469,207,o),
(438,78,o),
(399,22,q)
);
}
);
userData = {
assembly = "NPUSHB[ ]	/* 31 values pushed */
0 2 0 1 0 2 1 128 0 0 0 26 77 0 1 1 3 97 0 3 3 30 3 78 36 36 41 26 4 8 26
CALL[ ]	/* CallFunction */";
};
width = 600;
}
);
note = J.ss02;
},
{
glyphname = K.ss02;
layers = (
{
.lastUpdate = 753955765.466;
layerId = m01;
shapes = (
{
closed = 1;
nodes = (
(531,-10,o),
(508,-10,qs),
(489,-10,o),
(478,7,o),
(475,33,qs),
(470,79,o),
(436,181,o),
(384,253,q),
(311,310,o),
(219,310,qs),
(194,310,o),
(147,303,qs),
(126,300,l),
(126,245,o),
(135,155,qs),
(143,53,o),
(143,9,qs),
(143,-10,o),
(119,-10,qs),
(102,-10,o),
(62,9,o),
(34,43,o),
(34,63,q),
(9,355,o),
(9,576,qs),
(9,684,o),
(17,788,qs),
(19,805,o),
(65,833,o),
(86,833,qs),
(108,833,o),
(108,816,qs),
(108,492,l),
(128,513,o),
(162,555,o),
(190,593,qs),
(251,673,ls),
(261,687,o),
(272,705,qs),
(303,751,o),
(336,789,o),
(355,789,qs),
(379,789,o),
(412,756,qs),
(419,749,o),
(350,656,o),
(276,566,qs),
(214,490,o),
(149,406,o),
(144,389,q),
(182,391,o),
(199,391,qs),
(342,391,o),
(503,287,o),
(568,119,o),
(578,0,q)
);
}
);
userData = {
assembly = "NPUSHB[ ]	/* 12 values pushed */
22 1 0 1 55 42 32 3 3 4 2 76
MPPEM[ ]	/* MeasurePixelPerEm */
PUSHB[ ]	/* 1 value pushed */
41
LT[ ]	/* LessThan */
IF[ ]	/* If */
NPUSHB[ ]	/* 25 values pushed */
0 2 1 2 133 0 0 0 4 3 0 4 105 0 1 1 26 77 5 1 3 3 27 3 78
ELSE[ ]	/* Else */
NPUSHB[ ]	/* 25 values pushed */
0 2 1 2 133 0 1 0 1 133 0 0 0 4 3 0 4 105 5 1 3 3 27 3 78
EIF[ ]	/* EndIf */
NPUSHB[ ]	/* 9 values pushed */
38 39 41 42 39 50 6 8 28
CALL[ ]	/* CallFunction */";
};
width = 600;
}
);
note = K.ss02;
},
{
glyphname = L.ss02;
layers = (
{
.lastUpdate = 753955765.466;
layerId = m01;
shapes = (
{
closed = 1;
nodes = (
(272,-41,o),
(214,-41,qs),
(164,-41,o),
(129,28,o),
(129,108,qs),
(129,157,o),
(134,249,qs),
(143,429,o),
(143,541,qs),
(143,652,o),
(138,742,q),
(132,765,o),
(132,775,qs),
(132,794,o),
(147,794,qs),
(156,794,o),
(175,787,q),
(205,779,o),
(210,778,q),
(215,712,o),
(220,556,o),
(221,484,qs),
(223,345,o),
(232,161,o),
(247,67,q),
(264,67,o),
(295,78,o),
(324,91,qs),
(357,106,o),
(402,121,o),
(428,121,q),
(480,83,o),
(480,56,qs),
(480,27,o),
(410,12,q)
);
}
);
userData = {
assembly = "PUSHB[ ]	/* 6 values pushed */
23 1 0 2 1 76
MPPEM[ ]	/* MeasurePixelPerEm */
PUSHB[ ]	/* 1 value pushed */
9
LT[ ]	/* LessThan */
IF[ ]	/* If */
NPUSHB[ ]	/* 21 values pushed */
0 0 2 1 2 0 1 128 0 1 0 3 1 3 101 0 2 2 26 2 78
ELSE[ ]	/* Else */
MPPEM[ ]	/* MeasurePixelPerEm */
PUSHB[ ]	/* 1 value pushed */
20
LT[ ]	/* LessThan */
IF[ ]	/* If */
NPUSHB[ ]	/* 24 values pushed */
0 0 2 1 2 0 1 128 0 2 2 26 77 0 1 1 3 97 0 3 3 27 3 78
ELSE[ ]	/* Else */
NPUSHB[ ]	/* 21 values pushed */
0 0 2 1 2 0 1 128 0 1 0 3 1 3 101 0 2 2 26 2 78
EIF[ ]	/* EndIf */
EIF[ ]	/* EndIf */
PUSHB[ ]	/* 7 values pushed */
43 41 20 19 4 8 26
CALL[ ]	/* CallFunction */";
};
width = 600;
}
);
note = L.ss02;
},
{
glyphname = M.ss02;
layers = (
{
.lastUpdate = 753955765.466;
layerId = m01;
shapes = (
{
closed = 1;
nodes = (
(46,33,o),
(33,33,qs),
(17,33,o),
(-13,54,o),
(-22,71,q),
(27,363,ls),
(34,418,o),
(39,480,qs),
(48,565,o),
(61,661,o),
(75,704,q),
(116,704,o),
(182,632,o),
(229,532,o),
(259,452,qs),
(278,400,o),
(305,336,o),
(319,315,q),
(330,350,ls),
(390,560,o),
(432,574,q),
(482,574,o),
(544,482,o),
(574,358,o),
(589,264,qs),
(594,231,o),
(605,169,o),
(611,152,qs),
(617,128,o),
(617,111,qs),
(617,87,o),
(598,63,o),
(583,63,qs),
(563,63,o),
(530,97,o),
(530,120,q),
(511,177,o),
(485,304,o),
(471,392,qs),
(465,428,l),
(451,393,o),
(423,303,qs),
(414,274,o),
(394,210,o),
(384,185,q),
(378,183,o),
(366,183,qs),
(327,183,o),
(262,262,o),
(215,368,o),
(185,450,qs),
(154,535,o),
(140,558,q),
(120,353,o),
(59,55,q),
(59,39,l)
);
}
);
userData = {
assembly = "NPUSHB[ ]	/* 50 values pushed */
37 15 2 3 0 2 50 19 2 1 0 55 0 2 4 1 3 76 0 3 2 3 133 0 2 0 2 133 0 0 1 0 133 0 1 4 1 133 0 4 4 118 40 25 26 44 39 5 8 27
CALL[ ]	/* CallFunction */";
};
width = 600;
}
);
note = M.ss02;
},
{
glyphname = N.ss02;
layers = (
{
.lastUpdate = 753955765.466;
layerId = m01;
shapes = (
{
closed = 1;
nodes = (
(117,-15,o),
(106,-15,qs),
(96,-15,o),
(63,6,o),
(39,36,o),
(39,48,qs),
(39,149,o),
(29,328,o),
(17,470,qs),
(7,592,l),
(7,616,o),
(26,616,qs),
(45,616,o),
(86,581,o),
(86,563,qs),
(86,517,l),
(143,475,o),
(230,373,o),
(289,290,qs),
(327,236,o),
(385,161,o),
(418,125,q),
(440,212,o),
(453,337,o),
(456,425,qs),
(460,526,o),
(465,581,qs),
(466,595,o),
(467,625,o),
(468,641,qs),
(471,714,o),
(485,790,o),
(508,790,qs),
(531,790,o),
(569,742,qs),
(573,737,o),
(585,718,o),
(585,707,q),
(573,631,o),
(561,483,o),
(556,376,qs),
(544,186,ls),
(525,-16,o),
(450,-16,qs),
(415,-16,o),
(327,66,o),
(247,176,o),
(190,261,qs),
(135,344,o),
(117,366,q),
(117,305,o),
(121,227,qs),
(124,176,o),
(124,127,qs),
(124,69,o),
(117,-4,q)
);
}
);
userData = {
assembly = "NPUSHB[ ]	/* 15 values pushed */
17 1 2 1 55 45 39 33 13 5 6 0 2 2 76
MPPEM[ ]	/* MeasurePixelPerEm */
PUSHB[ ]	/* 1 value pushed */
45
LT[ ]	/* LessThan */
IF[ ]	/* If */
NPUSHB[ ]	/* 20 values pushed */
0 2 1 0 1 2 0 128 0 1 1 26 77 3 1 0 0 27 0 78
ELSE[ ]	/* Else */
NPUSHB[ ]	/* 17 values pushed */
0 1 2 1 133 0 2 0 2 133 3 1 0 0 27 0 78
EIF[ ]	/* EndIf */
NPUSHB[ ]	/* 9 values pushed */
54 52 44 42 41 42 4 8 24
CALL[ ]	/* CallFunction */";
};
width = 600;
}
);
note = N.ss02;
},
{
glyphname = Ntilde.ss02;
layers = (
{
.lastUpdate = 753955765.466;
layerId = m01;
shapes = (
{
closed = 1;
nodes = (
(117,-18,o),
(106,-18,qs),
(96,-18,o),
(63,1,o),
(39,29,o),
(39,40,qs),
(39,133,o),
(28,296,o),
(17,424,qs),
(7,535,l),
(7,556,o),
(26,556,qs),
(45,556,o),
(86,524,o),
(86,508,qs),
(86,467,l),
(143,428,o),
(229,336,o),
(289,260,qs),
(327,211,o),
(385,143,o),
(418,110,q),
(439,188,o),
(453,330,o),
(456,429,qs),
(460,535,o),
(465,593,qs),
(466,605,o),
(467,633,o),
(468,647,qs),
(471,714,o),
(485,783,o),
(508,783,qs),
(532,783,o),
(569,740,qs),
(573,735,o),
(585,718,o),
(585,708,q),
(574,645,o),
(563,495,o),
(557,379,qs),
(554,327,o),
(548,221,o),
(544,166,qs),
(525,-18,o),
(450,-18,qs),
(400,-18,o),
(276,115,o),
(190,233,qs),
(140,302,o),
(117,329,q),
(117,274,o),
(121,202,qs),
(124,156,o),
(124,112,qs),
(124,59,o),
(117,-7,q)
);
},
{
closed = 1;
nodes = (
(288,633,o),
(243,637,qs),
(191,642,o),
(123,655,o),
(66,691,o),
(55,724,q),
(55,736,o),
(59,740,o),
(71,740,q),
(80,738,o),
(113,734,o),
(130,732,qs),
(184,727,o),
(256,713,o),
(309,676,o),
(309,641,qs),
(309,633,o),
(308,629,q)
);
}
);
userData = {
assembly = "NPUSHB[ ]	/* 16 values pushed */
58 26 18 3 2 4 56 46 40 34 5 5 0 2 2 76
MPPEM[ ]	/* MeasurePixelPerEm */
PUSHB[ ]	/* 1 value pushed */
28
LT[ ]	/* LessThan */
IF[ ]	/* If */
NPUSHB[ ]	/* 25 values pushed */
0 2 4 0 4 2 0 128 0 1 1 26 77 0 4 4 28 77 3 1 0 0 27 0 78
ELSE[ ]	/* Else */
NPUSHB[ ]	/* 25 values pushed */
0 1 4 1 133 0 2 4 0 4 2 0 128 0 4 4 28 77 3 1 0 0 27 0 78
EIF[ ]	/* EndIf */
NPUSHB[ ]	/* 11 values pushed */
66 65 55 53 45 43 43 41 5 8 24
CALL[ ]	/* CallFunction */";
};
width = 600;
}
);
note = Ntilde.ss02;
},
{
glyphname = O.ss02;
layers = (
{
.lastUpdate = 753955765.466;
layerId = m01;
shapes = (
{
closed = 1;
nodes = (
(290,0,o),
(280,0,qs),
(186,0,o),
(64,93,o),
(8,247,o),
(8,342,qs),
(8,452,o),
(77,671,o),
(194,811,o),
(260,811,qs),
(336,811,o),
(404,716,q),
(418,723,o),
(430,723,qs),
(442,723,o),
(459,711,o),
(473,697,q),
(526,628,o),
(584,455,o),
(584,367,qs),
(584,280,o),
(526,129,o),
(406,22,o),
(316,2,q)
);
},
{
closed = 1;
nodes = (
(180,84,o),
(206,84,qs),
(291,84,o),
(413,191,o),
(474,363,o),
(474,459,qs),
(474,521,o),
(447,636,o),
(421,681,q),
(413,673,o),
(403,673,qs),
(390,673,o),
(369,689,o),
(369,697,q),
(363,703,o),
(355,718,o),
(351,724,q),
(343,742,o),
(334,750,q),
(262,750,o),
(152,616,o),
(92,411,o),
(92,309,qs),
(92,235,o),
(126,117,o),
(159,88,q)
);
}
);
userData = {
assembly = "PUSHB[ ]	/* 7 values pushed */
40 11 2 4 0 1 76
MPPEM[ ]	/* MeasurePixelPerEm */
PUSHB[ ]	/* 1 value pushed */
49
LT[ ]	/* LessThan */
IF[ ]	/* If */
NPUSHB[ ]	/* 34 values pushed */
0 4 0 5 0 4 5 128 0 3 3 1 97 0 1 1 26 77 0 0 0 28 77 0 5 5 2 97 0 2 2 30 2 78
ELSE[ ]	/* Else */
NPUSHB[ ]	/* 34 values pushed */
0 0 3 4 3 0 4 128 0 4 5 3 4 5 126 0 1 0 3 0 1 3 105 0 5 5 2 97 0 2 2 30 2 78
EIF[ ]	/* EndIf */
NPUSHB[ ]	/* 9 values pushed */
39 39 23 38 34 40 6 8 28
CALL[ ]	/* CallFunction */";
};
width = 600;
}
);
note = O.ss02;
},
{
glyphname = P.ss02;
layers = (
{
.lastUpdate = 753955765.466;
layerId = m01;
shapes = (
{
closed = 1;
nodes = (
(284,-19,o),
(276,-19,qs),
(253,-19,o),
(224,23,o),
(207,83,o),
(197,134,qs),
(187,186,o),
(171,240,o),
(158,253,q),
(143,261,o),
(119,289,o),
(119,300,qs),
(119,309,o),
(138,320,o),
(158,320,q),
(138,428,ls),
(116,549,o),
(108,589,q),
(83,597,o),
(49,632,o),
(49,651,qs),
(49,672,o),
(74,690,q),
(74,740,l),
(60,758,o),
(60,769,qs),
(60,779,o),
(73,779,qs),
(88,779,o),
(125,754,o),
(125,740,q),
(212,795,o),
(290,795,qs),
(352,795,o),
(444,725,o),
(492,611,o),
(492,545,qs),
(492,476,o),
(437,350,o),
(325,263,o),
(242,253,q),
(246,235,o),
(261,175,qs),
(277,118,o),
(293,31,o),
(293,-16,q)
);
},
{
closed = 1;
nodes = (
(175,556,o),
(203,416,o),
(226,337,q),
(280,355,o),
(364,437,o),
(410,547,o),
(410,603,qs),
(410,671,o),
(377,723,q),
(359,726,o),
(343,726,qs),
(307,726,o),
(241,701,o),
(196,676,qs),
(164,659,o),
(158,656,q)
);
}
);
userData = {
assembly = "NPUSHB[ ]	/* 18 values pushed */
21 14 2 4 1 61 58 22 3 2 4 45 4 2 3 2 3 76
MPPEM[ ]	/* MeasurePixelPerEm */
PUSHB[ ]	/* 1 value pushed */
22
LT[ ]	/* LessThan */
IF[ ]	/* If */
NPUSHB[ ]	/* 29 values pushed */
0 2 4 3 4 2 3 128 0 1 1 26 77 0 4 4 0 97 0 0 0 26 77 0 3 3 27 3 78
ELSE[ ]	/* Else */
NPUSHB[ ]	/* 32 values pushed */
0 1 0 4 0 1 4 128 0 2 4 3 4 2 3 128 0 4 4 0 97 0 0 0 26 77 0 3 3 27 3 78
EIF[ ]	/* EndIf */
PUSHB[ ]	/* 8 values pushed */
38 27 28 35 43 5 8 27
CALL[ ]	/* CallFunction */";
};
width = 600;
}
);
note = P.ss02;
},
{
glyphname = Q.ss02;
layers = (
{
.lastUpdate = 753955765.466;
layerId = m01;
shapes = (
{
closed = 1;
nodes = (
(554,-54,o),
(549,-54,qs),
(520,-54,o),
(478,-9,o),
(453,31,qs),
(435,60,o),
(424,71,q),
(367,44,o),
(313,44,qs),
(232,44,o),
(113,164,o),
(51,353,o),
(51,454,qs),
(51,521,o),
(80,641,o),
(108,684,qs),
(137,732,o),
(246,778,o),
(308,778,qs),
(342,778,o),
(370,772,q),
(459,737,o),
(547,551,o),
(547,430,qs),
(547,339,o),
(499,164,o),
(458,106,q),
(476,81,o),
(501,54,qs),
(532,19,o),
(564,-29,o),
(564,-52,q)
);
},
{
closed = 1;
nodes = (
(273,106,o),
(341,133,o),
(353,159,q),
(353,173,o),
(328,223,qs),
(302,277,o),
(302,292,qs),
(302,301,o),
(310,301,q),
(318,299,l),
(341,287,o),
(369,247,o),
(388,211,q),
(447,316,o),
(447,450,qs),
(447,587,o),
(388,719,q),
(304,724,o),
(193,643,o),
(140,502,o),
(140,416,qs),
(140,331,o),
(189,165,o),
(231,106,q)
);
}
);
userData = {
assembly = "NPUSHB[ ]	/* 22 values pushed */
52 48 46 42 4 4 3 24 1 1 4 31 1 2 1 3 76 4 1 4 1 75
MPPEM[ ]	/* MeasurePixelPerEm */
PUSHB[ ]	/* 1 value pushed */
22
LT[ ]	/* LessThan */
IF[ ]	/* If */
NPUSHB[ ]	/* 24 values pushed */
0 2 1 2 134 0 4 0 1 2 4 1 105 0 3 3 0 97 0 0 0 26 3 78
ELSE[ ]	/* Else */
NPUSHB[ ]	/* 29 values pushed */
0 2 1 2 134 0 0 0 3 4 0 3 105 0 4 1 1 4 89 0 4 4 1 97 0 1 4 1 81
EIF[ ]	/* EndIf */
NPUSHB[ ]	/* 9 values pushed */
55 54 24 21 40 43 5 8 26
CALL[ ]	/* CallFunction */";
};
width = 600;
}
);
note = Q.ss02;
},
{
glyphname = R.ss02;
layers = (
{
.lastUpdate = 753955765.466;
layerId = m01;
shapes = (
{
closed = 1;
nodes = (
(80,0,o),
(70,0,qs),
(25,0,o),
(-11,70,q),
(-11,137,o),
(-15,273,qs),
(-19,407,o),
(-19,475,qs),
(-19,587,o),
(-11,678,q),
(-12,729,ls),
(-12,752,o),
(-4,778,o),
(7,778,qs),
(24,778,o),
(56,746,q),
(92,761,o),
(130,761,qs),
(177,761,o),
(265,720,o),
(330,651,o),
(343,611,qs),
(345,602,o),
(345,584,qs),
(345,523,o),
(266,417,o),
(208,374,q),
(231,382,o),
(467,261,o),
(667,108,o),
(667,59,qs),
(667,34,o),
(636,20,q),
(624,24,o),
(581,57,o),
(556,78,qs),
(489,133,o),
(374,216,o),
(198,307,o),
(90,340,q),
(90,235,o),
(96,87,o),
(107,20,q),
(107,12,o),
(99,5,o),
(91,3,o),
(90,3,q)
);
},
{
closed = 1;
nodes = (
(73,442,l),
(143,466,o),
(232,541,o),
(232,593,qs),
(232,615,o),
(225,636,qs),
(216,658,o),
(174,682,o),
(150,682,qs),
(127,682,o),
(85,662,o),
(73,644,q)
);
}
);
userData = {
assembly = "NPUSHB[ ]	/* 15 values pushed */
30 1 3 0 58 57 42 36 19 6 6 2 3 2 76
MPPEM[ ]	/* MeasurePixelPerEm */
PUSHB[ ]	/* 1 value pushed */
22
LT[ ]	/* LessThan */
IF[ ]	/* If */
NPUSHB[ ]	/* 19 values pushed */
0 0 0 3 2 0 3 105 0 1 1 26 77 0 2 2 30 2 78
ELSE[ ]	/* Else */
NPUSHB[ ]	/* 19 values pushed */
0 1 0 1 133 0 0 0 3 2 0 3 105 0 2 2 30 2 78
EIF[ ]	/* EndIf */
NPUSHB[ ]	/* 11 values pushed */
50 48 45 43 33 31 29 27 4 8 22
CALL[ ]	/* CallFunction */";
};
width = 600;
}
);
note = R.ss02;
},
{
glyphname = S.ss02;
layers = (
{
.lastUpdate = 753955765.466;
layerId = m01;
shapes = (
{
closed = 1;
nodes = (
(423,-62,o),
(400,-62,qs),
(352,-62,o),
(209,-14,o),
(102,51,o),
(102,74,qs),
(102,91,o),
(135,100,q),
(167,74,o),
(247,47,o),
(289,47,qs),
(354,47,o),
(454,111,o),
(469,171,qs),
(478,209,o),
(478,235,qs),
(478,274,o),
(441,317,o),
(380,338,o),
(328,346,q),
(261,361,o),
(152,436,o),
(88,545,o),
(88,606,qs),
(88,643,o),
(100,680,qs),
(119,745,o),
(233,813,o),
(304,813,qs),
(372,813,o),
(491,753,o),
(521,697,q),
(526,680,o),
(526,669,qs),
(526,651,o),
(511,628,o),
(498,628,qs),
(477,628,o),
(451,662,qs),
(446,669,o),
(446,673,qs),
(446,678,o),
(456,703,o),
(456,712,qs),
(456,722,o),
(451,732,q),
(414,746,o),
(381,746,qs),
(329,746,o),
(241,690,o),
(189,596,o),
(189,544,qs),
(189,486,o),
(223,434,q),
(251,427,o),
(285,422,qs),
(343,411,o),
(417,389,o),
(451,364,q),
(515,339,o),
(587,216,o),
(587,146,qs),
(587,75,o),
(509,-38,o),
(434,-57,q)
);
}
);
userData = {
assembly = "PUSHB[ ]	/* 6 values pushed */
56 1 3 1 1 76
MPPEM[ ]	/* MeasurePixelPerEm */
PUSHB[ ]	/* 1 value pushed */
41
LT[ ]	/* LessThan */
IF[ ]	/* If */
NPUSHB[ ]	/* 30 values pushed */
0 1 0 3 0 1 3 128 0 3 4 0 3 4 126 0 4 4 132 0 0 0 2 97 0 2 2 26 0 78
ELSE[ ]	/* Else */
NPUSHB[ ]	/* 35 values pushed */
0 1 0 3 0 1 3 128 0 3 4 0 3 4 126 0 4 4 132 0 2 0 0 2 89 0 2 2 0 97 0 0 2 0 81
EIF[ ]	/* EndIf */
NPUSHB[ ]	/* 10 values pushed */
63 61 54 52 38 41 47 5 8 25
CALL[ ]	/* CallFunction */";
};
width = 600;
}
);
note = S.ss02;
},
{
glyphname = T.ss02;
layers = (
{
.lastUpdate = 753955765.466;
layerId = m01;
shapes = (
{
closed = 1;
nodes = (
(319,-61,o),
(272,-29,o),
(243,26,o),
(243,59,qs),
(243,710,l),
(106,710,l),
(106,695,o),
(93,695,qs),
(82,695,o),
(48,716,o),
(37,726,q),
(32,732,o),
(32,739,qs),
(32,763,o),
(160,777,o),
(255,778,qs),
(277,778,l),
(338,781,ls),
(386,785,o),
(414,785,qs),
(466,785,o),
(537,759,o),
(551,726,q),
(541,705,o),
(449,705,qs),
(439,705,o),
(358,708,qs),
(311,710,l),
(316,631,o),
(328,494,qs),
(339,354,o),
(350,187,o),
(350,97,qs),
(350,7,o),
(345,-61,q)
);
}
);
userData = {
assembly = "MPPEM[ ]	/* MeasurePixelPerEm */
PUSHB[ ]	/* 1 value pushed */
39
LT[ ]	/* LessThan */
IF[ ]	/* If */
PUSHB[ ]	/* 7 values pushed */
21 11 2 0 1 1 76
ELSE[ ]	/* Else */
PUSHB[ ]	/* 7 values pushed */
21 11 2 0 2 1 76
EIF[ ]	/* EndIf */
MPPEM[ ]	/* MeasurePixelPerEm */
PUSHB[ ]	/* 1 value pushed */
30
LT[ ]	/* LessThan */
IF[ ]	/* If */
NPUSHB[ ]	/* 25 values pushed */
0 3 0 5 0 3 5 128 0 5 5 132 4 1 0 0 1 97 2 1 1 1 26 0 78
ELSE[ ]	/* Else */
MPPEM[ ]	/* MeasurePixelPerEm */
PUSHB[ ]	/* 1 value pushed */
39
LT[ ]	/* LessThan */
IF[ ]	/* If */
NPUSHB[ ]	/* 31 values pushed */
0 3 0 5 0 3 5 128 0 5 5 132 2 1 1 0 0 1 89 2 1 1 1 0 95 4 1 0 1 0 79
ELSE[ ]	/* Else */
NPUSHB[ ]	/* 35 values pushed */
0 3 0 5 0 3 5 128 0 5 5 132 0 1 2 0 1 89 0 2 0 0 2 87 0 2 2 0 95 4 1 0 2 0 79
EIF[ ]	/* EndIf */
EIF[ ]	/* EndIf */
NPUSHB[ ]	/* 9 values pushed */
20 17 38 49 35 70 6 8 28
CALL[ ]	/* CallFunction */";
};
width = 600;
}
);
note = T.ss02;
},
{
glyphname = U.ss02;
layers = (
{
.lastUpdate = 753955765.466;
layerId = m01;
shapes = (
{
closed = 1;
nodes = (
(416,-8,o),
(389,-8,qs),
(289,-8,o),
(142,171,o),
(65,439,o),
(65,565,qs),
(65,692,o),
(102,753,q),
(114,753,o),
(158,722,o),
(158,709,qs),
(158,704,o),
(154,701,q),
(152,637,o),
(152,609,qs),
(152,439,o),
(203,197,o),
(282,74,o),
(324,74,qs),
(357,74,o),
(413,149,o),
(446,298,o),
(446,403,qs),
(446,540,o),
(418,701,q),
(427,726,o),
(439,726,qs),
(460,726,o),
(510,612,o),
(545,433,o),
(545,340,qs),
(545,234,o),
(493,54,o),
(436,-3,q)
);
}
);
userData = {
assembly = "PUSHB[ ]	/* 8 values pushed */
22 20 8 3 1 0 1 76
MPPEM[ ]	/* MeasurePixelPerEm */
PUSHB[ ]	/* 1 value pushed */
24
LT[ ]	/* LessThan */
IF[ ]	/* If */
NPUSHB[ ]	/* 21 values pushed */
0 2 2 28 77 0 0 0 28 77 0 1 1 3 97 0 3 3 30 3 78
ELSE[ ]	/* Else */
NPUSHB[ ]	/* 21 values pushed */
0 2 0 2 133 0 0 0 28 77 0 1 1 3 97 0 3 3 30 3 78
EIF[ ]	/* EndIf */
PUSHB[ ]	/* 7 values pushed */
37 25 38 37 4 8 26
CALL[ ]	/* CallFunction */";
};
width = 600;
}
);
note = U.ss02;
},
{
glyphname = V.ss02;
layers = (
{
.lastUpdate = 753955765.466;
layerId = m01;
shapes = (
{
closed = 1;
nodes = (
(337,-17,o),
(219,150,o),
(134,371,o),
(83,530,qs),
(69,573,o),
(41,655,o),
(32,678,qs),
(26,690,o),
(26,697,qs),
(26,704,o),
(32,704,qs),
(43,704,o),
(81,675,o),
(106,639,o),
(100,628,q),
(149,528,o),
(216,361,qs),
(245,290,o),
(308,142,o),
(337,85,q),
(363,164,o),
(394,341,o),
(409,469,qs),
(424,582,o),
(442,701,o),
(456,763,q),
(456,774,o),
(473,797,o),
(490,814,q),
(536,803,o),
(573,744,o),
(573,699,qs),
(573,656,o),
(555,574,qs),
(540,505,o),
(540,475,q),
(520,413,o),
(503,293,qs),
(487,183,o),
(448,40,o),
(405,-17,q)
);
}
);
userData = {
assembly = "NPUSHB[ ]	/* 30 values pushed */
20 4 2 1 0 1 76 14 11 2 0 74 0 0 1 0 133 0 1 1 27 1 78 40 39 29 28 2 8 22
CALL[ ]	/* CallFunction */";
};
width = 600;
}
);
note = V.ss02;
},
{
glyphname = W.ss02;
layers = (
{
.lastUpdate = 753955765.466;
layerId = m01;
shapes = (
{
closed = 1;
nodes = (
(467,12,o),
(401,71,o),
(358,146,o),
(330,205,qs),
(320,224,o),
(303,260,o),
(293,277,q),
(285,167,o),
(247,66,o),
(220,66,qs),
(179,66,o),
(76,259,o),
(-3,510,o),
(-7,576,q),
(-15,588,o),
(-15,596,qs),
(-15,604,o),
(-6,604,qs),
(3,604,o),
(27,587,o),
(33,576,q),
(33,572,o),
(42,552,qs),
(48,538,o),
(59,506,o),
(59,496,q),
(82,398,o),
(148,231,o),
(198,153,q),
(205,173,o),
(210,213,o),
(212,252,qs),
(214,299,o),
(223,351,o),
(238,372,q),
(279,372,o),
(335,327,o),
(369,263,o),
(390,208,qs),
(409,161,o),
(438,104,o),
(457,83,q),
(469,146,o),
(485,273,o),
(495,369,qs),
(508,496,o),
(531,663,o),
(552,741,q),
(563,758,ls),
(577,780,o),
(596,801,o),
(607,801,qs),
(620,801,o),
(636,785,q),
(643,771,o),
(643,752,qs),
(643,744,o),
(641,726,o),
(640,717,qs),
(636,689,o),
(636,675,q),
(608,572,o),
(574,356,o),
(557,203,qs),
(548,121,o),
(541,72,q),
(541,51,o),
(524,14,o),
(512,3,q)
);
}
);
userData = {
assembly = "NPUSHB[ ]	/* 48 values pushed */
7 1 2 0 54 42 2 1 2 61 39 26 2 4 3 1 3 76 0 2 0 1 0 2 1 128 0 1 0 3 1 3 101 0 0 0 26 0 78 59 57 51 49 31 47 4 8 24
CALL[ ]	/* CallFunction */";
};
width = 600;
}
);
note = W.ss02;
},
{
glyphname = X.ss02;
layers = (
{
.lastUpdate = 753955765.466;
layerId = m01;
shapes = (
{
closed = 1;
nodes = (
(501,-31,o),
(492,-31,qs),
(472,-31,o),
(427,-5,o),
(427,6,qs),
(427,12,o),
(434,15,q),
(395,74,o),
(317,176,o),
(259,248,q),
(250,241,o),
(204,194,qs),
(138,123,o),
(35,33,o),
(-2,33,qs),
(-34,33,o),
(-46,73,q),
(10,113,o),
(104,214,o),
(163,288,qs),
(201,335,l),
(189,360,o),
(132,477,o),
(83,599,o),
(83,627,qs),
(83,644,o),
(94,644,qs),
(105,644,o),
(129,626,q),
(136,626,o),
(155,604,o),
(165,582,o),
(158,582,q),
(168,531,o),
(209,439,o),
(245,379,q),
(314,467,o),
(469,648,o),
(579,771,q),
(585,774,o),
(593,774,qs),
(616,774,o),
(667,732,o),
(667,713,q),
(636,662,o),
(431,438,qs),
(319,313,o),
(303,292,q),
(306,283,o),
(352,227,o),
(381,194,qs),
(448,118,o),
(528,13,o),
(528,-12,qs),
(528,-28,o),
(507,-28,q)
);
}
);
userData = {
assembly = "NPUSHB[ ]	/* 13 values pushed */
11 1 1 0 45 34 19 7 4 2 1 2 76
MPPEM[ ]	/* MeasurePixelPerEm */
PUSHB[ ]	/* 1 value pushed */
34
LT[ ]	/* LessThan */
IF[ ]	/* If */
NPUSHB[ ]	/* 23 values pushed */
0 0 1 0 133 0 1 2 1 133 0 2 3 2 133 5 4 2 3 3 27 3 78
ELSE[ ]	/* Else */
NPUSHB[ ]	/* 21 values pushed */
0 0 1 0 133 0 1 2 1 133 0 2 3 2 133 5 4 2 3 3 118
EIF[ ]	/* EndIf */
NPUSHB[ ]	/* 13 values pushed */
0 0 0 55 0 55 43 42 45 29 6 8 26
CALL[ ]	/* CallFunction */";
};
width = 600;
}
);
note = X.ss02;
},
{
glyphname = Y.ss02;
layers = (
{
.lastUpdate = 753955765.466;
layerId = m01;
shapes = (
{
closed = 1;
nodes = (
(198,-50,o),
(189,-50,qs),
(159,-50,o),
(103,-1,o),
(103,27,q),
(138,82,o),
(201,209,o),
(240,295,qs),
(296,413,l),
(256,464,o),
(98,702,o),
(59,768,q),
(65,778,o),
(79,778,qs),
(98,778,o),
(139,751,o),
(139,737,qs),
(139,730,o),
(133,724,q),
(144,702,o),
(303,494,o),
(326,472,q),
(369,544,o),
(475,756,qs),
(482,770,o),
(489,783,q),
(485,787,o),
(485,794,qs),
(485,803,o),
(495,821,qs),
(503,837,o),
(503,842,q),
(507,846,o),
(514,846,qs),
(528,846,o),
(563,822,o),
(563,813,q),
(551,766,o),
(512,672,o),
(479,602,qs),
(435,510,o),
(415,457,qs),
(395,412,o),
(351,300,o),
(331,246,qs),
(295,147,o),
(242,16,o),
(207,-47,q)
);
}
);
userData = {
assembly = "NPUSHB[ ]	/* 13 values pushed */
19 10 2 1 0 42 38 25 3 2 1 2 76
MPPEM[ ]	/* MeasurePixelPerEm */
PUSHB[ ]	/* 1 value pushed */
22
LT[ ]	/* LessThan */
IF[ ]	/* If */
NPUSHB[ ]	/* 16 values pushed */
0 0 1 0 133 0 2 1 2 134 0 1 1 26 1 78
ELSE[ ]	/* Else */
NPUSHB[ ]	/* 14 values pushed */
0 0 1 0 133 0 1 2 1 133 0 2 2 118
EIF[ ]	/* EndIf */
PUSHB[ ]	/* 8 values pushed */
46 44 34 32 28 3 8 23
CALL[ ]	/* CallFunction */";
};
width = 600;
}
);
note = Y.ss02;
},
{
glyphname = Z.ss02;
layers = (
{
.lastUpdate = 753955765.466;
layerId = m01;
shapes = (
{
closed = 1;
nodes = (
(157,-34,o),
(148,-34,qs),
(116,-34,o),
(58,11,o),
(58,41,qs),
(58,66,o),
(81,89,q),
(328,503,o),
(388,721,q),
(369,721,o),
(233,729,qs),
(97,737,o),
(81,737,q),
(74,734,o),
(65,734,qs),
(45,734,o),
(3,762,o),
(3,776,qs),
(3,785,o),
(12,789,q),
(45,789,o),
(102,794,qs),
(188,800,o),
(240,800,qs),
(326,800,o),
(448,765,o),
(474,721,q),
(478,704,o),
(478,680,qs),
(478,620,o),
(424,470,o),
(352,331,o),
(292,225,qs),
(271,188,o),
(229,114,o),
(217,89,q),
(240,96,o),
(301,124,qs),
(374,158,o),
(480,197,o),
(525,197,qs),
(606,197,o),
(627,122,q),
(570,101,o),
(408,47,o),
(330,22,qs),
(242,-5,o),
(166,-31,qs)
);
}
);
userData = {
assembly = "PUSHB[ ]	/* 7 values pushed */
11 4 2 5 0 1 76
MPPEM[ ]	/* MeasurePixelPerEm */
PUSHB[ ]	/* 1 value pushed */
28
LT[ ]	/* LessThan */
IF[ ]	/* If */
NPUSHB[ ]	/* 26 values pushed */
0 0 3 5 3 0 5 128 4 1 3 3 1 97 2 1 1 1 26 77 0 5 5 27 5 78
ELSE[ ]	/* Else */
MPPEM[ ]	/* MeasurePixelPerEm */
PUSHB[ ]	/* 1 value pushed */
30
LT[ ]	/* LessThan */
IF[ ]	/* If */
NPUSHB[ ]	/* 25 values pushed */
0 0 3 5 3 0 5 128 0 5 5 132 4 1 3 3 1 97 2 1 1 1 26 3 78
ELSE[ ]	/* Else */
MPPEM[ ]	/* MeasurePixelPerEm */
PUSHB[ ]	/* 1 value pushed */
41
LT[ ]	/* LessThan */
IF[ ]	/* If */
NPUSHB[ ]	/* 29 values pushed */
0 0 3 5 3 0 5 128 0 5 5 132 0 2 2 26 77 4 1 3 3 1 95 0 1 1 26 3 78
ELSE[ ]	/* Else */
MPPEM[ ]	/* MeasurePixelPerEm */
PUSHB[ ]	/* 1 value pushed */
45
LT[ ]	/* LessThan */
IF[ ]	/* If */
NPUSHB[ ]	/* 32 values pushed */
0 2 1 3 1 2 3 128 0 0 3 5 3 0 5 128 0 5 5 132 4 1 3 3 1 95 0 1 1 26 3 78
ELSE[ ]	/* Else */
NPUSHB[ ]	/* 38 values pushed */
0 2 1 3 1 2 3 128 0 3 4 1 3 4 126 0 0 4 5 4 0 5 128 0 5 5 132 0 4 4 1 95 0 1 1 26 4 78
EIF[ ]	/* EndIf */
EIF[ ]	/* EndIf */
EIF[ ]	/* EndIf */
EIF[ ]	/* EndIf */
NPUSHB[ ]	/* 9 values pushed */
38 65 36 17 63 37 6 8 28
CALL[ ]	/* CallFunction */";
};
width = 600;
}
);
note = Z.ss02;
},
{
glyphname = a;
layers = (
{
.lastUpdate = 753955765.466;
layerId = m01;
shapes = (
{
closed = 1;
nodes = (
(500,8,o),
(424,106,o),
(386,201,o),
(386,230,q),
(336,145,o),
(246,37,o),
(184,10,qs),
(168,4,o),
(148,4,qs),
(108,4,o),
(47,54,o),
(47,101,qs),
(47,114,o),
(50,129,qs),
(67,196,o),
(161,340,o),
(288,447,o),
(352,463,qs),
(368,467,o),
(385,467,qs),
(413,467,o),
(447,442,o),
(447,419,qs),
(447,403,o),
(436,379,q),
(448,379,o),
(470,343,o),
(470,329,q),
(487,268,o),
(527,189,o),
(595,120,o),
(654,78,q),
(660,72,o),
(678,67,o),
(678,63,qs),
(678,61,o),
(670,45,qs),
(658,19,o),
(604,-26,o),
(574,-26,qs),
(565,-26,o),
(554,-23,q)
);
},
{
closed = 1;
nodes = (
(296,173,o),
(338,237,o),
(352,279,qs),
(367,320,o),
(367,349,qs),
(367,396,o),
(319,396,qs),
(280,396,o),
(209,326,o),
(160,224,o),
(151,179,qs),
(148,166,o),
(148,153,qs),
(148,125,o),
(174,89,o),
(194,89,qs),
(231,89,o),
(268,144,q)
);
}
);
userData = {
assembly = "PUSHB[ ]	/* 7 values pushed */
37 13 2 4 1 1 76
MPPEM[ ]	/* MeasurePixelPerEm */
PUSHB[ ]	/* 1 value pushed */
30
LT[ ]	/* LessThan */
IF[ ]	/* If */
NPUSHB[ ]	/* 38 values pushed */
0 5 2 1 2 5 1 128 0 1 4 2 1 4 126 0 4 3 2 4 3 126 0 2 2 29 77 0 3 3 30 77 0 0 0 27 0 78
ELSE[ ]	/* Else */
NPUSHB[ ]	/* 31 values pushed */
0 2 5 2 133 0 5 1 5 133 0 1 4 1 133 0 4 3 4 133 0 3 3 30 77 0 0 0 27 0 78
EIF[ ]	/* EndIf */
NPUSHB[ ]	/* 9 values pushed */
39 41 41 36 29 32 6 8 28
CALL[ ]	/* CallFunction */";
};
width = 600;
}
);
note = a;
unicode = 97;
},
{
glyphname = aacute;
layers = (
{
.lastUpdate = 753955765.466;
layerId = m01;
shapes = (
{
closed = 1;
nodes = (
(500,8,o),
(424,106,o),
(386,201,o),
(386,230,q),
(336,145,o),
(246,37,o),
(184,10,qs),
(168,4,o),
(148,4,qs),
(108,4,o),
(47,54,o),
(47,101,qs),
(47,114,o),
(50,129,qs),
(67,196,o),
(161,340,o),
(288,447,o),
(352,463,qs),
(368,467,o),
(385,467,qs),
(413,467,o),
(447,442,o),
(447,419,qs),
(447,403,o),
(436,379,q),
(448,379,o),
(470,343,o),
(470,329,q),
(487,268,o),
(527,189,o),
(595,120,o),
(654,78,q),
(660,72,o),
(678,67,o),
(678,63,qs),
(678,61,o),
(670,45,qs),
(658,19,o),
(604,-26,o),
(574,-26,qs),
(565,-26,o),
(554,-23,q)
);
},
{
closed = 1;
nodes = (
(296,173,o),
(338,237,o),
(352,279,qs),
(367,320,o),
(367,349,qs),
(367,396,o),
(319,396,qs),
(280,396,o),
(209,326,o),
(160,224,o),
(151,179,qs),
(148,166,o),
(148,153,qs),
(148,125,o),
(174,89,o),
(194,89,qs),
(231,89,o),
(268,144,q)
);
},
{
closed = 1;
nodes = (
(521,625,ls),
(508,626,o),
(470,593,o),
(439,551,o),
(439,545,qs),
(439,538,o),
(453,522,o),
(461,521,q),
(464,520,o),
(470,520,qs),
(489,520,o),
(531,547,o),
(561,580,o),
(561,586,qs),
(561,599,o),
(540,623,o),
(528,625,q)
);
}
);
userData = {
assembly = "NPUSHB[ ]	/* 11 values pushed */
37 13 2 4 1 1 76 62 1 6 74
MPPEM[ ]	/* MeasurePixelPerEm */
PUSHB[ ]	/* 1 value pushed */
30
LT[ ]	/* LessThan */
IF[ ]	/* If */
NPUSHB[ ]	/* 43 values pushed */
0 6 2 6 133 0 5 2 1 2 5 1 128 0 1 4 2 1 4 126 0 4 3 2 4 3 126 0 2 2 29 77 0 3 3 30 77 0 0 0 27 0 78
ELSE[ ]	/* Else */
NPUSHB[ ]	/* 36 values pushed */
0 6 2 6 133 0 2 5 2 133 0 5 1 5 133 0 1 4 1 133 0 4 3 4 133 0 3 3 30 77 0 0 0 27 0 78
EIF[ ]	/* EndIf */
NPUSHB[ ]	/* 10 values pushed */
28 39 41 41 36 29 32 7 8 29
CALL[ ]	/* CallFunction */";
};
width = 600;
}
);
note = aacute;
unicode = 225;
},
{
glyphname = acircumflex;
layers = (
{
.lastUpdate = 753955765.466;
layerId = m01;
shapes = (
{
closed = 1;
nodes = (
(500,8,o),
(424,106,o),
(386,201,o),
(386,230,q),
(336,145,o),
(246,37,o),
(184,10,qs),
(168,4,o),
(148,4,qs),
(108,4,o),
(47,54,o),
(47,101,qs),
(47,114,o),
(50,129,qs),
(67,196,o),
(161,340,o),
(288,447,o),
(352,463,qs),
(368,467,o),
(385,467,qs),
(413,467,o),
(447,442,o),
(447,419,qs),
(447,403,o),
(436,379,q),
(448,379,o),
(470,343,o),
(470,329,q),
(487,268,o),
(527,189,o),
(595,120,o),
(654,78,q),
(660,72,o),
(678,67,o),
(678,63,qs),
(678,61,o),
(670,45,qs),
(658,19,o),
(604,-26,o),
(574,-26,qs),
(565,-26,o),
(554,-23,q)
);
},
{
closed = 1;
nodes = (
(296,173,o),
(338,237,o),
(352,279,qs),
(367,320,o),
(367,349,qs),
(367,396,o),
(319,396,qs),
(280,396,o),
(209,326,o),
(160,224,o),
(151,179,qs),
(148,166,o),
(148,153,qs),
(148,125,o),
(174,89,o),
(194,89,qs),
(231,89,o),
(268,144,q)
);
},
{
closed = 1;
nodes = (
(133,590,o),
(172,620,qs),
(191,637,ls),
(210,656,o),
(297,725,o),
(314,725,q),
(318,724,l),
(357,708,o),
(434,647,o),
(464,610,qs),
(487,580,o),
(487,564,qs),
(487,551,o),
(474,547,qs),
(462,542,o),
(447,542,qs),
(436,542,o),
(379,590,o),
(338,627,qs),
(318,647,o),
(306,656,qs),
(305,657,l),
(299,653,o),
(280,628,o),
(278,626,qs),
(246,587,o),
(202,547,o),
(176,547,qs),
(166,547,o),
(148,561,o),
(132,578,q)
);
}
);
userData = {
assembly = "NPUSHB[ ]	/* 12 values pushed */
90 68 2 6 8 37 13 2 4 1 2 76
MPPEM[ ]	/* MeasurePixelPerEm */
PUSHB[ ]	/* 1 value pushed */
30
LT[ ]	/* LessThan */
IF[ ]	/* If */
NPUSHB[ ]	/* 50 values pushed */
7 1 6 8 2 8 6 2 128 0 1 5 4 5 1 4 128 0 4 3 5 4 3 126 0 2 2 29 77 0 5 5 8 97 0 8 8 28 77 0 3 3 30 77 0 0 0 27 0 78
ELSE[ ]	/* Else */
MPPEM[ ]	/* MeasurePixelPerEm */
PUSHB[ ]	/* 1 value pushed */
45
LT[ ]	/* LessThan */
IF[ ]	/* If */
NPUSHB[ ]	/* 52 values pushed */
7 1 6 8 2 8 6 2 128 0 2 5 8 2 5 126 0 1 5 4 5 1 4 128 0 4 3 5 4 3 126 0 5 5 8 97 0 8 8 28 77 0 3 3 30 77 0 0 0 27 0 78
ELSE[ ]	/* Else */
NPUSHB[ ]	/* 58 values pushed */
0 6 8 7 8 6 7 128 0 7 2 8 7 2 126 0 2 5 8 2 5 126 0 1 5 4 5 1 4 128 0 4 3 5 4 3 126 0 5 5 8 97 0 8 8 28 77 0 3 3 30 77 0 0 0 27 0 78
EIF[ ]	/* EndIf */
EIF[ ]	/* EndIf */
NPUSHB[ ]	/* 12 values pushed */
40 42 40 39 41 41 36 29 32 9 8 31
CALL[ ]	/* CallFunction */";
};
width = 600;
}
);
note = acircumflex;
unicode = 226;
},
{
glyphname = adieresis;
layers = (
{
.lastUpdate = 753955765.466;
layerId = m01;
shapes = (
{
closed = 1;
nodes = (
(500,8,o),
(424,106,o),
(386,201,o),
(386,230,q),
(336,145,o),
(246,37,o),
(184,10,qs),
(168,4,o),
(148,4,qs),
(108,4,o),
(47,54,o),
(47,101,qs),
(47,114,o),
(50,129,qs),
(67,196,o),
(161,340,o),
(288,447,o),
(352,463,qs),
(368,467,o),
(385,467,qs),
(413,467,o),
(447,442,o),
(447,419,qs),
(447,403,o),
(436,379,q),
(448,379,o),
(470,343,o),
(470,329,q),
(487,268,o),
(527,189,o),
(595,120,o),
(654,78,q),
(660,72,o),
(678,67,o),
(678,63,qs),
(678,61,o),
(670,45,qs),
(658,19,o),
(604,-26,o),
(574,-26,qs),
(565,-26,o),
(554,-23,q)
);
},
{
closed = 1;
nodes = (
(296,173,o),
(338,237,o),
(352,279,qs),
(367,320,o),
(367,349,qs),
(367,396,o),
(319,396,qs),
(280,396,o),
(209,326,o),
(160,224,o),
(151,179,qs),
(148,166,o),
(148,153,qs),
(148,125,o),
(174,89,o),
(194,89,qs),
(231,89,o),
(268,144,q)
);
},
{
closed = 1;
nodes = (
(223,624,o),
(206,639,o),
(187,639,qs),
(164,639,o),
(128,607,o),
(128,589,qs),
(128,573,o),
(145,563,qs),
(157,555,o),
(171,555,qs),
(192,555,o),
(223,586,o),
(223,606,qs)
);
},
{
closed = 1;
nodes = (
(413,644,o),
(376,622,o),
(376,593,qs),
(376,576,o),
(402,553,o),
(428,553,qs),
(438,553,ls),
(458,553,o),
(467,559,qs),
(489,573,o),
(489,592,qs),
(489,611,o),
(449,644,o),
(432,644,qs)
);
}
);
userData = {
assembly = "PUSHB[ ]	/* 7 values pushed */
37 13 2 4 1 1 76
MPPEM[ ]	/* MeasurePixelPerEm */
PUSHB[ ]	/* 1 value pushed */
30
LT[ ]	/* LessThan */
IF[ ]	/* If */
NPUSHB[ ]	/* 51 values pushed */
10 9 2 7 6 7 133 0 5 2 1 2 5 1 128 0 1 4 2 1 4 126 0 4 3 2 4 3 126 0 2 2 29 77 8 1 6 6 3 97 0 3 3 30 77 0 0 0 27 0 78
ELSE[ ]	/* Else */
MPPEM[ ]	/* MeasurePixelPerEm */
PUSHB[ ]	/* 1 value pushed */
45
LT[ ]	/* LessThan */
IF[ ]	/* If */
NPUSHB[ ]	/* 53 values pushed */
10 9 2 7 6 7 133 0 2 6 5 6 2 5 128 0 5 1 6 5 1 126 0 1 4 6 1 4 126 0 4 3 6 4 3 126 8 1 6 6 3 97 0 3 3 30 77 0 0 0 27 0 78
ELSE[ ]	/* Else */
NPUSHB[ ]	/* 57 values pushed */
10 1 9 7 9 133 0 7 6 7 133 0 2 6 5 6 2 5 128 0 5 1 6 5 1 126 0 1 4 6 1 4 126 0 4 3 6 4 3 126 8 1 6 6 3 97 0 3 3 30 77 0 0 0 27 0 78
EIF[ ]	/* EndIf */
EIF[ ]	/* EndIf */
NPUSHB[ ]	/* 18 values pushed */
73 73 73 86 73 85 56 37 40 39 41 41 36 29 32 11 8 31
CALL[ ]	/* CallFunction */";
};
width = 600;
}
);
note = adieresis;
unicode = 228;
},
{
glyphname = agrave;
layers = (
{
.lastUpdate = 753955765.466;
layerId = m01;
shapes = (
{
closed = 1;
nodes = (
(500,8,o),
(424,106,o),
(386,201,o),
(386,230,q),
(336,145,o),
(246,37,o),
(184,10,qs),
(168,4,o),
(148,4,qs),
(108,4,o),
(47,54,o),
(47,101,qs),
(47,114,o),
(50,129,qs),
(67,196,o),
(161,340,o),
(288,447,o),
(352,463,qs),
(368,467,o),
(385,467,qs),
(413,467,o),
(447,442,o),
(447,419,qs),
(447,403,o),
(436,379,q),
(448,379,o),
(470,343,o),
(470,329,q),
(487,268,o),
(527,189,o),
(595,120,o),
(654,78,q),
(660,72,o),
(678,67,o),
(678,63,qs),
(678,61,o),
(670,45,qs),
(658,19,o),
(604,-26,o),
(574,-26,qs),
(565,-26,o),
(554,-23,q)
);
},
{
closed = 1;
nodes = (
(296,173,o),
(338,237,o),
(352,279,qs),
(367,320,o),
(367,349,qs),
(367,396,o),
(319,396,qs),
(280,396,o),
(209,326,o),
(160,224,o),
(151,179,qs),
(148,166,o),
(148,153,qs),
(148,125,o),
(174,89,o),
(194,89,qs),
(231,89,o),
(268,144,q)
);
},
{
closed = 1;
nodes = (
(140,620,l),
(136,608,o),
(160,563,o),
(194,523,o),
(200,522,qs),
(207,520,o),
(225,530,o),
(228,538,qs),
(232,546,o),
(232,559,qs),
(232,577,o),
(214,618,o),
(192,649,o),
(187,650,qs),
(173,653,o),
(146,637,o),
(141,626,q)
);
}
);
userData = {
assembly = "PUSHB[ ]	/* 7 values pushed */
37 13 2 4 1 1 76
MPPEM[ ]	/* MeasurePixelPerEm */
PUSHB[ ]	/* 1 value pushed */
30
LT[ ]	/* LessThan */
IF[ ]	/* If */
NPUSHB[ ]	/* 38 values pushed */
0 5 2 1 2 5 1 128 0 1 4 2 1 4 126 0 4 3 2 4 3 126 0 2 2 29 77 0 3 3 30 77 0 0 0 27 0 78
ELSE[ ]	/* Else */
NPUSHB[ ]	/* 31 values pushed */
0 2 5 2 133 0 5 1 5 133 0 1 4 1 133 0 4 3 4 133 0 3 3 30 77 0 0 0 27 0 78
EIF[ ]	/* EndIf */
NPUSHB[ ]	/* 9 values pushed */
39 41 41 36 29 32 6 8 28
CALL[ ]	/* CallFunction */";
};
width = 600;
}
);
note = agrave;
unicode = 224;
},
{
glyphname = amacron;
layers = (
{
.lastUpdate = 753955765.466;
layerId = m01;
shapes = (
{
closed = 1;
nodes = (
(500,8,o),
(424,106,o),
(386,201,o),
(386,230,q),
(336,145,o),
(246,37,o),
(184,10,qs),
(168,4,o),
(148,4,qs),
(108,4,o),
(47,54,o),
(47,101,qs),
(47,114,o),
(50,129,qs),
(67,196,o),
(161,340,o),
(288,447,o),
(352,463,qs),
(368,467,o),
(385,467,qs),
(413,467,o),
(447,442,o),
(447,419,qs),
(447,403,o),
(436,379,q),
(448,379,o),
(470,343,o),
(470,329,q),
(487,268,o),
(527,189,o),
(595,120,o),
(654,78,q),
(660,72,o),
(678,67,o),
(678,63,qs),
(678,61,o),
(670,45,qs),
(658,19,o),
(604,-26,o),
(574,-26,qs),
(565,-26,o),
(554,-23,q)
);
},
{
closed = 1;
nodes = (
(296,173,o),
(338,237,o),
(352,279,qs),
(367,320,o),
(367,349,qs),
(367,396,o),
(319,396,qs),
(280,396,o),
(209,326,o),
(160,224,o),
(151,179,qs),
(148,166,o),
(148,153,qs),
(148,125,o),
(174,89,o),
(194,89,qs),
(231,89,o),
(268,144,q)
);
},
{
closed = 1;
nodes = (
(408,657,l),
(342,659,l),
(265,660,ls),
(137,660,o),
(114,643,qs),
(110,640,o),
(110,629,qs),
(110,622,o),
(111,620,q),
(116,592,o),
(175,592,qs),
(199,593,ls),
(229,595,o),
(243,595,qs),
(272,595,o),
(330,592,o),
(359,590,qs),
(404,587,ls),
(415,586,o),
(438,583,o),
(449,583,qs),
(461,583,o),
(471,586,qs),
(484,590,o),
(503,625,o),
(503,641,qs),
(503,659,o),
(491,659,qs)
);
}
);
userData = {
assembly = "MPPEM[ ]	/* MeasurePixelPerEm */
PUSHB[ ]	/* 1 value pushed */
30
LT[ ]	/* LessThan */
IF[ ]	/* If */
NPUSHB[ ]	/* 11 values pushed */
80 1 6 8 37 13 2 4 1 2 76
ELSE[ ]	/* Else */
NPUSHB[ ]	/* 11 values pushed */
80 1 7 8 37 13 2 4 1 2 76
EIF[ ]	/* EndIf */
MPPEM[ ]	/* MeasurePixelPerEm */
PUSHB[ ]	/* 1 value pushed */
30
LT[ ]	/* LessThan */
IF[ ]	/* If */
NPUSHB[ ]	/* 46 values pushed */
9 1 8 6 8 133 0 1 5 4 5 1 4 128 0 4 3 5 4 3 126 7 1 6 0 5 1 6 5 105 0 2 2 29 77 0 3 3 30 77 0 0 0 27 0 78
ELSE[ ]	/* Else */
NPUSHB[ ]	/* 55 values pushed */
9 1 8 7 8 133 0 6 7 2 7 6 2 128 0 2 5 7 2 5 126 0 1 5 4 5 1 4 128 0 4 3 5 4 3 126 0 7 0 5 1 7 5 105 0 3 3 30 77 0 0 0 27 0 78
EIF[ ]	/* EndIf */
NPUSHB[ ]	/* 17 values pushed */
60 60 60 87 60 83 130 44 39 41 41 36 29 32 10 8 30
CALL[ ]	/* CallFunction */";
};
width = 600;
}
);
note = amacron;
unicode = 257;
},
{
glyphname = aring;
layers = (
{
.lastUpdate = 753955765.466;
layerId = m01;
shapes = (
{
closed = 1;
nodes = (
(500,8,o),
(424,106,o),
(386,201,o),
(386,230,q),
(336,145,o),
(246,37,o),
(184,10,qs),
(168,4,o),
(148,4,qs),
(108,4,o),
(47,54,o),
(47,101,qs),
(47,114,o),
(50,129,qs),
(67,196,o),
(161,340,o),
(288,447,o),
(352,463,qs),
(368,467,o),
(385,467,qs),
(413,467,o),
(447,442,o),
(447,419,qs),
(447,403,o),
(436,379,q),
(448,379,o),
(470,343,o),
(470,329,q),
(487,268,o),
(527,189,o),
(595,120,o),
(654,78,q),
(660,72,o),
(678,67,o),
(678,63,qs),
(678,61,o),
(670,45,qs),
(658,19,o),
(604,-26,o),
(574,-26,qs),
(565,-26,o),
(554,-23,q)
);
},
{
closed = 1;
nodes = (
(296,173,o),
(338,237,o),
(352,279,qs),
(367,320,o),
(367,349,qs),
(367,396,o),
(319,396,qs),
(280,396,o),
(209,326,o),
(160,224,o),
(151,179,qs),
(148,166,o),
(148,153,qs),
(148,125,o),
(174,89,o),
(194,89,qs),
(231,89,o),
(268,144,q)
);
},
{
closed = 1;
nodes = (
(385,654,o),
(339,665,o),
(318,665,qs),
(299,665,o),
(277,647,o),
(277,624,qs),
(277,619,ls),
(277,608,o),
(284,601,q),
(299,582,o),
(331,582,qs),
(356,582,o),
(396,606,o),
(396,625,qs),
(396,633,o),
(392,641,qs)
);
}
);
userData = {
assembly = "PUSHB[ ]	/* 7 values pushed */
37 13 2 4 1 1 76
MPPEM[ ]	/* MeasurePixelPerEm */
PUSHB[ ]	/* 1 value pushed */
30
LT[ ]	/* LessThan */
IF[ ]	/* If */
NPUSHB[ ]	/* 44 values pushed */
0 7 6 7 133 0 1 5 4 5 1 4 128 0 4 3 5 4 3 126 0 6 0 5 1 6 5 105 0 2 2 29 77 0 3 3 30 77 0 0 0 27 0 78
ELSE[ ]	/* Else */
NPUSHB[ ]	/* 47 values pushed */
0 7 6 7 133 0 2 6 5 6 2 5 128 0 1 5 4 5 1 4 128 0 4 3 5 4 3 126 0 6 0 5 1 6 5 105 0 3 3 30 77 0 0 0 27 0 78
EIF[ ]	/* EndIf */
NPUSHB[ ]	/* 11 values pushed */
38 42 39 41 41 36 29 32 8 8 30
CALL[ ]	/* CallFunction */";
};
width = 600;
}
);
note = aring;
unicode = 229;
},
{
glyphname = atilde;
layers = (
{
.lastUpdate = 753955765.466;
layerId = m01;
shapes = (
{
closed = 1;
nodes = (
(500,8,o),
(424,106,o),
(386,201,o),
(386,230,q),
(336,145,o),
(246,37,o),
(184,10,qs),
(168,4,o),
(148,4,qs),
(108,4,o),
(47,54,o),
(47,101,qs),
(47,114,o),
(50,129,qs),
(67,196,o),
(161,340,o),
(288,447,o),
(352,463,qs),
(368,467,o),
(385,467,qs),
(413,467,o),
(447,442,o),
(447,419,qs),
(447,403,o),
(436,379,q),
(448,379,o),
(470,343,o),
(470,329,q),
(487,268,o),
(527,189,o),
(595,120,o),
(654,78,q),
(660,72,o),
(678,67,o),
(678,63,qs),
(678,61,o),
(670,45,qs),
(658,19,o),
(604,-26,o),
(574,-26,qs),
(565,-26,o),
(554,-23,q)
);
},
{
closed = 1;
nodes = (
(296,173,o),
(338,237,o),
(352,279,qs),
(367,320,o),
(367,349,qs),
(367,396,o),
(319,396,qs),
(280,396,o),
(209,326,o),
(160,224,o),
(151,179,qs),
(148,166,o),
(148,153,qs),
(148,125,o),
(174,89,o),
(194,89,qs),
(231,89,o),
(268,144,q)
);
},
{
closed = 1;
nodes = (
(93,622,o),
(162,673,o),
(215,673,qs),
(229,673,o),
(257,669,qs),
(276,666,o),
(320,652,o),
(341,645,qs),
(400,623,o),
(434,619,qs),
(460,616,o),
(482,616,qs),
(528,616,o),
(566,627,qs),
(569,628,o),
(579,631,o),
(582,631,q),
(583,630,o),
(583,617,qs),
(583,605,ls),
(583,583,o),
(569,564,o),
(556,560,o),
(518,553,qs),
(508,551,o),
(488,551,qs),
(460,551,o),
(405,566,o),
(367,580,qs),
(328,594,o),
(287,606,o),
(264,608,qs),
(255,608,ls),
(238,608,o),
(216,603,q),
(198,594,ls),
(176,583,o),
(119,559,o),
(105,559,qs),
(101,559,o),
(94,564,o),
(93,568,q)
);
}
);
userData = {
assembly = "NPUSHB[ ]	/* 11 values pushed */
101 1 6 7 37 13 2 4 1 2 76
MPPEM[ ]	/* MeasurePixelPerEm */
PUSHB[ ]	/* 1 value pushed */
30
LT[ ]	/* LessThan */
IF[ ]	/* If */
NPUSHB[ ]	/* 60 values pushed */
0 7 9 6 9 7 6 128 0 5 2 1 2 5 1 128 0 1 4 2 1 4 126 0 4 3 2 4 3 126 0 9 8 1 6 2 9 6 105 0 2 2 29 77 0 10 10 3 97 0 3 3 30 77 0 0 0 27 0 78
ELSE[ ]	/* Else */
NPUSHB[ ]	/* 68 values pushed */
0 7 9 6 9 7 6 128 0 6 8 9 6 8 126 0 2 8 5 8 2 5 128 0 5 1 8 5 1 126 0 1 4 8 1 4 126 0 4 3 8 4 3 126 0 9 0 8 2 9 8 105 0 10 10 3 97 0 3 3 30 77 0 0 0 27 0 78
EIF[ ]	/* EndIf */
NPUSHB[ ]	/* 16 values pushed */
99 97 90 88 37 36 40 39 41 41 36 29 32 11 8 31
CALL[ ]	/* CallFunction */";
};
width = 600;
}
);
note = atilde;
unicode = 227;
},
{
glyphname = b;
layers = (
{
.lastUpdate = 753955765.466;
layerId = m01;
shapes = (
{
closed = 1;
nodes = (
(362,28,o),
(389,142,q),
(400,172,o),
(400,218,qs),
(400,249,o),
(386,289,o),
(371,289,qs),
(365,289,o),
(354,283,q),
(279,208,o),
(279,110,qs),
(279,87,o),
(283,53,q),
(283,36,o),
(254,4,o),
(213,-17,o),
(195,-17,qs),
(182,-17,o),
(177,-13,o),
(177,0,qs),
(174,71,o),
(158,207,o),
(145,300,qs),
(126,439,o),
(124,460,qs),
(124,471,o),
(117,529,qs),
(106,635,o),
(106,655,qs),
(106,662,o),
(141,701,o),
(185,733,o),
(199,733,qs),
(209,733,o),
(213,725,q),
(213,637,ls),
(213,574,o),
(219,526,qs),
(223,493,o),
(239,404,qs),
(266,252,o),
(266,230,q),
(277,254,o),
(300,282,o),
(319,301,qs),
(344,327,o),
(398,356,o),
(422,356,qs),
(450,356,o),
(490,312,o),
(496,266,q),
(496,146,o),
(348,-64,o),
(219,-129,q),
(200,-134,o),
(200,-116,qs),
(200,-102,o),
(221,-57,o),
(250,-22,o),
(262,-21,q)
);
}
);
userData = {
assembly = "NPUSHB[ ]	/* 46 values pushed */
34 24 2 0 1 46 17 8 3 2 3 2 76 0 0 1 3 1 0 3 128 0 3 2 1 3 2 126 0 1 1 28 77 0 2 2 27 2 78 40 46 45 42 4 8 26
CALL[ ]	/* CallFunction */";
};
width = 600;
}
);
note = b;
unicode = 98;
},
{
glyphname = c;
layers = (
{
.lastUpdate = 753955765.466;
layerId = m01;
shapes = (
{
closed = 1;
nodes = (
(180,36,o),
(148,120,o),
(148,203,qs),
(148,248,o),
(196,392,o),
(290,502,o),
(356,502,qs),
(402,502,o),
(453,472,qs),
(468,464,o),
(468,444,qs),
(468,431,o),
(456,406,o),
(441,394,o),
(435,400,qs),
(423,412,o),
(385,427,o),
(363,427,qs),
(327,427,o),
(260,380,o),
(238,328,q),
(221,303,o),
(196,220,o),
(196,180,qs),
(196,147,o),
(216,93,o),
(238,77,q),
(255,70,o),
(274,70,qs),
(312,70,o),
(381,123,o),
(423,171,qs),
(453,203,l),
(456,203,o),
(473,201,o),
(489,193,o),
(489,185,q),
(476,127,o),
(415,44,o),
(335,3,o),
(294,3,qs),
(254,3,o),
(220,23,q)
);
}
);
userData = {
assembly = "PUSHB[ ]	/* 6 values pushed */
5 1 1 2 1 76
MPPEM[ ]	/* MeasurePixelPerEm */
PUSHB[ ]	/* 1 value pushed */
26
LT[ ]	/* LessThan */
IF[ ]	/* If */
NPUSHB[ ]	/* 21 values pushed */
0 2 2 3 97 0 3 3 29 77 0 1 1 0 97 0 0 0 30 0 78
ELSE[ ]	/* Else */
NPUSHB[ ]	/* 19 values pushed */
0 3 0 2 1 3 2 105 0 1 1 0 97 0 0 0 30 0 78
EIF[ ]	/* EndIf */
PUSHB[ ]	/* 7 values pushed */
41 41 42 32 4 8 26
CALL[ ]	/* CallFunction */";
};
width = 600;
}
);
note = c;
unicode = 99;
},
{
glyphname = d;
layers = (
{
.lastUpdate = 753955765.466;
layerId = m01;
shapes = (
{
closed = 1;
nodes = (
(437,-93,o),
(406,10,o),
(385,151,o),
(384,178,q),
(347,106,o),
(237,-3,o),
(168,-3,qs),
(119,-3,o),
(67,64,o),
(67,110,qs),
(67,129,o),
(71,144,q),
(79,202,o),
(160,334,o),
(275,422,o),
(331,422,qs),
(343,422,o),
(349,421,q),
(349,486,o),
(332,642,qs),
(330,666,ls),
(329,678,o),
(354,703,o),
(390,727,o),
(402,735,qs),
(408,738,o),
(412,738,qs),
(424,738,o),
(424,717,q),
(432,653,o),
(480,315,o),
(531,-1,o),
(540,-13,qs),
(546,-20,o),
(507,-49,o),
(472,-70,qs),
(453,-82,ls)
);
},
{
closed = 1;
nodes = (
(218,87,o),
(227,87,qs),
(258,87,o),
(315,171,o),
(351,277,o),
(349,300,qs),
(340,361,o),
(301,361,qs),
(274,361,o),
(210,310,o),
(191,281,qs),
(167,241,o),
(167,191,qs),
(167,157,o),
(190,101,o),
(210,91,qs)
);
}
);
userData = {
assembly = "NPUSHB[ ]	/* 42 values pushed */
7 1 1 0 32 1 4 3 2 76 0 1 0 3 4 1 3 105 0 0 0 28 77 0 4 4 2 97 0 2 2 30 2 78 36 45 39 57 24 5 8 27
CALL[ ]	/* CallFunction */";
};
width = 600;
}
);
note = d;
unicode = 100;
},
{
glyphname = e;
layers = (
{
.lastUpdate = 753955765.466;
layerId = m01;
shapes = (
{
closed = 1;
nodes = (
(139,119,o),
(127,214,o),
(127,274,q),
(111,268,o),
(98,268,qs),
(80,268,o),
(73,281,q),
(65,305,o),
(65,317,qs),
(65,324,o),
(69,329,o),
(72,329,o),
(73,329,q),
(81,325,o),
(89,325,qs),
(97,325,o),
(127,335,q),
(127,389,o),
(152,439,qs),
(172,480,o),
(240,538,o),
(315,567,o),
(346,567,qs),
(370,567,o),
(399,549,o),
(399,532,qs),
(399,522,o),
(395,513,q),
(382,450,o),
(271,327,o),
(212,297,q),
(215,263,o),
(249,170,o),
(302,102,o),
(333,102,qs),
(357,102,o),
(377,121,qs),
(404,147,o),
(486,242,o),
(519,299,q),
(525,303,o),
(527,303,qs),
(534,303,o),
(542,282,o),
(542,269,qs),
(542,259,o),
(538,245,q),
(517,190,o),
(440,75,o),
(342,-3,o),
(292,-3,qs),
(221,-3,o),
(162,84,qs)
);
},
{
closed = 1;
nodes = (
(216,453,o),
(199,408,o),
(199,383,qs),
(199,367,o),
(202,352,q),
(219,360,o),
(273,400,o),
(288,415,qs),
(302,428,o),
(319,463,o),
(319,478,qs),
(319,489,o),
(308,502,o),
(298,502,qs),
(275,502,o),
(234,469,qs)
);
}
);
userData = {
assembly = "NPUSHB[ ]	/* 60 values pushed */
63 39 35 3 4 6 49 21 2 5 1 2 76 0 3 6 3 133 0 6 4 6 133 0 1 4 5 4 1 5 128 0 4 0 5 2 4 5 105 0 2 2 0 98 0 0 0 30 0 78 37 40 38 42 37 39 32 7 8 29
CALL[ ]	/* CallFunction */";
};
width = 600;
}
);
note = e;
unicode = 101;
},
